<svg width="2362" height="1105" viewBox="0 0 2362 1105" fill="none" xmlns="http://www.w3.org/2000/svg">
<path opacity="0.2" d="M2360.24 0V39.5412H2310.67V0H2308V39.5412H2258.43V0H2255.77V39.5412H2206.19V0H2203.53V39.5412H2153.96V0H2151.29V39.5412H2101.72V0H2099.05V39.5715H2049.48V0H2046.81V39.5412H1997.24V0H1994.57V39.5412H1945V0H1942.34V39.5412H1892.77V0H1890.1V39.5412H1840.53V0H1837.86V39.5412H1788.29V0H1785.62V39.5412H1736.05V0H1733.38V39.5412H1683.81V0H1681.14V39.5412H1631.57V0H1628.91V39.5412H1579.34V0H1576.67V39.5412H1527.1V0H1524.43V39.5715H1474.86V0H1472.19V39.5412H1422.62V0H1419.95V39.5412H1370.38V0H1367.71V39.5412H1318.14V0H1315.48V39.5412H1265.91V0H1263.24V39.5412H1213.67V0H1211V39.5412H1161.43V0H1158.76V39.5412H1109.19V0H1106.52V39.5412H1056.95V0H1054.29V39.5412H1004.71V0H1002.05V39.5412H952.477V0H949.809V39.5412H900.238V0H897.57V39.5412H848V0H845.332V39.5412H795.762V0H793.094V39.5412H743.524V0H740.855V39.5412H691.285V0H688.617V39.5412H639.047V0H636.379V39.5412H586.809V0H584.141V39.5412H534.571V0H531.902V39.5412H482.332V0H479.664V39.5412H430.094V0H427.426V39.5412H377.856V0H375.188V39.5412H325.617V0H322.949V39.5412H273.379V0H270.711V39.5412H221.141V0H218.473V39.5412H168.903V0H166.235V39.5412H116.664V0H113.996V39.5412H64.4262V0H61.7582V39.5412H0V42.2078H60.8486V90.1754H0V92.8419H60.8486V140.84H0V143.506H60.8486V191.474H0V194.141H60.8486V242.139H0V244.805H60.8486V292.773H0V295.439H60.8486V343.437H0V346.104H60.8486V394.072H0V396.738H60.8486V444.736H0V447.403H60.8486V495.37H0V498.037H60.8486V546.035H0V548.701H60.8486V596.669H0V599.335H60.8486V647.333H0V650H60.8486V697.967H0V700.634H60.8486V748.632H0V751.298H60.8486V799.297H0V801.963H60.8486V849.931H0V852.597H60.8486V900.595H0V903.262H60.8486V951.229H0V953.896H60.8486V1001.89H0V1004.56H60.8486V1052.53H0V1055.19H60.8486V1105H63.5166V1055.19H113.087V1105H115.755V1055.19H165.325V1105H167.993V1055.19H217.563V1105H220.231V1055.19H269.802V1105H272.47V1055.19H322.04V1105H324.708V1055.19H374.278V1105H376.946V1055.19H426.516V1105H429.184V1055.19H478.755V1105H481.423V1055.19H530.993V1105H533.661V1055.19H583.231V1105H585.899V1055.19H635.469V1105H638.137V1055.19H687.708V1105H690.376V1055.19H739.946V1105H742.614V1055.19H792.184V1105H794.852V1055.19H844.422V1105H847.09V1055.19H896.661V1105H899.329V1055.19H948.899V1105H951.567V1055.19H1001.14V1105H1003.81V1055.19H1053.38V1105H1056.04V1055.19H1105.61V1105H1108.28V1055.19H1157.85V1105H1160.52V1055.19H1210.09V1105H1212.76V1055.19H1262.33V1105H1265V1055.19H1314.57V1105H1317.23V1055.19H1366.81V1105H1369.47V1055.19H1419.04V1105H1421.71V1055.19H1471.28V1105H1473.95V1055.19H1523.52V1105H1526.19V1055.19H1575.76V1105H1578.43V1055.19H1628V1105H1630.66V1055.19H1680.23V1105H1682.9V1055.19H1732.47V1105H1735.14V1055.19H1784.71V1105H1787.38V1055.19H1836.95V1105H1839.62V1055.19H1889.19V1105H1891.86V1055.19H1941.43V1105H1944.09V1055.19H1993.66V1105H1996.33V1055.19H2045.9V1105H2048.57V1055.19H2098.14V1105H2100.81V1055.19H2150.38V1105H2153.05V1055.19H2202.62V1105H2205.29V1055.19H2254.86V1105H2257.52V1055.19H2307.09V1105H2309.76V1055.19H2359.33V1105H2362V0H2359.33H2360.24ZM2360.24 42.2078V90.1754H2310.67V42.2078H2360.24ZM1837.65 546.126H1788.08V498.128H1837.65V546.126ZM1840.31 498.128H1889.88V546.126H1840.31V498.128ZM1785.38 546.126H1735.81V498.128H1785.38V546.126ZM1733.14 546.126H1683.57V498.128H1733.14V546.126ZM1680.87 546.126H1631.3V498.128H1680.87V546.126ZM1628.6 546.126H1579.03V498.128H1628.6V546.126ZM1576.36 546.126H1526.79V498.128H1576.36V546.126ZM1524.1 546.126H1474.53V498.128H1524.1V546.126ZM1471.83 546.126H1422.26V498.128H1471.83V546.126ZM1419.59 546.126H1370.02V498.128H1419.59V546.126ZM1367.32 546.126H1317.75V498.128H1367.32V546.126ZM1315.05 546.126H1265.48V498.128H1315.05V546.126ZM1262.81 546.126H1213.24V498.128H1262.81V546.126ZM1210.55 546.126H1160.97V498.128H1210.55V546.126ZM1158.28 546.126H1108.71V498.128H1158.28V546.126ZM1106.04 546.126H1056.47V498.128H1106.04V546.126ZM1053.77 546.126H1004.2V498.128H1053.77V546.126ZM1001.5 546.126H951.931V498.128H1001.5V546.126ZM949.263 546.126H899.693V498.128H949.263V546.126ZM896.994 546.126H847.424V498.128H896.994V546.126ZM844.726 546.126H795.155V498.128H844.726V546.126ZM792.487 546.126H742.917V498.128H792.487V546.126ZM740.219 546.126H690.649V498.128H740.219V546.126ZM687.95 546.126H638.38V498.128H687.95V546.126ZM635.712 546.126H586.142V498.128H635.712V546.126ZM583.443 546.126H533.873V498.128H583.443V546.126ZM583.443 548.792V596.76H533.873V548.792H583.443ZM586.111 548.792H635.682V596.76H586.111V548.792ZM638.38 548.792H687.95V596.76H638.38V548.792ZM690.649 548.792H740.219V596.76H690.649V548.792ZM742.887 548.792H792.457V596.76H742.887V548.792ZM795.155 548.792H844.726V596.76H795.155V548.792ZM847.394 548.792H896.964V596.76H847.394V548.792ZM899.662 548.792H949.233V596.76H899.662V548.792ZM951.931 548.792H1001.5V596.76H951.931V548.792ZM1004.2 548.792H1053.77V596.76H1004.2V548.792ZM1056.44 548.792H1106.01V596.76H1056.44V548.792ZM1108.71 548.792H1158.28V596.76H1108.71V548.792ZM1160.94 548.792H1210.51V596.76H1160.94V548.792ZM1213.21 548.792H1262.78V596.76H1213.21V548.792ZM1265.48 548.792H1315.05V596.76H1265.48V548.792ZM1317.75 548.792H1367.32V596.76H1317.75V548.792ZM1369.99 548.792H1419.56V596.76H1369.99V548.792ZM1422.26 548.792H1471.83V596.76H1422.26V548.792ZM1474.53 548.792H1524.1V596.76H1474.53V548.792ZM1526.76 548.792H1576.33V596.76H1526.76V548.792ZM1579.03 548.792H1628.6V596.76H1579.03V548.792ZM1631.3 548.792H1680.87V596.76H1631.3V548.792ZM1683.54 548.792H1733.11V596.76H1683.54V548.792ZM1735.81 548.792H1785.38V596.76H1735.81V548.792ZM1788.08 548.792H1837.65V596.76H1788.08V548.792ZM1840.31 548.792H1889.88V596.76H1840.31V548.792ZM1892.58 548.792H1942.15V596.76H1892.58V548.792ZM1892.58 546.126V498.128H1942.15V546.126H1892.58ZM1892.58 495.461V447.493H1942.15V495.461H1892.58ZM1889.92 495.461H1840.35V447.493H1889.92V495.461ZM1837.65 495.461H1788.08V447.493H1837.65V495.461ZM1785.38 495.461H1735.81V447.493H1785.38V495.461ZM1733.14 495.461H1683.57V447.493H1733.14V495.461ZM1680.87 495.461H1631.3V447.493H1680.87V495.461ZM1628.6 495.461H1579.03V447.493H1628.6V495.461ZM1576.36 495.461H1526.79V447.493H1576.36V495.461ZM1524.1 495.461H1474.53V447.493H1524.1V495.461ZM1471.83 495.461H1422.26V447.493H1471.83V495.461ZM1419.59 495.461H1370.02V447.493H1419.59V495.461ZM1367.32 495.461H1317.75V447.493H1367.32V495.461ZM1315.05 495.461H1265.48V447.493H1315.05V495.461ZM1262.81 495.461H1213.24V447.493H1262.81V495.461ZM1210.55 495.461H1160.97V447.493H1210.55V495.461ZM1158.28 495.461H1108.71V447.493H1158.28V495.461ZM1106.04 495.461H1056.47V447.493H1106.04V495.461ZM1053.77 495.461H1004.2V447.493H1053.77V495.461ZM1001.5 495.461H951.931V447.493H1001.5V495.461ZM949.263 495.461H899.693V447.493H949.263V495.461ZM896.994 495.461H847.424V447.493H896.994V495.461ZM844.726 495.461H795.155V447.493H844.726V495.461ZM792.487 495.461H742.917V447.493H792.487V495.461ZM740.219 495.461H690.649V447.493H740.219V495.461ZM687.95 495.461H638.38V447.493H687.95V495.461ZM635.712 495.461H586.142V447.493H635.712V495.461ZM583.443 495.461H533.873V447.493H583.443V495.461ZM531.175 495.461H481.605V447.493H531.175V495.461ZM531.175 498.128V546.126H481.605V498.128H531.175ZM531.175 548.792V596.76H481.605V548.792H531.175ZM531.175 599.457V647.455H481.605V599.457H531.175ZM533.873 599.457H583.443V647.455H533.873V599.457ZM586.111 599.457H635.682V647.455H586.111V599.457ZM638.38 599.457H687.95V647.455H638.38V599.457ZM690.649 599.457H740.219V647.455H690.649V599.457ZM742.887 599.457H792.457V647.455H742.887V599.457ZM795.155 599.457H844.726V647.455H795.155V599.457ZM847.394 599.457H896.964V647.455H847.394V599.457ZM899.662 599.457H949.233V647.455H899.662V599.457ZM951.931 599.457H1001.5V647.455H951.931V599.457ZM1004.2 599.457H1053.77V647.455H1004.2V599.457ZM1056.44 599.457H1106.01V647.455H1056.44V599.457ZM1108.71 599.457H1158.28V647.455H1108.71V599.457ZM1160.94 599.457H1210.51V647.455H1160.94V599.457ZM1213.21 599.457H1262.78V647.455H1213.21V599.457ZM1265.48 599.457H1315.05V647.455H1265.48V599.457ZM1317.75 599.457H1367.32V647.455H1317.75V599.457ZM1369.99 599.457H1419.56V647.455H1369.99V599.457ZM1422.26 599.457H1471.83V647.455H1422.26V599.457ZM1474.53 599.457H1524.1V647.455H1474.53V599.457ZM1526.76 599.457H1576.33V647.455H1526.76V599.457ZM1579.03 599.457H1628.6V647.455H1579.03V599.457ZM1631.3 599.457H1680.87V647.455H1631.3V599.457ZM1683.54 599.457H1733.11V647.455H1683.54V599.457ZM1735.81 599.457H1785.38V647.455H1735.81V599.457ZM1788.08 599.457H1837.65V647.455H1788.08V599.457ZM1840.31 599.457H1889.88V647.455H1840.31V599.457ZM1892.58 599.457H1942.15V647.455H1892.58V599.457ZM1944.82 599.457H1994.39V647.455H1944.82V599.457ZM1944.82 596.79V548.822H1994.39V596.79H1944.82ZM1944.82 546.126V498.128H1994.39V546.126H1944.82ZM1944.82 495.461V447.493H1994.39V495.461H1944.82ZM1944.82 444.827V396.829H1994.39V444.827H1944.82ZM1942.15 444.827H1892.58V396.829H1942.15V444.827ZM1889.92 444.827H1840.35V396.829H1889.92V444.827ZM1837.65 444.827H1788.08V396.829H1837.65V444.827ZM1785.38 444.827H1735.81V396.829H1785.38V444.827ZM1733.14 444.827H1683.57V396.829H1733.14V444.827ZM1680.87 444.827H1631.3V396.829H1680.87V444.827ZM1628.6 444.827H1579.03V396.829H1628.6V444.827ZM1576.36 444.827H1526.79V396.829H1576.36V444.827ZM1524.1 444.827H1474.53V396.829H1524.1V444.827ZM1471.83 444.827H1422.26V396.829H1471.83V444.827ZM1419.59 444.827H1370.02V396.829H1419.59V444.827ZM1367.32 444.827H1317.75V396.829H1367.32V444.827ZM1315.05 444.827H1265.48V396.829H1315.05V444.827ZM1262.81 444.827H1213.24V396.829H1262.81V444.827ZM1210.55 444.827H1160.97V396.829H1210.55V444.827ZM1158.28 444.827H1108.71V396.829H1158.28V444.827ZM1106.04 444.827H1056.47V396.829H1106.04V444.827ZM1053.77 444.827H1004.2V396.829H1053.77V444.827ZM1001.5 444.827H951.931V396.829H1001.5V444.827ZM949.263 444.827H899.693V396.829H949.263V444.827ZM896.994 444.827H847.424V396.829H896.994V444.827ZM844.726 444.827H795.155V396.829H844.726V444.827ZM792.487 444.827H742.917V396.829H792.487V444.827ZM740.219 444.827H690.649V396.829H740.219V444.827ZM687.95 444.827H638.38V396.829H687.95V444.827ZM635.712 444.827H586.142V396.829H635.712V444.827ZM583.443 444.827H533.873V396.829H583.443V444.827ZM531.175 444.827H481.605V396.829H531.175V444.827ZM478.937 444.827H429.366V396.829H478.937V444.827ZM478.937 447.493V495.461H429.366V447.493H478.937ZM478.937 498.128V546.126H429.366V498.128H478.937ZM478.937 548.792V596.76H429.366V548.792H478.937ZM478.937 599.457V647.455H429.366V599.457H478.937ZM478.937 650.121V698.089H429.366V650.121H478.937ZM481.605 650.121H531.175V698.089H481.605V650.121ZM533.873 650.121H583.443V698.089H533.873V650.121ZM586.111 650.121H635.682V698.089H586.111V650.121ZM638.38 650.121H687.95V698.089H638.38V650.121ZM690.649 650.121H740.219V698.089H690.649V650.121ZM742.887 650.121H792.457V698.089H742.887V650.121ZM795.155 650.121H844.726V698.089H795.155V650.121ZM847.394 650.121H896.964V698.089H847.394V650.121ZM899.662 650.121H949.233V698.089H899.662V650.121ZM951.931 650.121H1001.5V698.089H951.931V650.121ZM1004.2 650.121H1053.77V698.089H1004.2V650.121ZM1056.44 650.121H1106.01V698.089H1056.44V650.121ZM1108.71 650.121H1158.28V698.089H1108.71V650.121ZM1160.94 650.121H1210.51V698.089H1160.94V650.121ZM1213.21 650.121H1262.78V698.089H1213.21V650.121ZM1265.48 650.121H1315.05V698.089H1265.48V650.121ZM1317.75 650.121H1367.32V698.089H1317.75V650.121ZM1369.99 650.121H1419.56V698.089H1369.99V650.121ZM1422.26 650.121H1471.83V698.089H1422.26V650.121ZM1474.53 650.121H1524.1V698.089H1474.53V650.121ZM1526.76 650.121H1576.33V698.089H1526.76V650.121ZM1579.03 650.121H1628.6V698.089H1579.03V650.121ZM1631.3 650.121H1680.87V698.089H1631.3V650.121ZM1683.54 650.121H1733.11V698.089H1683.54V650.121ZM1735.81 650.121H1785.38V698.089H1735.81V650.121ZM1788.08 650.121H1837.65V698.089H1788.08V650.121ZM1840.31 650.121H1889.88V698.089H1840.31V650.121ZM1892.58 650.121H1942.15V698.089H1892.58V650.121ZM1944.82 650.121H1994.39V698.089H1944.82V650.121ZM1997.09 650.121H2046.66V698.089H1997.09V650.121ZM1997.09 647.455V599.457H2046.66V647.455H1997.09ZM1997.09 596.79V548.822H2046.66V596.79H1997.09ZM1997.09 546.126V498.128H2046.66V546.126H1997.09ZM1997.09 495.461V447.493H2046.66V495.461H1997.09ZM1997.09 444.827V396.829H2046.66V444.827H1997.09ZM1997.09 394.163V346.195H2046.66V394.163H1997.09ZM1994.42 394.163H1944.85V346.195H1994.42V394.163ZM1942.15 394.163H1892.58V346.195H1942.15V394.163ZM1889.92 394.163H1840.35V346.195H1889.92V394.163ZM1837.65 394.163H1788.08V346.195H1837.65V394.163ZM1785.38 394.163H1735.81V346.195H1785.38V394.163ZM1733.14 394.163H1683.57V346.195H1733.14V394.163ZM1680.87 394.163H1631.3V346.195H1680.87V394.163ZM1628.6 394.163H1579.03V346.195H1628.6V394.163ZM1576.36 394.163H1526.79V346.195H1576.36V394.163ZM1524.1 394.163H1474.53V346.195H1524.1V394.163ZM1471.83 394.163H1422.26V346.195H1471.83V394.163ZM1419.59 394.163H1370.02V346.195H1419.59V394.163ZM1367.32 394.163H1317.75V346.195H1367.32V394.163ZM1315.05 394.163H1265.48V346.195H1315.05V394.163ZM1262.81 394.163H1213.24V346.195H1262.81V394.163ZM1210.55 394.163H1160.97V346.195H1210.55V394.163ZM1158.28 394.163H1108.71V346.195H1158.28V394.163ZM1106.04 394.163H1056.47V346.195H1106.04V394.163ZM1053.77 394.163H1004.2V346.195H1053.77V394.163ZM1001.5 394.163H951.931V346.195H1001.5V394.163ZM949.263 394.163H899.693V346.195H949.263V394.163ZM896.994 394.163H847.424V346.195H896.994V394.163ZM844.726 394.163H795.155V346.195H844.726V394.163ZM792.487 394.163H742.917V346.195H792.487V394.163ZM740.219 394.163H690.649V346.195H740.219V394.163ZM687.95 394.163H638.38V346.195H687.95V394.163ZM635.712 394.163H586.142V346.195H635.712V394.163ZM583.443 394.163H533.873V346.195H583.443V394.163ZM531.175 394.163H481.605V346.195H531.175V394.163ZM478.937 394.163H429.366V346.195H478.937V394.163ZM426.668 394.163H377.098V346.195H426.668V394.163ZM426.668 396.829V444.827H377.098V396.829H426.668ZM426.668 447.493V495.461H377.098V447.493H426.668ZM426.668 498.128V546.126H377.098V498.128H426.668ZM426.668 548.792V596.76H377.098V548.792H426.668ZM426.668 599.457V647.455H377.098V599.457H426.668ZM426.668 650.121V698.089H377.098V650.121H426.668ZM426.668 700.786V748.783H377.098V700.786H426.668ZM429.336 700.786H478.906V748.783H429.336V700.786ZM481.605 700.786H531.175V748.783H481.605V700.786ZM533.873 700.786H583.443V748.783H533.873V700.786ZM586.111 700.786H635.682V748.783H586.111V700.786ZM638.38 700.786H687.95V748.783H638.38V700.786ZM690.649 700.786H740.219V748.783H690.649V700.786ZM742.887 700.786H792.457V748.783H742.887V700.786ZM795.155 700.786H844.726V748.783H795.155V700.786ZM847.394 700.786H896.964V748.783H847.394V700.786ZM899.662 700.786H949.233V748.783H899.662V700.786ZM951.931 700.786H1001.5V748.783H951.931V700.786ZM1004.2 700.786H1053.77V748.783H1004.2V700.786ZM1056.44 700.786H1106.01V748.783H1056.44V700.786ZM1108.71 700.786H1158.28V748.783H1108.71V700.786ZM1160.94 700.786H1210.51V748.783H1160.94V700.786ZM1213.21 700.786H1262.78V748.783H1213.21V700.786ZM1265.48 700.786H1315.05V748.783H1265.48V700.786ZM1317.75 700.786H1367.32V748.783H1317.75V700.786ZM1369.99 700.786H1419.56V748.783H1369.99V700.786ZM1422.26 700.786H1471.83V748.783H1422.26V700.786ZM1474.53 700.786H1524.1V748.783H1474.53V700.786ZM1526.76 700.786H1576.33V748.783H1526.76V700.786ZM1579.03 700.786H1628.6V748.783H1579.03V700.786ZM1631.3 700.786H1680.87V748.783H1631.3V700.786ZM1683.54 700.786H1733.11V748.783H1683.54V700.786ZM1735.81 700.786H1785.38V748.783H1735.81V700.786ZM1788.08 700.786H1837.65V748.783H1788.08V700.786ZM1840.31 700.786H1889.88V748.783H1840.31V700.786ZM1892.58 700.786H1942.15V748.783H1892.58V700.786ZM1944.82 700.786H1994.39V748.783H1944.82V700.786ZM1997.09 700.786H2046.66V748.783H1997.09V700.786ZM2049.36 700.786H2098.93V748.783H2049.36V700.786ZM2049.36 698.119V650.151H2098.93V698.119H2049.36ZM2049.36 647.455V599.457H2098.93V647.455H2049.36ZM2049.36 596.79V548.822H2098.93V596.79H2049.36ZM2049.36 546.126V498.128H2098.93V546.126H2049.36ZM2049.36 495.461V447.493H2098.93V495.461H2049.36ZM2049.36 444.827V396.829H2098.93V444.827H2049.36ZM2049.36 394.163V346.195H2098.93V394.163H2049.36ZM2049.36 343.498V295.5H2098.93V343.498H2049.36ZM2046.69 343.498H1997.12V295.5H2046.69V343.498ZM1994.42 343.498H1944.85V295.5H1994.42V343.498ZM1942.15 343.498H1892.58V295.5H1942.15V343.498ZM1889.92 343.498H1840.35V295.5H1889.92V343.498ZM1837.65 343.498H1788.08V295.5H1837.65V343.498ZM1785.38 343.498H1735.81V295.5H1785.38V343.498ZM1733.14 343.498H1683.57V295.5H1733.14V343.498ZM1680.87 343.498H1631.3V295.5H1680.87V343.498ZM1628.6 343.498H1579.03V295.5H1628.6V343.498ZM1576.36 343.498H1526.79V295.5H1576.36V343.498ZM1524.1 343.498H1474.53V295.5H1524.1V343.498ZM1471.83 343.498H1422.26V295.5H1471.83V343.498ZM1419.59 343.498H1370.02V295.5H1419.59V343.498ZM1367.32 343.498H1317.75V295.5H1367.32V343.498ZM1315.05 343.498H1265.48V295.5H1315.05V343.498ZM1262.81 343.498H1213.24V295.5H1262.81V343.498ZM1210.55 343.498H1160.97V295.5H1210.55V343.498ZM1158.28 343.498H1108.71V295.5H1158.28V343.498ZM1106.04 343.498H1056.47V295.5H1106.04V343.498ZM1053.77 343.498H1004.2V295.5H1053.77V343.498ZM1001.5 343.498H951.931V295.5H1001.5V343.498ZM949.263 343.498H899.693V295.5H949.263V343.498ZM896.994 343.498H847.424V295.5H896.994V343.498ZM844.726 343.498H795.155V295.5H844.726V343.498ZM792.487 343.498H742.917V295.5H792.487V343.498ZM740.219 343.498H690.649V295.5H740.219V343.498ZM687.95 343.498H638.38V295.5H687.95V343.498ZM635.712 343.498H586.142V295.5H635.712V343.498ZM583.443 343.498H533.873V295.5H583.443V343.498ZM531.175 343.498H481.605V295.5H531.175V343.498ZM478.937 343.498H429.366V295.5H478.937V343.498ZM426.668 343.498H377.098V295.5H426.668V343.498ZM374.399 343.498H324.829V295.5H374.399V343.498ZM374.399 346.165V394.132H324.829V346.165H374.399ZM374.399 396.829V444.827H324.829V396.829H374.399ZM374.399 447.493V495.461H324.829V447.493H374.399ZM374.399 498.128V546.126H324.829V498.128H374.399ZM374.399 548.792V596.76H324.829V548.792H374.399ZM374.399 599.457V647.455H324.829V599.457H374.399ZM374.399 650.121V698.089H324.829V650.121H374.399ZM374.399 700.786V748.783H324.829V700.786H374.399ZM374.399 751.45V799.448H324.829V751.45H374.399ZM377.067 751.45H426.638V799.448H377.067V751.45ZM429.336 751.45H478.906V799.448H429.336V751.45ZM481.605 751.45H531.175V799.448H481.605V751.45ZM533.873 751.45H583.443V799.448H533.873V751.45ZM586.111 751.45H635.682V799.448H586.111V751.45ZM638.38 751.45H687.95V799.448H638.38V751.45ZM690.649 751.45H740.219V799.448H690.649V751.45ZM742.887 751.45H792.457V799.448H742.887V751.45ZM795.155 751.45H844.726V799.448H795.155V751.45ZM847.394 751.45H896.964V799.448H847.394V751.45ZM899.662 751.45H949.233V799.448H899.662V751.45ZM951.931 751.45H1001.5V799.448H951.931V751.45ZM1004.2 751.45H1053.77V799.448H1004.2V751.45ZM1056.44 751.45H1106.01V799.448H1056.44V751.45ZM1108.71 751.45H1158.28V799.448H1108.71V751.45ZM1160.94 751.45H1210.51V799.448H1160.94V751.45ZM1213.21 751.45H1262.78V799.448H1213.21V751.45ZM1265.48 751.45H1315.05V799.448H1265.48V751.45ZM1317.75 751.45H1367.32V799.448H1317.75V751.45ZM1369.99 751.45H1419.56V799.448H1369.99V751.45ZM1422.26 751.45H1471.83V799.448H1422.26V751.45ZM1474.53 751.45H1524.1V799.448H1474.53V751.45ZM1526.76 751.45H1576.33V799.448H1526.76V751.45ZM1579.03 751.45H1628.6V799.448H1579.03V751.45ZM1631.3 751.45H1680.87V799.448H1631.3V751.45ZM1683.54 751.45H1733.11V799.448H1683.54V751.45ZM1735.81 751.45H1785.38V799.448H1735.81V751.45ZM1788.08 751.45H1837.65V799.448H1788.08V751.45ZM1840.31 751.45H1889.88V799.448H1840.31V751.45ZM1892.58 751.45H1942.15V799.448H1892.58V751.45ZM1944.82 751.45H1994.39V799.448H1944.82V751.45ZM1997.09 751.45H2046.66V799.448H1997.09V751.45ZM2049.36 751.45H2098.93V799.448H2049.36V751.45ZM2101.63 751.45H2151.2V799.448H2101.63V751.45ZM2101.63 748.783V700.786H2151.2V748.783H2101.63ZM2101.63 698.119V650.151H2151.2V698.119H2101.63ZM2101.63 647.455V599.457H2151.2V647.455H2101.63ZM2101.63 596.79V548.822H2151.2V596.79H2101.63ZM2101.63 546.126V498.128H2151.2V546.126H2101.63ZM2101.63 495.461V447.493H2151.2V495.461H2101.63ZM2101.63 444.827V396.829H2151.2V444.827H2101.63ZM2101.63 394.163V346.195H2151.2V394.163H2101.63ZM2101.63 343.498V295.5H2151.2V343.498H2101.63ZM2101.63 292.833V244.866H2151.2V292.833H2101.63ZM2098.93 292.833H2049.36V244.866H2098.93V292.833ZM2046.69 292.833H1997.12V244.866H2046.69V292.833ZM1994.42 292.833H1944.85V244.866H1994.42V292.833ZM1942.15 292.833H1892.58V244.866H1942.15V292.833ZM1889.92 292.833H1840.35V244.866H1889.92V292.833ZM1837.65 292.833H1788.08V244.866H1837.65V292.833ZM1785.38 292.833H1735.81V244.866H1785.38V292.833ZM1733.14 292.833H1683.57V244.866H1733.14V292.833ZM1680.87 292.833H1631.3V244.866H1680.87V292.833ZM1628.6 292.833H1579.03V244.866H1628.6V292.833ZM1576.36 292.833H1526.79V244.866H1576.36V292.833ZM1524.1 292.833H1474.53V244.866H1524.1V292.833ZM1471.83 292.833H1422.26V244.866H1471.83V292.833ZM1419.59 292.833H1370.02V244.866H1419.59V292.833ZM1367.32 292.833H1317.75V244.866H1367.32V292.833ZM1315.05 292.833H1265.48V244.866H1315.05V292.833ZM1262.81 292.833H1213.24V244.866H1262.81V292.833ZM1210.55 292.833H1160.97V244.866H1210.55V292.833ZM1158.28 292.833H1108.71V244.866H1158.28V292.833ZM1106.04 292.833H1056.47V244.866H1106.04V292.833ZM1053.77 292.833H1004.2V244.866H1053.77V292.833ZM1001.5 292.833H951.931V244.866H1001.5V292.833ZM949.263 292.833H899.693V244.866H949.263V292.833ZM896.994 292.833H847.424V244.866H896.994V292.833ZM844.726 292.833H795.155V244.866H844.726V292.833ZM792.487 292.833H742.917V244.866H792.487V292.833ZM740.219 292.833H690.649V244.866H740.219V292.833ZM687.95 292.833H638.38V244.866H687.95V292.833ZM635.712 292.833H586.142V244.866H635.712V292.833ZM583.443 292.833H533.873V244.866H583.443V292.833ZM531.175 292.833H481.605V244.866H531.175V292.833ZM478.937 292.833H429.366V244.866H478.937V292.833ZM426.668 292.833H377.098V244.866H426.668V292.833ZM374.399 292.833H324.829V244.866H374.399V292.833ZM322.161 292.833H272.591V244.866H322.161V292.833ZM322.161 295.5V343.498H272.591V295.5H322.161ZM322.161 346.165V394.132H272.591V346.165H322.161ZM322.161 396.829V444.827H272.591V396.829H322.161ZM322.161 447.493V495.461H272.591V447.493H322.161ZM322.161 498.128V546.126H272.591V498.128H322.161ZM322.161 548.792V596.76H272.591V548.792H322.161ZM322.161 599.457V647.455H272.591V599.457H322.161ZM322.161 650.121V698.089H272.591V650.121H322.161ZM322.161 700.786V748.783H272.591V700.786H322.161ZM322.161 751.45V799.448H272.591V751.45H322.161ZM322.161 802.115V850.082H272.591V802.115H322.161ZM324.829 802.115H374.399V850.082H324.829V802.115ZM377.067 802.115H426.638V850.082H377.067V802.115ZM429.336 802.115H478.906V850.082H429.336V802.115ZM481.605 802.115H531.175V850.082H481.605V802.115ZM533.873 802.115H583.443V850.082H533.873V802.115ZM586.111 802.115H635.682V850.082H586.111V802.115ZM638.38 802.115H687.95V850.082H638.38V802.115ZM690.649 802.115H740.219V850.082H690.649V802.115ZM742.887 802.115H792.457V850.082H742.887V802.115ZM795.155 802.115H844.726V850.082H795.155V802.115ZM847.394 802.115H896.964V850.082H847.394V802.115ZM899.662 802.115H949.233V850.082H899.662V802.115ZM951.931 802.115H1001.5V850.082H951.931V802.115ZM1004.2 802.115H1053.77V850.082H1004.2V802.115ZM1056.44 802.115H1106.01V850.082H1056.44V802.115ZM1108.71 802.115H1158.28V850.082H1108.71V802.115ZM1160.94 802.115H1210.51V850.082H1160.94V802.115ZM1213.21 802.115H1262.78V850.082H1213.21V802.115ZM1265.48 802.115H1315.05V850.082H1265.48V802.115ZM1317.75 802.115H1367.32V850.082H1317.75V802.115ZM1369.99 802.115H1419.56V850.082H1369.99V802.115ZM1422.26 802.115H1471.83V850.082H1422.26V802.115ZM1474.53 802.115H1524.1V850.082H1474.53V802.115ZM1526.76 802.115H1576.33V850.082H1526.76V802.115ZM1579.03 802.115H1628.6V850.082H1579.03V802.115ZM1631.3 802.115H1680.87V850.082H1631.3V802.115ZM1683.54 802.115H1733.11V850.082H1683.54V802.115ZM1735.81 802.115H1785.38V850.082H1735.81V802.115ZM1788.08 802.115H1837.65V850.082H1788.08V802.115ZM1840.31 802.115H1889.88V850.082H1840.31V802.115ZM1892.58 802.115H1942.15V850.082H1892.58V802.115ZM1944.82 802.115H1994.39V850.082H1944.82V802.115ZM1997.09 802.115H2046.66V850.082H1997.09V802.115ZM2049.36 802.115H2098.93V850.082H2049.36V802.115ZM2101.63 802.115H2151.2V850.082H2101.63V802.115ZM2153.87 802.115H2203.44V850.082H2153.87V802.115ZM2153.87 799.418V751.42H2203.44V799.418H2153.87ZM2153.87 748.783V700.786H2203.44V748.783H2153.87ZM2153.87 698.119V650.151H2203.44V698.119H2153.87ZM2153.87 647.455V599.457H2203.44V647.455H2153.87ZM2153.87 596.79V548.822H2203.44V596.79H2153.87ZM2153.87 546.126V498.128H2203.44V546.126H2153.87ZM2153.87 495.461V447.493H2203.44V495.461H2153.87ZM2153.87 444.827V396.829H2203.44V444.827H2153.87ZM2153.87 394.163V346.195H2203.44V394.163H2153.87ZM2153.87 343.498V295.5H2203.44V343.498H2153.87ZM2153.87 292.833V244.866H2203.44V292.833H2153.87ZM2153.87 242.169V194.171H2203.44V242.169H2153.87ZM2151.2 242.169H2101.63V194.171H2151.2V242.169ZM2098.93 242.169H2049.36V194.171H2098.93V242.169ZM2046.69 242.169H1997.12V194.171H2046.69V242.169ZM1994.42 242.169H1944.85V194.171H1994.42V242.169ZM1942.15 242.169H1892.58V194.171H1942.15V242.169ZM1889.92 242.169H1840.35V194.171H1889.92V242.169ZM1837.65 242.169H1788.08V194.171H1837.65V242.169ZM1785.38 242.169H1735.81V194.171H1785.38V242.169ZM1733.14 242.169H1683.57V194.171H1733.14V242.169ZM1680.87 242.169H1631.3V194.171H1680.87V242.169ZM1628.6 242.169H1579.03V194.171H1628.6V242.169ZM1576.36 242.169H1526.79V194.171H1576.36V242.169ZM1524.1 242.169H1474.53V194.171H1524.1V242.169ZM1471.83 242.169H1422.26V194.171H1471.83V242.169ZM1419.59 242.169H1370.02V194.171H1419.59V242.169ZM1367.32 242.169H1317.75V194.171H1367.32V242.169ZM1315.05 242.169H1265.48V194.171H1315.05V242.169ZM1262.81 242.169H1213.24V194.171H1262.81V242.169ZM1210.55 242.169H1160.97V194.171H1210.55V242.169ZM1158.28 242.169H1108.71V194.171H1158.28V242.169ZM1106.04 242.169H1056.47V194.171H1106.04V242.169ZM1053.77 242.169H1004.2V194.171H1053.77V242.169ZM1001.5 242.169H951.931V194.171H1001.5V242.169ZM949.263 242.169H899.693V194.171H949.263V242.169ZM896.994 242.169H847.424V194.171H896.994V242.169ZM844.726 242.169H795.155V194.171H844.726V242.169ZM792.487 242.169H742.917V194.171H792.487V242.169ZM740.219 242.169H690.649V194.171H740.219V242.169ZM687.95 242.169H638.38V194.171H687.95V242.169ZM635.712 242.169H586.142V194.171H635.712V242.169ZM583.443 242.169H533.873V194.171H583.443V242.169ZM531.175 242.169H481.605V194.171H531.175V242.169ZM478.937 242.169H429.366V194.171H478.937V242.169ZM426.668 242.169H377.098V194.171H426.668V242.169ZM374.399 242.169H324.829V194.171H374.399V242.169ZM322.161 242.169H272.591V194.171H322.161V242.169ZM269.893 242.169H220.322V194.171H269.893V242.169ZM269.893 244.866V292.833H220.322V244.866H269.893ZM269.893 295.5V343.498H220.322V295.5H269.893ZM269.893 346.165V394.132H220.322V346.165H269.893ZM269.893 396.829V444.827H220.322V396.829H269.893ZM269.893 447.493V495.461H220.322V447.493H269.893ZM269.893 498.128V546.126H220.322V498.128H269.893ZM269.893 548.792V596.76H220.322V548.792H269.893ZM269.893 599.457V647.455H220.322V599.457H269.893ZM269.893 650.121V698.089H220.322V650.121H269.893ZM269.893 700.786V748.783H220.322V700.786H269.893ZM269.893 751.45V799.448H220.322V751.45H269.893ZM269.893 802.115V850.082H220.322V802.115H269.893ZM269.893 852.749V900.747H220.322V852.749H269.893ZM272.561 852.749H322.131V900.747H272.561V852.749ZM324.829 852.749H374.399V900.747H324.829V852.749ZM377.067 852.749H426.638V900.747H377.067V852.749ZM429.336 852.749H478.906V900.747H429.336V852.749ZM481.605 852.749H531.175V900.747H481.605V852.749ZM533.873 852.749H583.443V900.747H533.873V852.749ZM586.111 852.749H635.682V900.747H586.111V852.749ZM638.38 852.749H687.95V900.747H638.38V852.749ZM690.649 852.749H740.219V900.747H690.649V852.749ZM742.887 852.749H792.457V900.747H742.887V852.749ZM795.155 852.749H844.726V900.747H795.155V852.749ZM847.394 852.749H896.964V900.747H847.394V852.749ZM899.662 852.749H949.233V900.747H899.662V852.749ZM951.931 852.749H1001.5V900.747H951.931V852.749ZM1004.2 852.749H1053.77V900.747H1004.2V852.749ZM1056.44 852.749H1106.01V900.747H1056.44V852.749ZM1108.71 852.749H1158.28V900.747H1108.71V852.749ZM1160.94 852.749H1210.51V900.747H1160.94V852.749ZM1213.21 852.749H1262.78V900.747H1213.21V852.749ZM1265.48 852.749H1315.05V900.747H1265.48V852.749ZM1317.75 852.749H1367.32V900.747H1317.75V852.749ZM1369.99 852.749H1419.56V900.747H1369.99V852.749ZM1422.26 852.749H1471.83V900.747H1422.26V852.749ZM1474.53 852.749H1524.1V900.747H1474.53V852.749ZM1526.76 852.749H1576.33V900.747H1526.76V852.749ZM1579.03 852.749H1628.6V900.747H1579.03V852.749ZM1631.3 852.749H1680.87V900.747H1631.3V852.749ZM1683.54 852.749H1733.11V900.747H1683.54V852.749ZM1735.81 852.749H1785.38V900.747H1735.81V852.749ZM1788.08 852.749H1837.65V900.747H1788.08V852.749ZM1840.31 852.749H1889.88V900.747H1840.31V852.749ZM1892.58 852.749H1942.15V900.747H1892.58V852.749ZM1944.82 852.749H1994.39V900.747H1944.82V852.749ZM1997.09 852.749H2046.66V900.747H1997.09V852.749ZM2049.36 852.749H2098.93V900.747H2049.36V852.749ZM2101.63 852.749H2151.2V900.747H2101.63V852.749ZM2153.87 852.749H2203.44V900.747H2153.87V852.749ZM2206.13 852.749H2255.7V900.747H2206.13V852.749ZM2206.13 850.082V802.115H2255.7V850.082H2206.13ZM2206.13 799.418V751.42H2255.7V799.418H2206.13ZM2206.13 748.783V700.786H2255.7V748.783H2206.13ZM2206.13 698.119V650.151H2255.7V698.119H2206.13ZM2206.13 647.455V599.457H2255.7V647.455H2206.13ZM2206.13 596.79V548.822H2255.7V596.79H2206.13ZM2206.13 546.126V498.128H2255.7V546.126H2206.13ZM2206.13 495.461V447.493H2255.7V495.461H2206.13ZM2206.13 444.827V396.829H2255.7V444.827H2206.13ZM2206.13 394.163V346.195H2255.7V394.163H2206.13ZM2206.13 343.498V295.5H2255.7V343.498H2206.13ZM2206.13 292.833V244.866H2255.7V292.833H2206.13ZM2206.13 242.169V194.171H2255.7V242.169H2206.13ZM2206.13 191.504V143.537H2255.7V191.504H2206.13ZM2203.47 191.504H2153.9V143.537H2203.47V191.504ZM2151.2 191.504H2101.63V143.537H2151.2V191.504ZM2098.93 191.504H2049.36V143.537H2098.93V191.504ZM2046.69 191.504H1997.12V143.537H2046.69V191.504ZM1994.42 191.504H1944.85V143.537H1994.42V191.504ZM1942.15 191.504H1892.58V143.537H1942.15V191.504ZM1889.92 191.504H1840.35V143.537H1889.92V191.504ZM1837.65 191.504H1788.08V143.537H1837.65V191.504ZM1785.38 191.504H1735.81V143.537H1785.38V191.504ZM1733.14 191.504H1683.57V143.537H1733.14V191.504ZM1680.87 191.504H1631.3V143.537H1680.87V191.504ZM1628.6 191.504H1579.03V143.537H1628.6V191.504ZM1576.36 191.504H1526.79V143.537H1576.36V191.504ZM1524.1 191.504H1474.53V143.537H1524.1V191.504ZM1471.83 191.504H1422.26V143.537H1471.83V191.504ZM1419.59 191.504H1370.02V143.537H1419.59V191.504ZM1367.32 191.504H1317.75V143.537H1367.32V191.504ZM1315.05 191.504H1265.48V143.537H1315.05V191.504ZM1262.81 191.504H1213.24V143.537H1262.81V191.504ZM1210.55 191.504H1160.97V143.537H1210.55V191.504ZM1158.28 191.504H1108.71V143.537H1158.28V191.504ZM1106.04 191.504H1056.47V143.537H1106.04V191.504ZM1053.77 191.504H1004.2V143.537H1053.77V191.504ZM1001.5 191.504H951.931V143.537H1001.5V191.504ZM949.263 191.504H899.693V143.537H949.263V191.504ZM896.994 191.504H847.424V143.537H896.994V191.504ZM844.726 191.504H795.155V143.537H844.726V191.504ZM792.487 191.504H742.917V143.537H792.487V191.504ZM740.219 191.504H690.649V143.537H740.219V191.504ZM687.95 191.504H638.38V143.537H687.95V191.504ZM635.712 191.504H586.142V143.537H635.712V191.504ZM583.443 191.504H533.873V143.537H583.443V191.504ZM531.175 191.504H481.605V143.537H531.175V191.504ZM478.937 191.504H429.366V143.537H478.937V191.504ZM426.668 191.504H377.098V143.537H426.668V191.504ZM374.399 191.504H324.829V143.537H374.399V191.504ZM322.161 191.504H272.591V143.537H322.161V191.504ZM269.893 191.504H220.322V143.537H269.893V191.504ZM217.624 191.504H168.054V143.537H217.624V191.504ZM217.624 194.201V242.199H168.054V194.201H217.624ZM217.624 244.866V292.833H168.054V244.866H217.624ZM217.624 295.5V343.498H168.054V295.5H217.624ZM217.624 346.165V394.132H168.054V346.165H217.624ZM217.624 396.829V444.827H168.054V396.829H217.624ZM217.624 447.493V495.461H168.054V447.493H217.624ZM217.624 498.128V546.126H168.054V498.128H217.624ZM217.624 548.792V596.76H168.054V548.792H217.624ZM217.624 599.457V647.455H168.054V599.457H217.624ZM217.624 650.121V698.089H168.054V650.121H217.624ZM217.624 700.786V748.783H168.054V700.786H217.624ZM217.624 751.45V799.448H168.054V751.45H217.624ZM217.624 802.115V850.082H168.054V802.115H217.624ZM217.624 852.749V900.747H168.054V852.749H217.624ZM217.624 903.413V951.381H168.054V903.413H217.624ZM220.322 903.413H269.893V951.381H220.322V903.413ZM272.561 903.413H322.131V951.381H272.561V903.413ZM324.829 903.413H374.399V951.381H324.829V903.413ZM377.067 903.413H426.638V951.381H377.067V903.413ZM429.336 903.413H478.906V951.381H429.336V903.413ZM481.605 903.413H531.175V951.381H481.605V903.413ZM533.873 903.413H583.443V951.381H533.873V903.413ZM586.111 903.413H635.682V951.381H586.111V903.413ZM638.38 903.413H687.95V951.381H638.38V903.413ZM690.649 903.413H740.219V951.381H690.649V903.413ZM742.887 903.413H792.457V951.381H742.887V903.413ZM795.155 903.413H844.726V951.381H795.155V903.413ZM847.394 903.413H896.964V951.381H847.394V903.413ZM899.662 903.413H949.233V951.381H899.662V903.413ZM951.931 903.413H1001.5V951.381H951.931V903.413ZM1004.2 903.413H1053.77V951.381H1004.2V903.413ZM1056.44 903.413H1106.01V951.381H1056.44V903.413ZM1108.71 903.413H1158.28V951.381H1108.71V903.413ZM1160.94 903.413H1210.51V951.381H1160.94V903.413ZM1213.21 903.413H1262.78V951.381H1213.21V903.413ZM1265.48 903.413H1315.05V951.381H1265.48V903.413ZM1317.75 903.413H1367.32V951.381H1317.75V903.413ZM1369.99 903.413H1419.56V951.381H1369.99V903.413ZM1422.26 903.413H1471.83V951.381H1422.26V903.413ZM1474.53 903.413H1524.1V951.381H1474.53V903.413ZM1526.76 903.413H1576.33V951.381H1526.76V903.413ZM1579.03 903.413H1628.6V951.381H1579.03V903.413ZM1631.3 903.413H1680.87V951.381H1631.3V903.413ZM1683.54 903.413H1733.11V951.381H1683.54V903.413ZM1735.81 903.413H1785.38V951.381H1735.81V903.413ZM1788.08 903.413H1837.65V951.381H1788.08V903.413ZM1840.31 903.413H1889.88V951.381H1840.31V903.413ZM1892.58 903.413H1942.15V951.381H1892.58V903.413ZM1944.82 903.413H1994.39V951.381H1944.82V903.413ZM1997.09 903.413H2046.66V951.381H1997.09V903.413ZM2049.36 903.413H2098.93V951.381H2049.36V903.413ZM2101.63 903.413H2151.2V951.381H2101.63V903.413ZM2153.87 903.413H2203.44V951.381H2153.87V903.413ZM2206.13 903.413H2255.7V951.381H2206.13V903.413ZM2258.37 903.413H2307.94V951.381H2258.37V903.413ZM2258.37 900.747V852.749H2307.94V900.747H2258.37ZM2258.37 850.082V802.115H2307.94V850.082H2258.37ZM2258.37 799.418V751.42H2307.94V799.418H2258.37ZM2258.37 748.783V700.786H2307.94V748.783H2258.37ZM2258.37 698.119V650.151H2307.94V698.119H2258.37ZM2258.37 647.455V599.457H2307.94V647.455H2258.37ZM2258.37 596.79V548.822H2307.94V596.79H2258.37ZM2258.37 546.126V498.128H2307.94V546.126H2258.37ZM2258.37 495.461V447.493H2307.94V495.461H2258.37ZM2258.37 444.827V396.829H2307.94V444.827H2258.37ZM2258.37 394.163V346.195H2307.94V394.163H2258.37ZM2258.37 343.498V295.5H2307.94V343.498H2258.37ZM2258.37 292.833V244.866H2307.94V292.833H2258.37ZM2258.37 242.169V194.171H2307.94V242.169H2258.37ZM2258.37 191.504V143.537H2307.94V191.504H2258.37ZM2258.37 140.87V92.8722H2307.94V140.87H2258.37ZM2255.7 140.87H2206.13V92.8722H2255.7V140.87ZM2203.47 140.87H2153.9V92.8722H2203.47V140.87ZM2151.2 140.87H2101.63V92.8722H2151.2V140.87ZM2098.93 140.87H2049.36V92.8722H2098.93V140.87ZM2046.69 140.87H1997.12V92.8722H2046.69V140.87ZM1994.42 140.87H1944.85V92.8722H1994.42V140.87ZM1942.15 140.87H1892.58V92.8722H1942.15V140.87ZM1889.92 140.87H1840.35V92.8722H1889.92V140.87ZM1837.65 140.87H1788.08V92.8722H1837.65V140.87ZM1785.38 140.87H1735.81V92.8722H1785.38V140.87ZM1733.14 140.87H1683.57V92.8722H1733.14V140.87ZM1680.87 140.87H1631.3V92.8722H1680.87V140.87ZM1628.6 140.87H1579.03V92.8722H1628.6V140.87ZM1576.36 140.87H1526.79V92.8722H1576.36V140.87ZM1524.1 140.87H1474.53V92.8722H1524.1V140.87ZM1471.83 140.87H1422.26V92.8722H1471.83V140.87ZM1419.59 140.87H1370.02V92.8722H1419.59V140.87ZM1367.32 140.87H1317.75V92.8722H1367.32V140.87ZM1315.05 140.87H1265.48V92.8722H1315.05V140.87ZM1262.81 140.87H1213.24V92.8722H1262.81V140.87ZM1210.55 140.87H1160.97V92.8722H1210.55V140.87ZM1158.28 140.87H1108.71V92.8722H1158.28V140.87ZM1106.04 140.87H1056.47V92.8722H1106.04V140.87ZM1053.77 140.87H1004.2V92.8722H1053.77V140.87ZM1001.5 140.87H951.931V92.8722H1001.5V140.87ZM949.263 140.87H899.693V92.8722H949.263V140.87ZM896.994 140.87H847.424V92.8722H896.994V140.87ZM844.726 140.87H795.155V92.8722H844.726V140.87ZM792.487 140.87H742.917V92.8722H792.487V140.87ZM740.219 140.87H690.649V92.8722H740.219V140.87ZM687.95 140.87H638.38V92.8722H687.95V140.87ZM635.712 140.87H586.142V92.8722H635.712V140.87ZM583.443 140.87H533.873V92.8722H583.443V140.87ZM531.175 140.87H481.605V92.8722H531.175V140.87ZM478.937 140.87H429.366V92.8722H478.937V140.87ZM426.668 140.87H377.098V92.8722H426.668V140.87ZM374.399 140.87H324.829V92.8722H374.399V140.87ZM322.161 140.87H272.591V92.8722H322.161V140.87ZM269.893 140.87H220.322V92.8722H269.893V140.87ZM217.624 140.87H168.054V92.8722H217.624V140.87ZM165.386 140.87H115.816V92.8722H165.386V140.87ZM165.386 143.537V191.504H115.816V143.537H165.386ZM165.386 194.201V242.199H115.816V194.201H165.386ZM165.386 244.866V292.833H115.816V244.866H165.386ZM165.386 295.5V343.498H115.816V295.5H165.386ZM165.386 346.165V394.132H115.816V346.165H165.386ZM165.386 396.829V444.827H115.816V396.829H165.386ZM165.386 447.493V495.461H115.816V447.493H165.386ZM165.386 498.128V546.126H115.816V498.128H165.386ZM165.386 548.792V596.76H115.816V548.792H165.386ZM165.386 599.457V647.455H115.816V599.457H165.386ZM165.386 650.121V698.089H115.816V650.121H165.386ZM165.386 700.786V748.783H115.816V700.786H165.386ZM165.386 751.45V799.448H115.816V751.45H165.386ZM165.386 802.115V850.082H115.816V802.115H165.386ZM165.386 852.749V900.747H115.816V852.749H165.386ZM165.386 903.413V951.381H115.816V903.413H165.386ZM165.386 954.078V1002.08H115.816V954.078H165.386ZM168.054 954.078H217.624V1002.08H168.054V954.078ZM220.322 954.078H269.893V1002.08H220.322V954.078ZM272.561 954.078H322.131V1002.08H272.561V954.078ZM324.829 954.078H374.399V1002.08H324.829V954.078ZM377.067 954.078H426.638V1002.08H377.067V954.078ZM429.336 954.078H478.906V1002.08H429.336V954.078ZM481.605 954.078H531.175V1002.08H481.605V954.078ZM533.873 954.078H583.443V1002.08H533.873V954.078ZM586.111 954.078H635.682V1002.08H586.111V954.078ZM638.38 954.078H687.95V1002.08H638.38V954.078ZM690.649 954.078H740.219V1002.08H690.649V954.078ZM742.887 954.078H792.457V1002.08H742.887V954.078ZM795.155 954.078H844.726V1002.08H795.155V954.078ZM847.394 954.078H896.964V1002.08H847.394V954.078ZM899.662 954.078H949.233V1002.08H899.662V954.078ZM951.931 954.078H1001.5V1002.08H951.931V954.078ZM1004.2 954.078H1053.77V1002.08H1004.2V954.078ZM1056.44 954.078H1106.01V1002.08H1056.44V954.078ZM1108.71 954.078H1158.28V1002.08H1108.71V954.078ZM1160.94 954.078H1210.51V1002.08H1160.94V954.078ZM1213.21 954.078H1262.78V1002.08H1213.21V954.078ZM1265.48 954.078H1315.05V1002.08H1265.48V954.078ZM1317.75 954.078H1367.32V1002.08H1317.75V954.078ZM1369.99 954.078H1419.56V1002.08H1369.99V954.078ZM1422.26 954.078H1471.83V1002.08H1422.26V954.078ZM1474.53 954.078H1524.1V1002.08H1474.53V954.078ZM1526.76 954.078H1576.33V1002.08H1526.76V954.078ZM1579.03 954.078H1628.6V1002.08H1579.03V954.078ZM1631.3 954.078H1680.87V1002.08H1631.3V954.078ZM1683.54 954.078H1733.11V1002.08H1683.54V954.078ZM1735.81 954.078H1785.38V1002.08H1735.81V954.078ZM1788.08 954.078H1837.65V1002.08H1788.08V954.078ZM1840.31 954.078H1889.88V1002.08H1840.31V954.078ZM1892.58 954.078H1942.15V1002.08H1892.58V954.078ZM1944.82 954.078H1994.39V1002.08H1944.82V954.078ZM1997.09 954.078H2046.66V1002.08H1997.09V954.078ZM2049.36 954.078H2098.93V1002.08H2049.36V954.078ZM2101.63 954.078H2151.2V1002.08H2101.63V954.078ZM2153.87 954.078H2203.44V1002.08H2153.87V954.078ZM2206.13 954.078H2255.7V1002.08H2206.13V954.078ZM2258.37 954.078H2307.94V1002.08H2258.37V954.078ZM2310.64 954.078H2360.21V1002.08H2310.64V954.078ZM2310.64 951.411V903.444H2360.21V951.411H2310.64ZM2310.64 900.747V852.749H2360.21V900.747H2310.64ZM2310.64 850.082V802.115H2360.21V850.082H2310.64ZM2310.64 799.418V751.42H2360.21V799.418H2310.64ZM2310.64 748.783V700.786H2360.21V748.783H2310.64ZM2310.64 698.119V650.151H2360.21V698.119H2310.64ZM2310.64 647.455V599.457H2360.21V647.455H2310.64ZM2310.64 596.79V548.822H2360.21V596.79H2310.64ZM2310.64 546.126V498.128H2360.21V546.126H2310.64ZM2310.64 495.461V447.493H2360.21V495.461H2310.64ZM2310.64 444.827V396.829H2360.21V444.827H2310.64ZM2310.64 394.163V346.195H2360.21V394.163H2310.64ZM2310.64 343.498V295.5H2360.21V343.498H2310.64ZM2310.64 292.833V244.866H2360.21V292.833H2310.64ZM2310.64 242.169V194.171H2360.21V242.169H2310.64ZM2310.64 191.504V143.537H2360.21V191.504H2310.64ZM2310.64 140.87V92.8722H2360.21V140.87H2310.64ZM2307.97 42.2078V90.1754H2258.4V42.2078H2307.97ZM2255.7 42.2078V90.1754H2206.13V42.2078H2255.7ZM2203.47 42.2078V90.1754H2153.9V42.2078H2203.47ZM2151.2 42.2078V90.1754H2101.63V42.2078H2151.2ZM2098.93 42.2078V90.1754H2049.36V42.2078H2098.93ZM2046.69 42.2078V90.1754H1997.12V42.2078H2046.69ZM1994.42 42.2078V90.1754H1944.85V42.2078H1994.42ZM1942.15 42.2078V90.1754H1892.58V42.2078H1942.15ZM1889.92 42.2078V90.1754H1840.35V42.2078H1889.92ZM1837.65 42.2078V90.1754H1788.08V42.2078H1837.65ZM1785.38 42.2078V90.1754H1735.81V42.2078H1785.38ZM1733.14 42.2078V90.1754H1683.57V42.2078H1733.14ZM1680.87 42.2078V90.1754H1631.3V42.2078H1680.87ZM1628.6 42.2078V90.1754H1579.03V42.2078H1628.6ZM1576.36 42.2078V90.1754H1526.79V42.2078H1576.36ZM1524.1 42.2078V90.1754H1474.53V42.2078H1524.1ZM1471.83 42.2078V90.1754H1422.26V42.2078H1471.83ZM1419.59 42.2078V90.1754H1370.02V42.2078H1419.59ZM1367.32 42.2078V90.1754H1317.75V42.2078H1367.32ZM1315.05 42.2078V90.1754H1265.48V42.2078H1315.05ZM1262.81 42.2078V90.1754H1213.24V42.2078H1262.81ZM1210.55 42.2078V90.1754H1160.97V42.2078H1210.55ZM1158.28 42.2078V90.1754H1108.71V42.2078H1158.28ZM1106.04 42.2078V90.1754H1056.47V42.2078H1106.04ZM1053.77 42.2078V90.1754H1004.2V42.2078H1053.77ZM1001.5 42.2078V90.1754H951.931V42.2078H1001.5ZM949.263 42.2078V90.1754H899.693V42.2078H949.263ZM896.994 42.2078V90.1754H847.424V42.2078H896.994ZM844.726 42.2078V90.1754H795.155V42.2078H844.726ZM792.487 42.2078V90.1754H742.917V42.2078H792.487ZM740.219 42.2078V90.1754H690.649V42.2078H740.219ZM687.95 42.2078V90.1754H638.38V42.2078H687.95ZM635.712 42.2078V90.1754H586.142V42.2078H635.712ZM583.443 42.2078V90.1754H533.873V42.2078H583.443ZM531.175 42.2078V90.1754H481.605V42.2078H531.175ZM478.937 42.2078V90.1754H429.366V42.2078H478.937ZM426.668 42.2078V90.1754H377.098V42.2078H426.668ZM374.399 42.2078V90.1754H324.829V42.2078H374.399ZM322.161 42.2078V90.1754H272.591V42.2078H322.161ZM269.893 42.2078V90.1754H220.322V42.2078H269.893ZM217.624 42.2078V90.1754H168.054V42.2078H217.624ZM165.386 42.2078V90.1754H115.816V42.2078H165.386ZM63.5166 42.2078H113.087V90.1754H63.5166V42.2078ZM63.5166 92.8722H113.087V140.87H63.5166V92.8722ZM63.5166 143.537H113.087V191.504H63.5166V143.537ZM63.5166 194.201H113.087V242.199H63.5166V194.201ZM63.5166 244.866H113.087V292.833H63.5166V244.866ZM63.5166 295.5H113.087V343.498H63.5166V295.5ZM63.5166 346.165H113.087V394.132H63.5166V346.165ZM63.5166 396.829H113.087V444.827H63.5166V396.829ZM63.5166 447.493H113.087V495.461H63.5166V447.493ZM63.5166 498.128H113.087V546.126H63.5166V498.128ZM63.5166 548.792H113.087V596.76H63.5166V548.792ZM63.5166 599.457H113.087V647.455H63.5166V599.457ZM63.5166 650.121H113.087V698.089H63.5166V650.121ZM63.5166 700.786H113.087V748.783H63.5166V700.786ZM63.5166 751.45H113.087V799.448H63.5166V751.45ZM63.5166 802.115H113.087V850.082H63.5166V802.115ZM63.5166 852.749H113.087V900.747H63.5166V852.749ZM63.5166 903.413H113.087V951.381H63.5166V903.413ZM63.5166 954.078H113.087V1002.08H63.5166V954.078ZM63.5166 1052.71V1004.74H113.087V1052.71H63.5166ZM115.785 1052.71V1004.74H165.355V1052.71H115.785ZM168.054 1052.71V1004.74H217.624V1052.71H168.054ZM220.322 1052.71V1004.74H269.893V1052.71H220.322ZM272.561 1052.71V1004.74H322.131V1052.71H272.561ZM324.829 1052.71V1004.74H374.399V1052.71H324.829ZM377.067 1052.71V1004.74H426.638V1052.71H377.067ZM429.336 1052.71V1004.74H478.906V1052.71H429.336ZM481.605 1052.71V1004.74H531.175V1052.71H481.605ZM533.873 1052.71V1004.74H583.443V1052.71H533.873ZM586.111 1052.71V1004.74H635.682V1052.71H586.111ZM638.38 1052.71V1004.74H687.95V1052.71H638.38ZM690.649 1052.71V1004.74H740.219V1052.71H690.649ZM742.887 1052.71V1004.74H792.457V1052.71H742.887ZM795.155 1052.71V1004.74H844.726V1052.71H795.155ZM847.394 1052.71V1004.74H896.964V1052.71H847.394ZM899.662 1052.71V1004.74H949.233V1052.71H899.662ZM951.931 1052.71V1004.74H1001.5V1052.71H951.931ZM1004.2 1052.71V1004.74H1053.77V1052.71H1004.2ZM1056.44 1052.71V1004.74H1106.01V1052.71H1056.44ZM1108.71 1052.71V1004.74H1158.28V1052.71H1108.71ZM1160.94 1052.71V1004.74H1210.51V1052.71H1160.94ZM1213.21 1052.71V1004.74H1262.78V1052.71H1213.21ZM1265.48 1052.71V1004.74H1315.05V1052.71H1265.48ZM1317.75 1052.71V1004.74H1367.32V1052.71H1317.75ZM1369.99 1052.71V1004.74H1419.56V1052.71H1369.99ZM1422.26 1052.71V1004.74H1471.83V1052.71H1422.26ZM1474.53 1052.71V1004.74H1524.1V1052.71H1474.53ZM1526.76 1052.71V1004.74H1576.33V1052.71H1526.76ZM1579.03 1052.71V1004.74H1628.6V1052.71H1579.03ZM1631.3 1052.71V1004.74H1680.87V1052.71H1631.3ZM1683.54 1052.71V1004.74H1733.11V1052.71H1683.54ZM1735.81 1052.71V1004.74H1785.38V1052.71H1735.81ZM1788.08 1052.71V1004.74H1837.65V1052.71H1788.08ZM1840.31 1052.71V1004.74H1889.88V1052.71H1840.31ZM1892.58 1052.71V1004.74H1942.15V1052.71H1892.58ZM1944.82 1052.71V1004.74H1994.39V1052.71H1944.82ZM1997.09 1052.71V1004.74H2046.66V1052.71H1997.09ZM2049.36 1052.71V1004.74H2098.93V1052.71H2049.36ZM2101.63 1052.71V1004.74H2151.2V1052.71H2101.63ZM2153.87 1052.71V1004.74H2203.44V1052.71H2153.87ZM2206.13 1052.71V1004.74H2255.7V1052.71H2206.13ZM2258.37 1052.71V1004.74H2307.94V1052.71H2258.37ZM2310.64 1052.71V1004.74H2360.21V1052.71H2310.64Z" fill="url(#paint0_linear_69664_15643)"/>
<defs>
<linearGradient id="paint0_linear_69664_15643" x1="1181" y1="0" x2="1181" y2="1249.46" gradientUnits="userSpaceOnUse">
<stop offset="0.55" stop-color="#9DC7FF"/>
<stop offset="1" stop-color="#B5C2D3" stop-opacity="0"/>
</linearGradient>
</defs>
</svg>
