<svg width="338" height="670" viewBox="0 0 338 670" fill="none" xmlns="http://www.w3.org/2000/svg">
<path opacity="0.24" d="M246.278 306.893C246.908 306.608 247.629 306.838 248.092 307.16C248.355 307.348 248.627 307.616 248.809 307.943C247.009 308.037 245.04 308.551 244.164 309.584C243.552 310.287 243.44 311.186 243.849 312.051C244.405 313.242 245.545 313.806 246.879 313.555C248.416 313.273 250.164 311.89 250.85 310.192C250.864 310.2 250.892 310.216 250.906 310.224C252.477 310.685 253.864 311.947 254.668 313.669C253.158 314.096 251.8 314.87 251.233 315.914C250.698 316.902 250.719 317.989 251.278 318.885C251.876 319.84 252.987 320.424 254.128 320.377C255.197 320.326 256.098 319.734 256.611 318.751C257.124 317.769 257.257 316.512 257.2 315.423C257.741 315.42 258.219 315.491 258.542 315.64C259.983 316.359 260.892 317.901 261.401 319.138C260.546 319.332 259.734 319.772 258.997 320.532C258.235 321.335 257.967 322.44 258.311 323.416C258.508 323.974 258.891 324.435 259.351 324.7C259.574 324.828 259.821 324.915 260.092 324.96C260.963 325.091 261.819 324.639 262.455 323.765C262.746 323.358 263.148 322.312 263.414 321.242C264.381 321.466 265.262 322.028 265.753 322.496C266.871 323.548 267.306 325.298 266.815 326.757C266.675 327.158 266.793 327.596 267.107 327.888C267.429 328.166 267.885 328.244 268.271 328.058C268.879 327.778 269.846 328.835 270.455 329.964C270.734 330.477 271.377 330.68 271.891 330.402C272.405 330.124 272.61 329.482 272.331 328.97C271.431 327.284 270.29 326.239 269.118 325.953C269.25 324.121 268.556 322.24 267.2 320.959C266.314 320.115 265.002 319.397 263.599 319.126C263.572 318.981 263.55 318.858 263.507 318.74C262.58 316.299 261.211 314.621 259.47 313.748C258.791 313.413 257.834 313.269 256.801 313.322C256.789 313.279 256.763 313.227 256.751 313.183C255.739 310.729 253.762 308.85 251.467 308.196C251.34 308.159 251.19 308.129 251.063 308.092C250.866 307.053 250.232 306.095 249.263 305.426C248.024 304.583 246.557 304.424 245.333 304.997C244.799 305.245 244.567 305.871 244.816 306.403C245.065 306.936 245.693 307.167 246.226 306.919L246.278 306.893ZM260.574 321.978C260.759 321.788 260.949 321.619 261.143 321.509C261.007 321.968 260.862 322.347 260.751 322.506C260.571 322.754 260.445 322.811 260.443 322.847C260.415 322.831 260.355 322.741 260.334 322.617C260.307 322.472 260.328 322.243 260.566 321.992L260.574 321.978ZM255.084 315.742C255.099 316.454 255.01 317.218 254.74 317.748C254.577 318.062 254.359 318.214 254.056 318.224C253.695 318.239 253.296 318.028 253.098 317.729C252.94 317.489 252.949 317.217 253.12 316.889C253.371 316.423 254.153 316.003 255.092 315.728L255.084 315.742ZM246.493 311.462C245.998 311.548 245.879 311.368 245.777 311.161C245.731 311.079 245.741 311.029 245.741 311.029C245.741 311.029 245.8 310.896 246.136 310.701C246.71 310.383 247.586 310.184 248.47 310.1C247.939 310.794 247.148 311.358 246.485 311.476L246.493 311.462ZM234.994 315.768C235.303 315.169 235.846 314.777 236.528 314.689C237.175 314.598 237.876 314.798 238.522 315.096C238.653 314.708 238.709 314.259 238.716 313.893C238.737 313.312 239.226 312.852 239.822 312.881C240.405 312.901 240.879 313.397 240.837 313.984C240.802 314.909 240.625 315.696 240.297 316.359C240.345 316.405 240.393 316.451 240.432 316.511C241.27 317.438 241.667 318.74 241.55 319.969C242.541 320.022 243.604 320.207 244.559 320.739C245.659 321.372 246.548 322.532 246.666 323.804C247.93 323.865 249.314 324.329 250.484 325.132C252.242 326.33 253.361 328.086 253.63 330.092C253.639 330.172 253.641 330.265 253.65 330.345C254.651 330.477 255.566 330.725 256.039 330.998C257.43 331.836 257.945 332.744 258.408 333.547C258.564 333.823 258.721 334.098 258.941 334.391C259.807 335.557 260.618 336.209 261.446 336.352C262.016 336.458 262.4 337.013 262.308 337.59C262.202 338.158 261.645 338.542 261.067 338.449C259.692 338.195 258.435 337.286 257.23 335.647C256.964 335.272 256.748 334.907 256.558 334.594C256.154 333.88 255.861 333.359 254.95 332.816C254.588 332.607 253.711 332.454 252.849 332.403C252.43 332.902 251.89 333.258 251.36 333.434C250.839 333.597 250.345 333.553 249.941 333.321C249.676 333.168 249.46 332.933 249.297 332.635C248.995 332.035 249.121 331.367 249.602 330.922C249.999 330.558 250.702 330.37 251.506 330.296C251.221 328.446 250.003 327.374 249.283 326.886C248.128 326.091 246.707 325.754 245.668 326.008C245.259 326.106 244.843 325.959 244.581 325.641C244.319 325.324 244.273 324.89 244.454 324.513C244.75 323.905 244.214 323.003 243.545 322.618C243.545 322.618 243.531 322.61 243.517 322.602C242.576 322.079 241.293 322.081 240.162 322.078C239.795 322.071 239.453 321.892 239.263 321.579C239.072 321.266 239.052 320.884 239.201 320.562C239.604 319.738 239.447 318.629 238.826 317.938C237.772 318.443 236.163 318.368 235.352 317.716C234.762 317.228 234.597 316.485 234.955 315.802L234.994 315.768ZM213.473 319.805C214.013 321.117 242.058 350.563 248.869 354.485C248.966 354.541 249.05 354.589 249.133 354.637C255.59 357.984 264.491 358.072 267.459 354.836C267.86 354.4 268.86 353.346 270.237 351.898C292.004 328.926 293.46 326.282 293.139 325.041C292.658 323.209 282.765 313.641 277.749 308.863C279.751 306.72 282.237 303.965 285.423 300.354C285.71 300.019 285.768 299.534 285.56 299.155C285.36 298.762 284.913 298.542 284.483 298.609C282.631 298.858 280.688 298.943 279.852 298.814C279.879 298.607 279.908 298.364 279.957 298.152C280.113 297.241 280.266 296.366 279.69 295.757C279.393 295.437 278.984 295.276 278.521 295.306C278.406 295.314 278.246 295.333 278.05 295.35C276.803 295.484 275.951 295.512 275.517 295.428C275.519 295.263 275.524 295.062 275.523 294.839C275.605 291.811 275.684 288.69 273.712 288.536C273.124 288.494 272.355 288.699 269.002 291.732C268.956 291.78 266.704 293.873 264.268 296.285C259.482 291.752 252.178 284.897 251.266 284.483C250.265 283.999 249.788 284.373 242.877 291.34C237.669 296.583 230.535 303.773 226.165 306.703C220.458 310.529 212.618 317.72 213.479 319.827L213.473 319.805ZM250.631 352.98C254.643 349.419 258.559 346.952 259.492 347.137C260.636 347.536 264.409 351.412 265.906 353.349L265.89 353.377C264.108 355.332 256.872 355.963 250.653 352.975L250.631 352.98ZM273.253 290.902C273.444 291.919 273.39 294 273.373 294.768C273.351 295.255 273.349 295.643 273.364 295.874C273.382 296.292 273.56 296.691 273.896 296.977C274.691 297.657 276.213 297.626 277.865 297.466C277.845 297.565 277.825 297.665 277.812 297.75C277.706 298.319 277.614 298.895 277.667 299.445C277.709 299.821 277.905 300.156 278.215 300.39C278.883 300.904 280.383 301.008 281.987 300.932C276.933 306.616 271.697 312.195 269.945 313.649C269.775 313.014 269.648 311.885 269.591 311.278C269.488 310.237 269.405 309.578 269.223 309.122C269.079 308.761 268.849 308.518 268.585 308.365C267.735 307.876 266.39 308.306 265.353 308.653C265.17 308.714 264.942 308.787 264.744 308.839C264.713 308.284 264.74 307.467 264.757 306.957C264.789 306.068 264.809 305.487 264.725 305.087C264.519 303.968 263.175 303.658 261.486 303.24C261.245 303.176 260.96 303.123 260.691 303.042C261.551 302.037 263.182 300.309 265.016 298.457C265.016 298.457 265.024 298.443 265.046 298.438C265.046 298.438 265.054 298.424 265.062 298.41C268.116 295.316 271.716 291.888 273.263 290.852L273.253 290.902ZM244.388 292.803C246.965 290.212 249.612 287.532 250.688 286.669C252.458 288.133 258.51 293.785 262.737 297.775C260.296 300.259 258.051 302.726 258.038 303.422C258.008 304.628 259.316 304.936 260.978 305.337C261.482 305.461 262.249 305.643 262.643 305.796C262.654 306.099 262.634 306.55 262.62 306.894C262.553 309.096 262.541 310.368 263.46 310.897C264.129 311.282 264.908 311.027 266.011 310.662C266.356 310.546 266.952 310.351 267.323 310.287C267.368 310.628 267.425 311.106 267.459 311.496C267.641 313.267 267.848 315.22 268.934 315.845C269.185 315.99 269.49 316.073 269.845 316.036C270.192 316.014 270.952 315.952 276.26 310.377C283 316.795 289.998 323.825 290.957 325.378C289.599 328.3 273.904 344.859 268.664 350.381C268.171 350.912 267.748 351.353 267.355 351.775C265.611 349.623 261.926 345.723 260.184 345.109C257.467 344.155 250.84 349.86 248.691 351.808C240.928 346.227 218.464 322.475 215.602 319.142C216.43 317.711 220.565 312.943 227.33 308.411C231.88 305.363 239.098 298.092 244.368 292.773L244.388 292.803Z" fill="#ED8C28"/>
<path opacity="0.24" d="M82.575 116.084C85.1427 129.508 91.9071 141.905 101.673 151.889C101.628 151.914 101.601 151.969 101.566 152.009C99.0042 154.64 94.232 159.522 85.2117 159.135C82.4081 159.006 80.2225 158.894 78.5265 158.813C72.5584 158.51 72.0774 158.493 71.4365 159.489C70.2679 161.336 76.9957 170.72 85.1959 178.746C85.4225 178.968 85.6492 179.19 85.8844 179.426C94.1475 187.358 102.274 193.018 104.395 192.306C104.887 192.139 105.25 191.715 105.326 191.201C105.385 190.795 105.309 190.291 105.035 188.765C104.464 185.608 103.379 179.731 104.491 175.684C106.21 169.427 109.028 163.985 112.109 160.86C115.299 163.116 118.704 165.13 122.293 166.921C120.676 171.319 119.242 175.218 119.118 175.682C118.923 176.499 119.207 177.295 119.856 177.94C120.228 178.312 120.742 178.624 121.359 178.875C122.834 179.456 124.677 179.452 125.42 178.123C125.724 177.596 127.243 173.98 128.939 169.889C130.211 170.391 131.513 170.875 132.803 171.307C133.146 171.423 133.517 171.386 133.826 171.208C134.135 171.029 134.353 170.728 134.432 170.389L135.331 166.209C135.461 165.586 135.095 164.955 134.489 164.755C134.489 164.755 133.331 164.384 131.527 163.641C132.412 161.506 133.161 159.646 133.653 158.461C153.872 166.323 177.747 162.014 193.887 145.632C215.475 123.704 215.161 88.3629 193.174 66.8326C189.427 63.1745 185.299 60.147 180.903 57.7433C180.997 57.5326 181.106 57.3133 181.221 57.0709C184.013 58.5373 186.739 60.1596 189.308 61.9508C189.602 62.1536 189.956 62.2235 190.287 62.1505C190.633 62.0691 190.925 61.8616 191.105 61.5621L193.495 57.4834C193.814 56.9477 193.665 56.25 193.193 55.8756C191.906 54.8737 188.565 52.9008 184.126 50.796C184.845 49.1878 185.44 47.8074 185.574 47.2599C185.952 45.9457 185.05 44.6245 183.286 43.9171C181.748 43.295 179.864 43.2635 179.136 44.5835C178.958 44.9208 178.317 46.2888 177.571 47.9517C168.816 44.4947 155.753 40.6192 141.73 41.018C125.173 41.4849 110.198 48.11 99.5674 59.6947C84.7532 75.8226 78.7221 95.8619 82.5773 116.122L82.575 116.084ZM102.088 174.992C100.826 179.595 101.963 185.834 102.584 189.177C102.609 189.222 102.597 189.268 102.607 189.32C100.202 188.082 94.8943 184.578 87.6184 177.605C79.7344 170.024 75.4792 163.623 74.1624 161.111C75.0779 161.132 76.5292 161.197 78.3941 161.298C80.0987 161.394 82.2843 161.506 85.0941 161.611C95.2304 162.061 100.712 156.437 103.353 153.741C103.398 153.716 103.419 153.684 103.439 153.652C105.541 155.654 107.778 157.518 110.125 159.3C106.844 162.756 103.883 168.495 102.096 175.006L102.088 174.992ZM168.451 59.1953C168.457 59.5445 168.501 59.8914 168.559 60.2298C168.624 60.6817 168.692 61.1715 168.575 61.3761C168.506 61.4942 168.18 61.7796 166.716 61.6242L158.123 60.7557C156.691 60.6211 155.081 60.4516 153.466 60.7154C152.84 60.8212 152.21 60.9881 151.618 61.1527C150.194 61.5419 148.973 61.8733 148.036 61.3747C147.603 61.1348 147.21 60.6948 146.793 60.2107C146.507 59.886 146.212 59.5465 145.89 59.2619C144.365 57.8488 142.1 57.293 139.843 57.77C137.586 58.247 135.753 59.6939 134.939 61.6117C134.766 62.0248 134.631 62.4355 134.519 62.8525C134.374 63.3475 134.22 63.8278 134.006 64.2052C133.634 64.8505 132.957 65.3773 132.251 65.921C131.952 66.1516 131.668 66.3738 131.378 66.619C129.719 68.0252 128.984 69.7407 129.351 71.2915C129.887 73.6071 132.174 74.268 134.011 74.7962C134.624 74.9723 135.19 75.1359 135.667 75.3505C137.59 76.1623 138.83 78.4054 138.474 80.4705C138.367 81.0999 138.138 81.7214 137.873 82.3831C137.559 83.2301 137.229 84.0855 137.113 85.0726C136.714 88.3179 138.72 91.1382 140.734 93.4641C141.529 94.3966 141.461 94.6514 141.44 94.6831C141.421 94.7526 141.264 94.9215 141.171 95.0334C141.085 95.1222 140.993 95.2341 140.915 95.3375C138.858 97.854 140.107 101.267 141.222 103.601C142.183 105.633 143.043 107.898 142.03 109.304C141.194 110.471 139.518 110.594 137.576 110.733C135.99 110.843 134.352 110.964 132.879 111.675C131.753 112.206 130.873 113.026 130.022 113.829C129.106 114.689 128.233 115.486 127.234 115.728C126.303 115.951 125.251 115.695 124.124 115.443C123.691 115.34 123.258 115.237 122.842 115.163C117.635 114.206 112.086 116.696 109.318 121.207C109.159 121.475 109 121.743 108.849 122.026C108.513 122.631 108.197 123.204 107.796 123.631C107.323 124.138 106.715 124.41 106.289 124.284C105.427 124.016 105.322 122.275 105.489 120.867L106.56 111.83C106.678 110.881 106.794 109.894 107.157 109.097C107.59 108.182 108.373 107.398 109.2 106.589C109.948 105.845 110.725 105.084 111.345 104.12C112.465 102.359 112.777 100.319 113.035 98.5261C113.416 95.996 113.88 92.8303 112.8 89.947C112.638 89.5313 112.461 89.124 112.269 88.7252C111.98 88.0891 111.692 87.4909 111.597 86.9192C111.279 85.0464 112.749 83.2793 114.095 82.3478C115.258 81.5412 116.573 80.9989 117.978 80.4058C118.706 80.1039 119.434 79.802 120.146 79.4707C123.071 78.0799 124.904 76.2607 125.641 74.074C126.203 72.3992 126.033 70.7151 125.874 69.0835C125.743 67.6706 125.602 66.3418 125.966 65.1728C126.197 64.4523 126.641 63.7268 127.079 63.0244L129.328 59.3796C141.901 52.8451 156.539 51.6421 169.891 55.7813C168.992 56.6709 168.418 57.8829 168.443 59.1807L168.451 59.1953ZM124.744 62.0777C124.306 62.7801 123.865 63.5435 123.59 64.4261C123.072 66.0754 123.225 67.7301 123.382 69.3239C123.521 70.7515 123.656 72.1034 123.263 73.2894C122.768 74.8082 121.346 76.1166 119.058 77.2185C118.384 77.5475 117.7 77.824 117.016 78.1005C115.544 78.7128 114.035 79.3274 112.654 80.2991C110.08 82.0942 108.692 84.8517 109.108 87.3341C109.262 88.2442 109.622 89.0356 109.979 89.7892C110.137 90.1292 110.303 90.484 110.423 90.8263C111.268 93.1006 110.882 95.7906 110.521 98.1523C110.269 99.7857 110.027 101.472 109.192 102.775C108.739 103.486 108.084 104.118 107.416 104.796C106.453 105.743 105.459 106.706 104.847 108.057C104.315 109.206 104.168 110.446 104.042 111.517L102.971 120.554C102.92 120.975 102.914 121.371 102.922 121.758C97.5666 103.79 101.878 83.5273 115.949 69.237C118.67 66.4757 121.636 64.1024 124.75 62.0545L124.744 62.0777ZM174.52 54.7216C159.407 48.796 142.222 49.7032 127.752 57.3694C122.857 59.9721 118.254 63.3475 114.161 67.5053C92.5734 89.4331 92.8873 124.774 114.874 146.305C118.484 149.827 122.447 152.773 126.657 155.127C126.184 156.378 125.49 158.266 124.689 160.411C109.451 152.403 86.0301 134.127 89.9066 98.6645C93.4446 66.3142 117.046 51.7649 137.933 48.9418C150.099 47.3018 162.815 49.0858 174.829 54.0345C174.714 54.277 174.614 54.5109 174.535 54.7132L174.52 54.7216ZM132.656 166.711L132.28 168.436C131.471 168.157 130.683 167.848 129.895 167.538C130.129 166.992 130.348 166.454 130.573 165.894C131.401 166.239 132.149 166.514 132.656 166.711ZM123.315 176.692C122.862 176.757 121.882 176.42 121.596 176.096C122.076 174.585 126.011 164.017 128.892 156.307C129.693 156.708 130.509 157.1 131.345 157.46C128.31 164.867 124.074 175.119 123.315 176.692ZM192.088 143.848C191.177 144.784 190.192 145.625 189.215 146.481C189.192 146.475 189.16 146.454 189.137 146.448C186.458 145.993 184.709 146.295 182.471 147.584C181.572 148.101 180.846 148.813 180.155 149.485C179.298 150.312 178.565 151.047 177.672 151.268C177.154 151.39 176.542 151.35 175.892 151.313C175.143 151.275 174.301 151.211 173.444 151.392C172.384 151.63 171.496 152.199 170.718 152.687C170.527 152.797 170.329 152.93 170.146 153.055C166.324 155.373 161.452 155.437 157.152 155.505C156.688 155.517 155.294 155.517 154.965 154.982C154.846 154.777 154.832 154.413 154.929 154.004C155.436 151.93 157.7 150.685 159.007 150.128C159.78 149.801 160.587 149.532 161.437 149.238C162.834 148.767 164.297 148.277 165.652 147.497C167.935 146.183 169.746 144.122 170.749 141.683C170.895 141.325 171.033 140.952 171.156 140.588C171.41 139.874 171.658 139.182 172.028 138.636C172.728 137.606 173.961 136.955 175.253 136.27C175.592 136.075 175.939 135.895 176.286 135.714C178.849 134.239 180.278 132.299 180.269 130.249C180.254 127.34 177.587 125.547 175.626 124.228C173.189 122.596 170.946 120.656 168.958 118.511C167.589 117.028 165.975 115.02 165.577 112.704C165.267 110.846 166.001 108.484 167.784 107.732C168.133 107.589 168.523 107.482 168.919 107.352C170.177 106.981 171.9 106.498 172.442 104.756C172.846 103.485 172.307 102.386 171.888 101.491C171.643 100.967 171.4 100.48 171.407 100.084C171.411 99.5142 172.003 98.9773 172.576 98.7454C173.401 98.4073 174.416 98.4302 175.399 98.4321L183.15 98.4923C183.806 98.5063 185.337 98.5058 186.188 97.3304C186.953 96.2437 186.587 95.1031 186.33 94.2523C186.209 93.8722 186.087 93.492 186.102 93.2479C186.139 92.8355 186.673 92.4692 187.463 91.9356C188.416 91.3087 189.602 90.5084 189.935 89.0828C190.2 87.9121 189.756 86.875 189.386 86.031C189.139 85.4684 188.917 84.9498 188.961 84.5521C189.041 83.9775 189.889 83.5088 190.608 83.4278C191.675 83.3032 192.86 83.7565 193.737 84.6613C194.629 85.5576 195.073 86.7315 194.938 87.788L194.893 88.049C194.817 88.5626 194.707 89.2531 194.986 89.9733C195.711 91.7686 197.626 91.6843 198.887 91.624C199.304 91.5991 199.707 91.5825 200.036 91.6084C200.665 91.6772 201.314 92.0865 202.01 92.5084C202.296 92.6964 202.596 92.876 202.888 93.0408L203.085 93.143C203.81 93.5479 204.677 94.0278 205.698 93.6552C209.996 111.017 205.509 130.128 192.054 143.789L192.088 143.848ZM205.101 91.1989C205.021 91.2645 204.97 91.3131 204.941 91.33C204.808 91.2696 204.556 91.1403 204.351 91.0234L204.146 90.9065C203.886 90.7626 203.632 90.5954 203.387 90.443C202.524 89.902 201.551 89.3068 200.354 89.1733C199.848 89.1124 199.331 89.1358 198.838 89.1653C198.397 89.1841 197.554 89.2194 197.378 89.0855C197.327 88.9974 197.391 88.6669 197.424 88.4522L197.473 88.1301C197.714 86.3075 196.994 84.3523 195.575 82.9178C194.117 81.4855 192.207 80.764 190.384 80.972C188.727 81.1623 186.813 82.2646 186.535 84.2263C186.394 85.306 186.784 86.2172 187.138 87.0317C187.393 87.6091 187.632 88.157 187.532 88.5277C187.423 88.9825 186.785 89.4081 186.104 89.8592C185.072 90.5516 183.783 91.4114 183.636 93.0233C183.574 93.764 183.781 94.4277 183.961 95.0096C184.047 95.2932 184.196 95.7553 184.174 95.8858C184.13 95.9112 183.953 96.013 183.198 95.9974L175.446 95.9372C174.28 95.9234 172.939 95.9126 171.667 96.4294C170.046 97.0886 168.945 98.5449 168.937 100.057C168.927 101.023 169.318 101.835 169.659 102.559C169.929 103.128 170.191 103.682 170.09 104.015C169.954 104.426 169.282 104.656 168.257 104.953C167.785 105.088 167.313 105.222 166.846 105.433C163.814 106.708 162.677 110.34 163.149 113.122C163.647 116.086 165.558 118.471 167.163 120.191C169.282 122.496 171.683 124.54 174.272 126.3C175.916 127.409 177.805 128.671 177.802 130.26C177.808 131.764 176.105 132.96 175.089 133.545C174.78 133.723 174.456 133.909 174.115 134.066C172.676 134.836 171.051 135.693 170.002 137.238C169.448 138.046 169.136 138.931 168.836 139.769C168.711 140.096 168.609 140.429 168.476 140.741C167.685 142.665 166.251 144.293 164.44 145.336C163.306 145.989 162.036 146.406 160.693 146.867C159.834 147.146 158.945 147.442 158.069 147.829C155.061 149.111 153.1 151.082 152.539 153.403C152.284 154.489 152.381 155.471 152.855 156.256C152.991 156.491 153.171 156.7 153.349 156.872C154.523 158.017 156.372 157.99 157.233 157.984C161.617 157.927 167.09 157.85 171.493 155.178C171.714 155.051 171.911 154.917 172.124 154.776C172.784 154.356 173.415 153.954 174.039 153.81C174.542 153.696 175.154 153.736 175.789 153.781C176.561 153.826 177.441 153.887 178.334 153.667C179.895 153.277 181.004 152.208 181.968 151.261C182.573 150.678 183.148 150.112 183.782 149.747C184.739 149.196 185.537 148.913 186.422 148.814C165.678 164.636 135.826 163.3 116.671 144.525C111.151 139.127 107.113 132.797 104.459 126.042C104.787 126.303 105.151 126.525 105.586 126.666C107.223 127.153 108.763 126.286 109.657 125.32C110.258 124.661 110.663 123.938 111.063 123.238C111.193 122.987 111.346 122.742 111.484 122.506C113.668 118.919 118.267 116.858 122.419 117.62C122.811 117.687 123.198 117.778 123.584 117.869C124.883 118.179 126.35 118.509 127.852 118.153C129.489 117.759 130.701 116.63 131.762 115.647C132.505 114.964 133.22 114.299 134.005 113.925C135.048 113.422 136.392 113.334 137.802 113.227C140.048 113.069 142.597 112.894 144.12 110.744C145.892 108.275 144.815 105.194 143.542 102.52C142.243 99.8015 142.041 97.9597 142.913 96.8894C142.97 96.8176 143.027 96.7458 143.092 96.6888C143.327 96.4164 143.627 96.0869 143.827 95.619C144.512 93.9521 143.184 92.4057 142.693 91.8273C141.03 89.9058 139.386 87.6414 139.66 85.3684C139.742 84.6949 140.004 83.9954 140.279 83.2495C140.554 82.5037 140.85 81.7262 141.005 80.8736C141.566 77.6717 139.71 74.2955 136.701 73.0321C136.075 72.7656 135.417 72.5771 134.758 72.3886C133.083 71.9038 132.033 71.5488 131.846 70.7167C131.68 69.9896 132.358 69.0905 133.076 68.5004C133.322 68.2806 133.6 68.0816 133.854 67.8765C134.676 67.2271 135.63 66.5013 136.243 65.4237C136.609 64.8016 136.798 64.1445 136.977 63.5715C137.079 63.2387 137.181 62.9059 137.321 62.5708C137.822 61.4012 138.98 60.5189 140.446 60.2032C141.913 59.8874 143.342 60.2198 144.27 61.076C144.528 61.3188 144.757 61.5786 144.986 61.8384C145.51 62.4377 146.091 63.1019 146.941 63.5525C148.759 64.5225 150.669 63.9903 152.357 63.5474C152.934 63.3913 153.459 63.2459 153.979 63.1615C155.246 62.9414 156.626 63.0867 157.959 63.2196L166.551 64.088C167.341 64.1624 169.763 64.4124 170.82 62.6093C171.387 61.656 171.244 60.6617 171.126 59.8482C171.096 59.5917 171.05 59.3437 171.051 59.1081C171.025 58.0459 172.012 56.9688 173.089 56.8967C173.142 56.8859 173.186 56.8605 173.239 56.8497C179.89 59.3843 186.127 63.2733 191.518 68.5501C198.149 75.0519 202.71 82.8629 205.197 91.1627L205.101 91.1989ZM190.756 57.1611L189.624 59.1055C187.274 57.5215 184.795 56.0895 182.286 54.7734C182.549 54.2106 182.819 53.6246 183.088 53.0387C186.641 54.733 189.322 56.244 190.765 57.1758L190.756 57.1611ZM183.131 46.6692C182.717 47.8868 180.407 52.9181 178.692 56.5689C178.087 56.2708 177.459 55.9665 176.834 55.7C178.498 51.9611 180.668 47.1282 181.23 45.9624C181.753 45.9159 182.837 46.3297 183.117 46.6777L183.131 46.6692ZM141.787 43.4914C155.332 43.1136 168.006 46.8605 176.542 50.2091C176.314 50.7318 176.072 51.263 175.85 51.7625C163.428 46.6178 150.229 44.7791 137.61 46.4843C115.779 49.4399 91.134 64.6291 87.423 98.4105C84.8231 122.172 93.9652 138.507 105.032 149.348C111.281 155.462 118.117 159.809 123.804 162.781C123.587 163.357 123.364 163.955 123.156 164.545C103.184 154.465 88.963 136.277 85.0238 115.634C81.3155 96.1701 87.1413 76.8953 101.397 61.3631C111.579 50.2915 125.907 43.9406 141.787 43.4914ZM98.4317 179.936C98.9671 180.353 99.0909 181.143 98.6588 181.685C98.2353 182.243 97.449 182.343 96.9051 181.912C93.8702 179.586 90.9758 177.062 88.2473 174.384C85.576 171.771 83.0792 169.018 80.7336 166.119C80.3052 165.583 80.3796 164.796 80.9177 164.369C81.4557 163.941 82.2449 164.016 82.6733 164.552C87.2841 170.278 92.5926 175.446 98.4317 179.936Z" fill="#4781DE"/>
<path opacity="0.24" d="M297.202 157.575C295.677 156.806 293.268 155.849 290.427 154.854C290.427 154.797 290.389 154.722 290.389 154.666C287.434 141.922 286.174 141.678 285.515 141.566C283.181 141.153 279.474 145.62 276.087 150.668C271.006 149.486 266.715 148.885 265.303 149.58C264.871 149.786 263.948 150.481 264.494 152.264C265.002 153.897 267.166 157.031 270.102 160.578C269.048 162.455 268.408 163.713 268.371 163.769C262.612 174.955 263.911 176.213 264.551 176.832C266.357 178.577 274.713 175.18 281.13 172.196C285.044 175.743 288.639 178.315 290.577 178.315C290.671 178.315 290.747 178.315 290.822 178.315C293.043 178.033 293.118 174.786 293.155 173.585C293.193 171.764 293.005 169.268 292.61 166.34C300.231 162.005 300.024 160.747 299.893 160.034C299.761 159.189 299.008 158.514 297.22 157.613L297.202 157.575ZM279.681 149.655C282.711 145.488 284.216 144.325 284.819 143.987C285.44 145.244 286.606 148.96 287.792 153.953C284.837 152.996 281.619 152.039 278.533 151.25C278.909 150.706 279.286 150.162 279.662 149.655H279.681ZM266.734 151.588C267.976 151.419 271.006 151.926 274.694 152.789C273.452 154.741 272.304 156.693 271.325 158.401C268.747 155.248 267.035 152.733 266.734 151.607V151.588ZM266.32 175.049C266.357 173.397 268.615 168.255 271.721 162.493C274.035 165.158 276.67 167.954 279.248 170.432C273.414 173.078 267.994 175.143 266.32 175.049ZM280.641 168.424C277.78 165.665 275.146 162.849 272.944 160.297C274.261 157.969 275.691 155.586 277.14 153.352C280.829 154.272 284.894 155.454 288.432 156.618C288.658 157.65 288.884 158.701 289.109 159.809C289.505 161.761 289.806 163.525 290.05 165.083C287.51 166.472 284.555 167.954 281.619 169.324C281.3 169.024 280.98 168.724 280.66 168.405L280.641 168.424ZM290.408 175.931C289.787 175.837 287.698 174.824 283.483 171.051C285.647 170 287.378 169.099 288.244 168.649C288.996 168.255 289.712 167.879 290.37 167.523C291.01 172.646 290.822 175.274 290.408 175.931ZM292.233 163.863C291.913 161.873 291.499 159.752 291.029 157.519C294.059 158.589 296.411 159.602 297.333 160.334C296.599 161.16 294.717 162.418 292.233 163.863Z" fill="#ED8C28"/>
<path opacity="0.24" d="M207.209 407.242L202.128 404.669C202.246 404.437 202.32 404.255 202.327 404.241C202.601 403.667 202.43 402.996 201.921 402.592C201.463 402.232 190.472 393.855 171.309 389.085C153.328 384.621 138.976 383.638 138.83 383.637C138.721 383.491 128.246 370.79 113.35 359.724C98.468 348.665 88.579 344.024 88.1493 343.825C87.5013 343.515 86.7329 343.765 86.3931 344.397C86.3784 344.426 86.1199 344.897 85.6623 345.689L79.2846 342.46C78.9642 342.298 78.5919 342.273 78.2481 342.373C77.8969 342.488 77.6252 342.734 77.4626 343.053L42.4636 411.887C42.1236 412.555 42.3889 413.366 43.0441 413.697C43.4664 413.911 84.9236 435.721 101.658 455.481C101.774 455.612 101.912 455.737 102.072 455.818C102.204 455.884 102.364 455.929 102.517 455.952C102.962 456.013 147.781 461.9 173.563 479.354C173.891 479.575 174.314 479.643 174.694 479.543C175.082 479.429 175.398 479.169 175.568 478.798L207.827 408.979C208.13 408.311 207.85 407.53 207.21 407.205L207.209 407.242ZM139.186 386.392C141.916 386.605 154.842 387.798 170.643 391.725C186.233 395.6 196.447 402.085 199.385 404.121C199.333 404.222 199.282 404.324 199.237 404.411C199.178 404.491 199.112 404.549 199.068 404.636C199.001 404.767 198.979 404.883 198.963 405.021C188.455 427.718 173.185 460.022 170.014 464.992C164.308 462.962 132.855 452.188 107.051 450.102C118.15 426.389 135.701 390.18 139.186 386.392ZM88.1235 346.862C91.1376 348.388 99.9087 353.138 111.708 361.906C126.19 372.672 136.404 384.984 136.687 385.328C130.781 393.479 113.299 430.307 104.649 448.813C87.7376 429.329 60.5472 410.431 55.5362 407.036C57.724 401.55 75.0038 370.227 87.4148 348.11C87.6437 347.696 87.88 347.268 88.1235 346.862ZM103.38 453.357C87.5572 434.972 52.511 415.714 45.494 411.942L79.2733 345.504L84.3405 348.069C81.2616 353.579 75.1482 364.511 69.159 375.414C51.4649 407.623 51.8504 407.873 53.2909 408.785C53.5964 408.976 85.8173 430.475 103.964 452.173C104.087 452.327 104.233 452.437 104.393 452.518C104.553 452.599 104.728 452.651 104.911 452.652C133.184 454.455 169.603 467.706 169.938 467.839C171.527 468.461 171.956 468.624 187.499 435.892C193.033 424.228 198.531 412.419 200.995 407.109L204.825 409.048L173.78 476.231C148.843 460.1 108.488 454.043 103.409 453.335L103.38 453.357ZM75.4089 392.422C75.8874 392.993 76.7487 393.064 77.3213 392.587C81.4027 389.137 85.7257 385.609 89.6441 382.552L93.7335 386.175C91.1473 389.925 88.2305 394 85.3587 397.879C84.9096 398.474 85.0432 399.327 85.6393 399.775C85.7121 399.812 85.7629 399.856 85.8357 399.893C86.4182 400.187 87.1422 400.024 87.5398 399.495C89.9696 396.232 92.9744 392.092 95.8036 388.008L96.6753 388.778C96.7624 388.859 96.857 388.925 96.9589 388.977C97.4977 389.249 98.1775 389.137 98.5966 388.673C99.104 388.108 99.0434 387.256 98.4769 386.75L97.3438 385.738C101.633 379.398 105.093 373.607 104.731 371.908C104.632 371.419 104.342 371.017 103.913 370.781C103.243 370.406 101.846 369.625 89.7095 379.005L87.2107 376.791C86.6368 376.299 85.7894 376.345 85.2821 376.91C84.7747 377.475 84.8353 378.328 85.4018 378.834L87.5228 380.711C84.25 383.291 80.3013 386.516 75.5445 390.537C74.972 391.014 74.901 391.873 75.3796 392.444L75.4089 392.422ZM101.439 373.985C100.397 376.07 98.1402 379.676 95.281 383.89L91.8162 380.839C95.9104 377.688 99.3947 375.16 101.425 373.978L101.439 373.985ZM102.361 392.899C102.926 392.4 103.788 392.47 104.288 393.034L107.813 397.083L111.728 393.349C112.264 392.835 113.133 392.855 113.648 393.39C114.164 393.924 114.144 394.791 113.608 395.305L109.589 399.133L113.912 404.098C114.412 404.662 114.341 405.521 113.776 406.02C113.35 406.389 112.751 406.451 112.27 406.207C112.125 406.134 111.979 406.023 111.863 405.892L107.621 401.022L103.353 405.09C102.927 405.495 102.298 405.579 101.789 405.321C101.658 405.254 101.541 405.159 101.418 405.042C100.903 404.507 100.923 403.64 101.459 403.126L105.815 398.958L102.196 394.806C101.696 394.242 101.767 393.383 102.332 392.884L102.361 392.899ZM138.31 397.072C138.307 396.321 138.91 395.713 139.662 395.71C140.633 395.709 163.695 395.842 190.811 411.396C191.466 411.764 191.68 412.603 191.311 413.256C190.942 413.909 190.1 414.123 189.445 413.755C162.963 398.576 139.886 398.436 139.653 398.427C139.434 398.426 139.222 398.374 139.033 398.278C138.596 398.057 138.285 397.589 138.288 397.079L138.31 397.072ZM185.146 425.367C184.777 426.021 183.936 426.234 183.281 425.866C156.798 410.687 133.019 412.072 132.792 412.086C132.544 412.106 132.296 412.053 132.077 411.943C131.67 411.736 131.373 411.312 131.332 410.817C131.278 410.059 131.845 409.414 132.597 409.375C133.598 409.315 157.443 407.909 184.624 423.514C185.279 423.882 185.493 424.721 185.124 425.375L185.146 425.367ZM178.967 437.508C178.598 438.161 177.749 438.389 177.102 438.006C150.641 422.82 127.298 423.203 127.079 423.202C126.838 423.208 126.627 423.155 126.438 423.06C126.001 422.838 125.711 422.4 125.7 421.882C125.683 421.125 126.271 420.509 127.03 420.492C128.009 420.476 151.359 420.079 178.482 435.655C179.137 436.023 179.351 436.862 178.982 437.515L178.967 437.508ZM172.795 449.634C172.426 450.287 171.585 450.5 170.93 450.132C144.484 434.953 120.971 435.67 120.745 435.684C120.504 435.689 120.27 435.644 120.081 435.548C119.659 435.335 119.347 434.903 119.336 434.386C119.311 433.643 119.892 433.005 120.637 432.981C121.63 432.936 145.128 432.212 172.288 447.788C172.943 448.156 173.157 448.995 172.788 449.648L172.795 449.634Z" fill="#ED8C28"/>
<path opacity="0.24" d="M128.072 267.154C129.083 270.97 130.819 277.226 131.579 278.118C132.976 279.76 166.688 281.328 168.823 281.07C168.835 281.068 168.846 281.066 168.869 281.061C168.88 281.059 168.903 281.054 168.915 281.052C169.44 280.948 170.266 280.499 170.174 278.728C169.954 274.352 164.508 261.829 162.166 256.642C160.287 252.464 158.266 248.232 156.63 245.037C153.808 239.53 153.436 239.509 152.833 239.463C151.484 239.375 145.285 243.26 143.663 244.72C143.069 245.252 142.794 245.662 142.725 246.091C142.72 246.127 142.713 246.152 142.709 246.189C142.711 246.2 142.704 246.225 142.695 246.239C142.672 246.955 142.928 248.658 143.144 249.977L134.464 254.829C134.464 254.829 134.393 254.89 134.352 254.922C127.961 250.882 127.395 251.018 127.109 251.075C125.41 251.495 114.208 257.937 111.97 259.223C111.65 259.405 111.46 259.762 111.484 260.125C111.511 260.499 111.753 260.818 112.089 260.953C114.796 262.015 120.844 264.393 128.035 267.149L128.072 267.154ZM132.976 276.726C132.507 275.741 131.342 271.872 130.297 268.004C140.703 271.981 152.907 276.515 160.819 279.068C150.83 278.61 135.181 277.296 132.976 276.726ZM145.06 249.633L154.055 261.19L145.314 251.087C145.228 250.654 145.15 250.148 145.06 249.633ZM167.48 275.293L144.871 246.246C146.159 245.018 150.906 242.133 152.492 241.51C155.06 244.851 164.637 266.046 167.48 275.293ZM143.586 251.952C143.622 252.016 143.638 252.095 143.684 252.146L162.739 274.16C149.593 264.967 141.371 259.43 136.186 256.075L143.583 251.94L143.586 251.952ZM127.434 253.001C130.164 254 151.295 268.493 165.69 278.587C157.031 276.159 131.919 266.663 114.705 259.888C120.305 256.691 126.108 253.501 127.445 252.999L127.434 253.001Z" fill="#E36F73"/>
<path opacity="0.24" d="M245.787 644.331C246.427 643.449 246.351 642.717 246.163 642.266C245.636 640.934 234.947 617.342 224.314 594.219C202.842 547.541 202.447 547.541 201.374 547.541C199.699 547.541 182.122 554.636 179.544 557.507C179.13 557.976 178.942 558.464 178.998 558.952C179.167 560.454 193.338 590.99 200.885 607C203.689 612.969 206.173 618.167 208.337 622.728C223.242 653.884 224.201 653.94 225.067 653.997C227.476 654.147 243.284 647.803 245.787 644.35V644.331ZM225.575 651.594C224.728 650.431 222.658 646.527 219.873 640.953L231.183 635.566C231.767 635.284 232.03 634.59 231.748 633.989C231.465 633.389 230.769 633.145 230.167 633.426L218.819 638.832C217.389 635.941 215.789 632.694 214.096 629.203L225.538 623.761C226.121 623.479 226.384 622.785 226.102 622.184C225.82 621.602 225.123 621.339 224.521 621.621L213.079 627.064C211.593 623.986 210.031 620.739 208.431 617.398L219.892 611.936C220.475 611.655 220.739 610.96 220.456 610.36C220.174 609.778 219.478 609.515 218.876 609.797L207.415 615.258C205.89 612.068 204.347 608.821 202.823 605.574L214.265 600.131C214.848 599.849 215.112 599.155 214.829 598.554C214.547 597.972 213.851 597.71 213.249 597.991L201.826 603.434C200.282 600.168 198.758 596.921 197.271 593.731L208.619 588.325C209.203 588.044 209.466 587.349 209.184 586.749C208.902 586.167 208.205 585.904 207.603 586.186L196.274 591.572C194.693 588.213 193.188 584.928 191.757 581.85L202.992 576.501C203.576 576.219 203.839 575.525 203.557 574.924C203.275 574.324 202.578 574.08 201.976 574.361L190.779 579.692C189.123 576.107 187.617 572.822 186.319 569.951L197.347 564.696C197.93 564.414 198.194 563.72 197.911 563.119C197.629 562.537 196.933 562.274 196.33 562.556L185.34 567.792C183.251 563.175 181.84 559.947 181.463 558.859C183.439 556.925 197.384 550.938 200.885 549.943C205.1 557.395 241.195 636.298 243.942 642.867C242.663 645.119 228.774 650.956 225.632 651.501L225.575 651.594Z" fill="#E36F73"/>
</svg>
