<svg width="338" height="670" viewBox="0 0 338 670" fill="none" xmlns="http://www.w3.org/2000/svg">
<path opacity="0.24" d="M58.5346 355.193C65.6767 361.034 73.2419 367.431 80.1133 374.706L80.9257 375.567C82.212 376.934 83.8367 377.812 85.563 378.25L87.9155 382.42C89.9465 385.998 93.6867 388.007 97.5286 388.007C99.3564 388.007 101.218 387.551 102.927 386.589C105.483 385.137 107.345 382.791 108.123 379.972C108.919 377.136 108.546 374.183 107.108 371.617L104.755 367.448C105.28 365.743 105.348 363.903 104.84 362.097C102.132 352.459 100.152 342.669 98.9841 332.997C98.5948 329.773 97.5794 326.685 95.9546 323.832C92.4851 317.705 86.5446 313.333 79.6564 311.814C72.6666 310.278 65.5921 311.747 59.7363 315.949C50.3094 322.718 46.8568 335.327 51.528 345.944C53.1358 349.59 55.5052 352.712 58.5516 355.193H58.5346ZM104.823 372.9C105.923 374.858 106.211 377.103 105.601 379.263C104.992 381.424 103.588 383.213 101.641 384.31C97.5963 386.589 92.4681 385.154 90.1833 381.137L88.7109 378.52C90.048 378.402 91.368 378.031 92.6035 377.339L100.321 373.001C101.557 372.309 102.555 371.364 103.351 370.267L104.84 372.883L104.823 372.9ZM76.17 342.399C74.2406 341.268 72.565 339.293 71.7526 337.2C71.5834 336.761 71.4141 336.171 71.3634 335.799C71.3126 335.377 71.2956 335.192 71.448 334.77C71.4987 334.635 71.668 334.449 71.7865 334.348C72.125 334.044 71.7188 334.466 72.0065 334.23C72.0234 334.23 72.0742 334.213 72.108 334.196C72.1419 334.196 72.1588 334.196 72.1926 334.196C72.2603 334.196 72.345 334.196 72.4127 334.196C72.565 334.23 72.7173 334.28 72.8697 334.331C72.9374 334.365 73.0051 334.398 73.0728 334.432C73.2928 334.55 73.4959 334.668 73.6989 334.82C73.6989 334.82 73.7497 334.854 73.7666 334.871C73.8174 334.922 73.8682 334.955 73.919 335.006C74.0882 335.158 74.2574 335.31 74.4097 335.479C74.7821 335.85 74.9514 336.086 75.2052 336.441C76.3392 338.112 76.9485 340.053 76.6946 342.078C76.6777 342.247 76.593 342.416 76.5592 342.602C76.4238 342.534 76.2884 342.467 76.1361 342.382L76.17 342.399ZM72.0911 334.213C71.9388 334.246 72.0065 334.213 72.0911 334.213V334.213ZM78.1162 346.214C78.2008 346.062 78.2516 345.91 78.3362 345.758C79.4363 345.724 80.5872 345.488 81.6196 345.235C82.4658 345.032 83.2782 344.762 84.0398 344.391C87.7801 351.818 90.8772 359.548 94.4821 367.026C95.2776 368.663 96.1239 370.283 96.987 371.887L92.282 374.537C90.3526 371.077 88.2032 367.752 85.9861 364.46C83.549 360.814 81.0441 357.202 78.5393 353.624C77.5238 352.172 76.5084 350.687 75.476 349.235C76.5253 348.374 77.4392 347.362 78.1331 346.214H78.1162ZM82.5504 331.174C82.5504 331.174 82.6181 330.82 82.635 330.752C82.6519 330.685 82.6858 330.617 82.7028 330.55C82.7028 330.533 82.7028 330.55 82.7028 330.533C82.7535 330.449 82.872 330.297 82.8889 330.263C82.9735 330.195 83.0413 330.128 83.0243 330.145C83.0243 330.145 83.0581 330.128 83.0751 330.111C83.1597 330.094 83.2782 330.044 83.312 330.027C83.312 330.027 83.329 330.027 83.3459 330.027C83.4136 330.027 83.5489 330.027 83.5828 330.027C83.6505 330.027 83.769 330.027 83.8197 330.044C83.9551 330.077 84.0737 330.094 84.1921 330.128C84.2429 330.162 84.2936 330.179 84.3444 330.212C84.4121 330.246 84.429 330.246 84.4459 330.263C84.4459 330.263 84.4629 330.297 84.5137 330.347C84.6152 330.466 84.7168 330.567 84.8183 330.668C84.8352 330.702 85.0045 330.921 85.0383 330.972C85.1399 331.124 85.2414 331.293 85.326 331.461C85.3768 331.563 85.4276 331.664 85.4784 331.748C85.4784 331.782 85.5629 331.951 85.5968 332.018C86.6461 334.601 86.6969 337.791 85.1229 340.002C85.0214 339.8 84.9199 339.597 84.8183 339.395C83.6675 337.032 82.4827 334.23 82.5335 331.698C82.5335 331.529 82.5335 331.36 82.5673 331.191L82.5504 331.174ZM61.2426 318.076C65.1352 315.291 69.6202 313.84 74.2236 313.84C75.8314 313.84 77.4561 314.008 79.064 314.363C85.2245 315.713 90.5557 319.629 93.6528 325.115C95.0914 327.664 96.0054 330.415 96.3608 333.301C97.5455 343.091 99.5595 353.016 102.301 362.789C103.114 365.692 101.946 368.731 99.4748 370.402C96.0053 363.869 93.2297 357.016 90.1664 350.282C88.9986 347.699 87.7123 345.184 86.443 342.669C88.2031 340.947 89.0833 338.534 89.151 336.086C89.2525 332.44 87.2723 325.824 82.3304 327.191C80.1471 327.799 79.4533 330.179 79.5379 332.187C79.6902 335.597 81.1964 338.871 82.7535 341.876C82.6858 341.91 82.6181 341.96 82.5504 341.994C81.5349 342.416 80.401 342.652 79.3009 342.804C79.5717 341.234 79.4871 339.614 79.0132 338.078C78.3024 335.799 76.8807 333.639 74.8667 332.322C73.022 331.124 70.5171 331.09 69.197 333.082C67.6907 335.377 69.0786 338.517 70.4495 340.525C71.6342 342.264 73.3943 344.256 75.4591 345.184C75.0021 345.876 74.4606 346.501 73.8174 347.024C72.9374 345.809 72.0572 344.593 71.1095 343.429C69.8571 341.893 68.52 340.357 66.9799 339.108C65.8629 338.196 64.5766 337.302 63.0873 337.183C61.581 337.065 60.261 338.061 59.7702 339.462C59.2455 340.998 59.8209 342.669 60.5486 344.036C62.258 347.227 65.4736 350.18 69.1124 350.889C70.4494 351.143 71.8203 351.109 73.0728 350.653C73.682 351.531 74.2913 352.408 74.9175 353.269C79.3347 359.531 83.5997 365.861 87.8478 372.241C88.5924 373.372 89.3709 374.469 90.1495 375.567C87.5939 376.461 84.6998 375.803 82.7874 373.761L81.975 372.9C75.0191 365.507 67.3692 359.042 60.1594 353.151C57.4346 350.923 55.319 348.138 53.8804 344.88C49.6831 335.377 52.7803 324.102 61.2087 318.059L61.2426 318.076ZM62.7657 339.985C62.8842 339.901 62.7996 339.969 62.8165 339.969C62.9858 339.969 63.2735 340.019 63.5612 340.137C64.1028 340.374 64.6106 340.728 65.0675 341.083C66.3707 342.112 67.5046 343.344 68.5708 344.61C69.6032 345.809 70.551 347.091 71.4818 348.374C69.0955 348.847 66.4045 347.041 64.8643 345.437C63.8489 344.374 62.8843 343.041 62.5119 341.606C62.3934 341.167 62.3257 340.745 62.4611 340.374C62.478 340.306 62.6135 340.137 62.715 340.019C62.6304 340.12 62.7319 340.019 62.7657 339.985ZM51.7141 296.133C51.3925 295.492 51.6633 294.699 52.3064 294.395C52.9496 294.074 53.7451 294.344 54.0497 294.986L60.0748 307.189C60.3964 307.831 60.1255 308.624 59.4824 308.928C59.2962 309.012 59.0932 309.063 58.907 309.063C58.4162 309.063 57.9592 308.793 57.7392 308.337L51.7141 296.133ZM72.2265 302.767L72.9882 288.993C73.022 288.268 73.6313 287.728 74.359 287.761C75.0868 287.795 75.6283 288.42 75.5945 289.128L74.8329 302.902C74.799 303.594 74.2236 304.134 73.5297 304.134C73.5128 304.134 73.4789 304.134 73.462 304.134C72.7342 304.1 72.1927 303.476 72.2265 302.767ZM39.1393 307.746C38.5977 307.257 38.5638 306.446 39.0377 305.906C39.5285 305.366 40.3408 305.332 40.8824 305.805L48.8031 312.894C49.3446 313.384 49.3785 314.194 48.9046 314.734C48.6507 315.021 48.2954 315.173 47.9231 315.173C47.6184 315.173 47.2968 315.055 47.0429 314.835L39.1223 307.746H39.1393ZM90.2003 305.451L96.293 292.842C96.5977 292.184 97.3932 291.914 98.0363 292.234C98.6794 292.555 98.9671 293.331 98.6456 293.973L92.5528 306.582C92.3328 307.054 91.8589 307.324 91.3681 307.324C91.1819 307.324 90.9788 307.29 90.7926 307.189C90.1495 306.868 89.8618 306.092 90.1833 305.451H90.2003ZM26.7675 321.958C27.0214 321.283 27.783 320.946 28.4599 321.199L42.1518 326.347C42.8287 326.6 43.1672 327.36 42.9134 328.035C42.7103 328.558 42.2194 328.879 41.6948 328.879C41.5424 328.879 41.3902 328.845 41.2379 328.794L27.546 323.646C26.869 323.393 26.5305 322.634 26.7843 321.958H26.7675ZM26.0059 343.057C25.9382 342.348 26.4628 341.707 27.1737 341.623L40.3578 340.306C41.0855 340.239 41.7118 340.762 41.7964 341.471C41.8641 342.197 41.3394 342.821 40.6286 342.905L27.4444 344.222C27.4444 344.222 27.3598 344.222 27.309 344.222C26.6489 344.222 26.0736 343.716 26.0059 343.04V343.057ZM100.44 316.743C99.9826 316.186 100.05 315.359 100.609 314.903L110.323 306.868C110.882 306.413 111.711 306.48 112.168 307.037C112.625 307.594 112.557 308.421 111.999 308.877L102.284 316.912C102.047 317.114 101.743 317.215 101.455 317.215C101.083 317.215 100.71 317.047 100.44 316.743ZM49.0231 353.725C49.3277 354.383 49.04 355.16 48.3799 355.464L34.6881 361.776C34.502 361.861 34.3158 361.895 34.1465 361.895C33.6557 361.895 33.1818 361.608 32.9618 361.135C32.6572 360.477 32.9449 359.7 33.6049 359.396L47.2969 353.067C47.9569 352.763 48.7354 353.05 49.04 353.708L49.0231 353.725ZM104.654 324.811L119.429 321.79C120.14 321.638 120.834 322.093 120.969 322.802C121.121 323.511 120.664 324.203 119.953 324.338L105.178 327.36C105.094 327.377 105.009 327.394 104.908 327.394C104.298 327.394 103.757 326.972 103.621 326.347C103.469 325.638 103.926 324.946 104.637 324.811H104.654ZM48.4477 372.157L54.4728 365.625C54.9636 365.102 55.7929 365.068 56.3175 365.54C56.8422 366.03 56.876 366.857 56.4021 367.38L50.377 373.912C50.1231 374.199 49.7678 374.334 49.4124 374.334C49.0908 374.334 48.7862 374.216 48.5323 373.997C48.0077 373.507 47.9738 372.68 48.4477 372.157ZM117.042 340.104L108.157 339.833C107.429 339.817 106.871 339.209 106.888 338.483C106.905 337.757 107.497 337.167 108.242 337.217L117.127 337.487C117.855 337.504 118.413 338.112 118.396 338.838C118.379 339.547 117.787 340.104 117.093 340.104H117.059H117.042Z" fill="#ED8C28"/>
<path opacity="0.24" d="M172.624 394.152C170.647 393.718 169.597 393.746 169.032 394.035C165.883 395.656 159.16 411.808 159.316 417.392C159.352 418.894 159.856 419.871 160.773 420.29C161.567 420.64 249.953 459.335 251.732 459.925C254.109 460.733 256.127 459.438 256.882 457.758C257.572 456.222 257.133 454.632 255.827 453.915C255.487 453.72 254.432 453.257 252.74 452.518C255.605 447.444 258.061 442.136 260.05 436.667C261.843 437.356 262.85 437.683 263.192 437.717C264.897 437.904 266.428 436.291 266.853 434.711C267.33 432.98 266.566 431.42 264.869 430.659C264.841 430.643 264.787 430.612 264.725 430.594C265.394 429.281 265.768 427.508 264.389 426.136C264.044 425.792 263.22 425.336 262.024 424.774C264.31 419.386 266.442 413.855 268.371 408.333C271.148 409.263 272.986 409.906 273.556 410.144C274.22 410.436 274.958 410.319 275.585 409.83C276.619 409.016 277.41 406.96 277.634 405.227C279.838 405.864 281.11 406.235 281.193 406.247C286.539 407.499 289.672 397.485 290.506 394.386C291.899 389.225 293.203 380.181 289.323 378.995C289.945 378.233 290.252 377.452 290.374 376.835C290.611 375.58 290.341 374.232 289.658 373.314C289.476 373.065 289.338 372.895 287.117 372.195L289.861 362.227C291.064 362.558 291.638 362.726 291.762 362.761C292.746 363.003 293.692 362.463 294.311 361.301C295.07 359.895 295.501 357.18 294.022 355.822C293.721 355.558 292.822 354.733 245.81 341.976C243.901 341.455 199.025 329.296 196.812 329.269C193.194 329.228 190.76 334.621 187.842 349.115C183.579 347.871 180.912 347.095 180.545 347.009C178.931 346.604 177.433 347.658 176.924 349.569C176.382 351.57 177.164 353.412 178.747 353.871L180.924 354.493C182.071 354.828 183.19 355.147 184.31 355.467L180.611 368.68C180.611 368.68 180.609 368.715 180.607 368.75C177.604 367.834 176.016 367.353 175.738 367.301C174.293 367.011 172.975 367.879 172.397 369.534C171.778 371.292 172.103 373.611 173.699 374.422C173.699 374.422 173.726 374.438 173.74 374.446C174.117 374.608 175.668 375.122 178.138 375.894C174.924 381.633 173.115 387.639 172.587 394.185L172.624 394.152ZM250.519 451.564C246.558 449.862 240.483 447.303 232.426 443.911C209.251 434.145 170.702 417.912 167.194 415.332C166.907 412.98 170.659 403.213 172.309 402.084C174.963 402.601 195.415 410.781 209.035 416.238C215.111 418.67 220.541 420.839 224.045 422.206C229.025 424.152 236.142 427.039 243.018 429.842C249.791 432.603 254.574 434.544 257.796 435.803C255.823 441.245 253.374 446.539 250.512 451.578L250.519 451.564ZM263.874 432.815C264.503 433.105 264.706 433.475 264.552 434.055C264.35 434.842 263.672 435.355 263.483 435.337C262.414 435.119 252.6 431.13 243.946 427.611C237.07 424.809 229.94 421.914 224.938 419.974C221.435 418.607 216.004 416.438 209.942 414.013C185.125 404.079 173.77 399.655 172.222 399.667C171.124 399.686 170.291 400.687 169.767 401.434C167.509 404.616 164.138 413.789 165.006 416.295C165.51 417.741 171.944 420.994 231.521 446.101C243.376 451.102 253.621 455.41 254.675 455.999C254.974 456.171 254.704 456.793 254.704 456.793C254.476 457.312 253.755 458.09 252.515 457.665C250.692 456.995 166.361 420.183 161.856 418.168C161.856 418.168 161.365 417.451 162.142 414.013C163.773 406.874 168.618 396.941 170.042 396.171C172.053 395.702 184.598 400.324 207.323 409.867C209.251 410.67 210.704 411.289 211.528 411.619L212.097 411.857C223.937 416.632 262.648 432.272 263.86 432.807L263.874 432.815ZM259.84 423.788C256.872 422.53 252.515 420.853 246.575 418.625C244.443 417.832 242.642 417.156 241.55 416.726C240.301 416.223 235.324 414.334 228.452 411.714C212.438 405.602 182.858 394.316 180.292 393.019C180.068 392.312 180.368 389.665 181.58 386.351C182.644 383.386 183.66 382.037 184.049 381.773C188.407 382.258 245.248 400.603 266.124 407.581C264.221 413.028 262.114 418.483 259.846 423.809L259.84 423.788ZM274.222 407.835C268.588 405.892 186.389 378.639 183.481 379.404C180.802 380.12 178.568 386.984 178.021 390.338C177.619 392.817 177.875 394.284 178.863 394.925C178.972 394.988 179.203 395.121 179.58 395.284C183.331 396.974 200.345 403.517 227.581 413.905C234.2 416.433 239.423 418.429 240.645 418.916C241.751 419.353 243.579 420.045 245.711 420.839C250.86 422.774 261.565 426.787 262.67 427.821C263.141 428.291 262.797 429.104 262.467 429.674C254.144 426.273 226.043 414.935 212.975 409.651L212.406 409.414C211.595 409.092 210.142 408.472 208.229 407.677C190.085 400.049 180.284 396.321 174.936 394.76C175.39 388.154 177.16 382.342 180.459 376.58C200.126 382.609 256.822 399.171 275.278 404.539C275.209 405.692 274.652 407.342 274.193 407.854L274.222 407.835ZM284.839 371.497C280.113 370.114 270.532 367.507 250.802 362.182C228.386 356.142 200.492 348.61 198.582 347.528C198.233 347.255 197.914 346.366 198.092 344.68C198.403 341.859 199.818 339.132 200.685 338.511C203.085 338.591 220.23 342.717 286.577 361.294C286.937 361.393 287.248 361.481 287.573 361.578L284.839 371.497ZM196.769 331.629C200.755 331.973 287.714 355.606 292.464 357.636C292.553 357.795 292.645 358.137 292.621 358.648C292.567 359.43 292.288 360.1 292.096 360.369C291.674 360.253 290.719 359.992 289.4 359.612C289.386 359.604 289.372 359.596 289.359 359.588C289.345 359.581 289.324 359.586 289.31 359.579C288.688 359.401 288.017 359.214 287.236 358.999C202.145 335.176 200.697 335.861 199.821 336.278C197.744 337.269 196.083 341.264 195.746 344.414C195.492 346.761 195.966 348.479 197.141 349.391C198.464 350.424 213.865 354.684 250.2 364.473C267.524 369.136 285.421 373.965 287.895 374.92C288.057 375.266 288.179 375.806 288.067 376.374C287.926 377.088 287.468 377.692 286.714 378.18L284.028 377.374C283.316 377.163 215.727 357.256 190.192 349.782C193.191 334.774 195.447 331.627 196.796 331.645L196.769 331.629ZM186.641 356.104C244.872 372.737 281.011 383.335 284.232 384.72C284.795 386.128 284.01 394.025 281.691 397.624C281.195 398.387 280.691 398.819 280.349 398.785C276.069 398.29 224.678 382.361 197.063 373.815C191.01 371.939 186.31 370.479 182.879 369.425C182.903 369.385 182.919 369.358 182.942 369.317L186.633 356.117L186.641 356.104ZM174.679 370.288C174.746 370.11 174.963 369.548 175.276 369.601C175.949 369.754 184.948 372.55 196.35 376.08C225.973 385.257 275.57 400.623 280.066 401.152C281.902 401.36 283.458 399.924 284.731 396.88C286.366 392.96 287.871 384.538 285.743 382.861C285.689 382.83 285.629 382.777 285.404 382.666C283.679 381.889 272.293 378.081 181.582 352.197L179.419 351.584C179.218 351.523 179.052 350.903 179.25 350.185C179.25 350.185 179.527 349.206 179.991 349.311C182.035 349.819 282.382 379.372 283.307 379.651L288.624 381.267C289.611 381.564 290.142 386.532 288.202 393.765C286.498 400.12 283.773 404.389 281.727 403.916C281.2 403.793 279.451 403.31 276.762 402.539C276.735 402.523 276.722 402.515 276.687 402.513C255.53 396.458 176.835 373.137 174.799 372.272C174.595 372.155 174.334 371.228 174.671 370.301L174.679 370.288ZM175.778 406.576C175.192 406.275 174.473 406.547 174.184 407.14C173.895 407.733 174.155 408.442 174.749 408.73C176.621 409.628 178.68 410.578 180.864 411.565C192.624 416.854 208.453 423.222 223.104 428.839C222.877 429.576 222.623 430.297 222.386 430.956C221.525 433.351 220.788 435.438 222.201 436.596C222.256 436.627 225.336 438.473 228.683 439.985C232.003 441.481 235.581 442.656 236.756 441.471C237.932 440.286 238.915 436.334 239.232 434.909C239.907 435.153 240.608 435.412 241.261 435.661C241.873 435.887 242.56 435.578 242.794 434.954C243.021 434.343 242.689 433.664 242.085 433.425C221.677 425.921 192.049 414.373 175.786 406.563L175.778 406.576ZM236.947 434.225C236.482 436.343 235.703 438.877 235.2 439.653C233.319 439.709 225.119 435.782 223.805 434.827C223.73 434.331 224.254 432.862 224.65 431.771C224.879 431.126 225.125 430.418 225.345 429.695C229.392 431.249 233.312 432.71 237.017 434.103C236.994 434.144 236.962 434.198 236.952 434.247L236.947 434.225ZM194.77 364.254C194.77 364.254 194.9 364.311 194.962 364.329C198.977 365.376 203.003 366.465 207.008 367.56C207.008 367.56 207.006 367.595 207.02 367.603L210.547 375.001C210.672 375.254 210.877 375.463 211.138 375.577C211.178 375.6 211.233 375.631 211.289 375.628C211.614 375.724 211.961 375.689 212.246 375.51L219.6 371.07C234.426 375.288 249.193 379.797 263.737 384.629C264.357 384.842 265.045 384.497 265.245 383.871C265.458 383.253 265.099 382.558 264.485 382.367C241.834 374.855 218.652 368.012 195.537 362.022C194.894 361.85 194.252 362.239 194.079 362.881C193.933 363.447 194.228 364.033 194.749 364.26L194.77 364.254ZM212.157 372.784L210.039 368.366C212.197 368.958 214.347 369.563 216.497 370.169L212.157 372.784Z" fill="#4781DE"/>
<path opacity="0.24" d="M299.351 163.585C257.015 93.2826 250.577 83.1141 249.86 82.4658C248.119 80.8595 244.737 80.8113 242.764 81.8239C241.509 81.2634 238.977 80.8948 234.777 83.5103C233.059 84.5668 225.208 89.1284 215.273 94.9187C180.197 115.304 163.326 125.225 162.337 126.422C161.818 127.065 161.636 127.991 163.819 132.913C162.666 133.147 161.559 133.554 160.61 134.2C158.646 135.527 157.592 137.526 157.806 139.578C157.989 141.302 158.959 142.685 160.445 143.408C161.453 143.885 162.935 144.179 165.013 143.624C165.973 143.368 167.092 142.863 168.308 142.165C168.906 143.349 169.563 144.611 170.271 145.989C169.275 146.255 168.343 146.616 167.502 147.177C165.538 148.504 164.484 150.503 164.699 152.555C164.881 154.279 165.852 155.662 167.337 156.385C168.345 156.862 169.828 157.157 171.905 156.601C172.831 156.354 173.932 155.854 175.105 155.205C175.716 156.367 176.35 157.541 177.02 158.781C175.826 159.006 174.685 159.423 173.705 160.096C171.741 161.423 170.687 163.422 170.902 165.473C171.084 167.198 172.055 168.581 173.54 169.304C174.548 169.781 176.031 170.075 178.108 169.52C179.191 169.231 180.457 168.65 181.864 167.826C182.656 169.312 183.317 170.517 183.68 171.241C182.288 171.426 180.977 171.908 179.849 172.657C177.886 173.984 176.832 175.983 177.046 178.035C177.229 179.759 178.199 181.142 179.685 181.865C180.692 182.342 182.175 182.636 184.253 182.081C185.44 181.764 186.846 181.145 188.447 180.139C189.184 181.491 189.977 182.978 190.823 184.525C189.55 184.734 188.361 185.183 187.329 185.869C185.365 187.196 184.311 189.195 184.526 191.247C184.708 192.971 185.679 194.354 187.164 195.077C188.172 195.554 189.655 195.848 191.732 195.293C192.867 194.99 194.203 194.39 195.696 193.469C196.289 194.561 196.904 195.666 197.519 196.77C196.07 196.952 194.715 197.408 193.562 198.201C191.598 199.528 190.544 201.527 190.758 203.579C190.941 205.303 191.911 206.686 193.397 207.409C194.405 207.886 195.887 208.181 197.965 207.625C199.187 207.299 200.61 206.676 202.272 205.616C202.324 205.602 202.345 205.54 202.375 205.514C203.022 206.666 203.659 207.783 204.274 208.888C203.16 209.13 202.11 209.541 201.186 210.143C199.222 211.47 198.169 213.469 198.383 215.52C198.566 217.245 199.536 218.628 201.022 219.351C202.029 219.828 203.512 220.122 205.59 219.567C206.69 219.273 207.991 218.683 209.423 217.815C211.842 221.871 213.615 224.571 214.172 224.832C214.322 224.904 214.46 224.998 214.614 225.087C214.774 225.194 214.947 225.278 215.119 225.363C215.119 225.363 215.136 225.358 215.141 225.376C216.035 225.846 217.029 226.066 218.758 225.604C220.993 225.006 224.441 223.282 230.384 219.492C238.089 214.596 258.834 202.445 275.507 192.689C287.212 185.829 296.465 180.426 297.678 179.579C298.085 179.284 298.532 178.996 298.996 178.704C301.695 176.975 305.768 174.375 303.225 170.202C302.886 169.639 301.438 167.245 299.232 163.561L299.351 163.585ZM161.551 141.115C160.604 140.659 160.388 139.784 160.336 139.312C160.225 138.203 160.83 137.109 162.017 136.306C162.733 135.835 163.735 135.455 164.907 135.291C165.521 136.601 166.288 138.132 167.178 139.91C164.841 141.244 162.815 141.711 161.551 141.115ZM168.47 154.123C167.524 153.666 167.307 152.791 167.255 152.319C167.145 151.211 167.749 150.116 168.937 149.313C169.587 148.878 170.462 148.514 171.503 148.347C172.264 149.787 173.075 151.343 173.954 153.012C171.678 154.292 169.699 154.727 168.474 154.14L168.47 154.123ZM174.69 167.037C173.744 166.58 173.528 165.705 173.476 165.233C173.365 164.125 173.969 163.03 175.157 162.227C175.933 161.703 177.023 161.299 178.323 161.195C178.966 162.404 179.636 163.643 180.342 164.948C180.465 165.195 180.573 165.39 180.713 165.632C178.205 167.161 176.025 167.688 174.695 167.054L174.69 167.037ZM187.257 177.938C184.589 179.64 182.262 180.243 180.865 179.571C179.919 179.115 179.702 178.239 179.651 177.768C179.54 176.659 180.144 175.564 181.332 174.762C182.203 174.174 183.507 173.732 185.05 173.693C185.642 174.785 186.403 176.225 187.326 177.919C187.309 177.924 187.274 177.933 187.257 177.938ZM188.344 192.783C187.398 192.327 187.182 191.451 187.13 190.98C187.019 189.871 187.624 188.776 188.811 187.974C189.618 187.422 190.794 186.996 192.174 186.907C192.943 188.307 193.726 189.758 194.541 191.258C191.941 192.867 189.684 193.451 188.327 192.788L188.344 192.783ZM200.986 203.477C198.318 205.179 195.991 205.782 194.595 205.111C193.649 204.654 193.432 203.779 193.38 203.307C193.269 202.199 193.874 201.104 195.062 200.301C195.981 199.682 197.359 199.239 198.968 199.239C199.737 200.638 200.501 202.02 201.278 203.38C201.174 203.408 201.086 203.432 200.991 203.495L200.986 203.477ZM202.224 217.069C201.278 216.613 201.061 215.738 201.01 215.266C200.899 214.157 201.503 213.063 202.691 212.26C203.419 211.767 204.474 211.373 205.69 211.235C206.576 212.79 207.443 214.275 208.242 215.648C205.734 217.177 203.554 217.703 202.224 217.069ZM208.746 211.463C209.468 211.644 210.236 211.924 211.001 212.335C211.612 212.657 212.393 212.43 212.716 211.821C213.056 211.207 212.811 210.433 212.2 210.111C210.585 209.255 208.85 208.785 207.16 208.695C205.597 205.941 203.91 202.938 202.21 199.884C202.585 200.026 202.965 200.186 203.359 200.398C203.97 200.72 204.751 200.493 205.074 199.884C205.414 199.27 205.169 198.496 204.558 198.174C203.266 197.474 201.9 197.055 200.537 196.86C198.755 193.64 196.969 190.404 195.286 187.345C195.876 187.523 196.498 187.749 197.114 188.088C197.729 188.428 198.505 188.183 198.828 187.574C199.169 186.96 198.923 186.186 198.313 185.864C196.831 185.084 195.266 184.625 193.712 184.481C191.545 180.524 189.634 176.966 188.177 174.258C188.653 174.429 189.134 174.618 189.617 174.881C190.227 175.203 191.008 174.975 191.331 174.366C191.672 173.753 191.426 172.979 190.816 172.656C189.462 171.936 188.012 171.483 186.597 171.302C186.37 170.877 186.171 170.482 186.007 170.153C185.418 169.004 184.187 166.72 182.589 163.769C182.223 163.101 181.811 162.334 181.367 161.52C182.054 161.709 182.738 161.956 183.459 162.342C184.07 162.664 184.851 162.436 185.174 161.827C185.514 161.214 185.269 160.44 184.658 160.117C183.11 159.299 181.471 158.842 179.847 158.716C178.204 155.665 176.306 152.085 174.39 148.435C175.296 148.603 176.257 148.906 177.239 149.428C177.849 149.75 178.63 149.522 178.953 148.913C179.294 148.3 179.048 147.526 178.438 147.203C176.69 146.271 174.806 145.804 172.999 145.764C171.095 142.092 169.277 138.528 167.805 135.487C168.619 135.662 169.47 135.975 170.324 136.438C170.935 136.76 171.716 136.532 172.039 135.924C172.379 135.31 172.134 134.536 171.523 134.214C169.926 133.353 168.195 132.901 166.523 132.806C165.463 130.533 164.745 128.765 164.573 127.915C168.35 125.189 198.363 107.762 216.557 97.1886C226.514 91.411 234.377 86.8274 236.126 85.7442C239.927 83.3846 241.539 84.0922 241.8 84.2278C244.028 88.1305 272.412 137.637 279.569 147.072C287.246 157.189 293.878 169.266 293.641 171.587C290.934 173.841 260.235 191.918 250.041 197.927L247.731 199.291C245.79 200.425 243.279 201.806 240.377 203.402C227.218 210.633 216.818 216.641 214.434 221.141C213.187 219.216 211.156 215.765 208.743 211.52L208.746 211.463ZM297.76 176.608C297.265 176.927 296.801 177.219 296.359 177.524C295.223 178.313 285.554 183.976 274.365 190.531C257.68 200.309 236.917 212.464 229.165 217.392C220.15 223.123 217.729 223.583 216.662 223.234C216.488 223.075 216.45 222.936 216.467 222.857C216.708 219.227 232.917 210.323 241.611 205.555C244.53 203.954 247.059 202.569 249.03 201.407L251.339 200.044C281.522 182.273 294.348 174.497 295.601 173.172C299.22 169.368 281.787 145.714 281.612 145.481C275.006 136.776 248.975 91.5677 244.561 83.8447C245.678 83.5461 247.38 83.6138 248.097 84.2621C249.359 85.7539 265.873 112.882 297.194 164.89C299.417 168.569 300.853 170.985 301.208 171.543C302.277 173.292 301.243 174.39 297.777 176.604L297.76 176.608ZM202.84 155.072C203.174 155.132 203.752 155.052 204.52 154.847C212.22 152.79 239.279 138.578 244.698 131.792C245.875 130.321 246.247 128.989 245.781 127.882C240.09 114.08 235.468 108.092 231.297 109.076C228.475 109.718 217.958 115.291 208.79 120.522C189.898 131.282 189.571 132.918 189.437 133.533C188.958 135.863 193.595 144.833 196.836 149.51C200.418 154.693 202.238 154.99 202.845 155.09L202.84 155.072ZM191.942 134.151C194.7 131.044 226.522 112.965 231.743 111.57C231.795 111.556 231.83 111.547 231.865 111.538C232.817 111.32 236.44 111.92 243.439 128.844C243.439 128.844 243.488 129.167 242.901 129.977C237.801 136.976 206.164 152.467 203.259 152.59C200.185 152.086 192.179 137.055 191.947 134.168L191.942 134.151ZM199.157 139.203C198.685 139.329 198.179 139.185 197.847 138.788C197.404 138.253 197.487 137.447 198.023 137.005C202.772 133.086 208.396 130.407 213.833 127.797C219.422 125.128 225.212 122.367 229.843 118.293C230.375 117.833 231.174 117.881 231.634 118.411C232.095 118.942 232.047 119.738 231.515 120.198C226.607 124.495 220.67 127.333 214.932 130.079C209.643 132.612 204.149 135.219 199.648 138.941C199.492 139.058 199.344 139.134 199.169 139.181L199.157 139.203ZM220.385 133.586C225.514 130.946 230.826 128.22 234.773 124.105C235.256 123.603 236.054 123.576 236.579 124.07C237.083 124.551 237.109 125.347 236.614 125.871C232.374 130.289 226.884 133.119 221.554 135.849L219.728 136.785C214.521 139.483 209.384 142.442 204.42 145.561C204.307 145.628 204.19 145.678 204.068 145.711C203.544 145.851 202.966 145.651 202.669 145.17C202.286 144.582 202.466 143.787 203.06 143.423C208.071 140.274 213.291 137.274 218.546 134.544L220.385 133.586ZM176.417 137.105C175.936 138.727 174.55 139.975 172.943 140.404C172.472 140.53 171.964 140.591 171.468 140.555C170.766 140.519 170.23 139.916 170.266 139.216C170.302 138.515 170.907 137.98 171.609 138.017C172.619 138.083 173.672 137.335 173.976 136.377C174.258 135.405 173.786 134.206 172.922 133.709C172.325 133.365 172.114 132.581 172.459 131.985C172.804 131.389 173.59 131.179 174.188 131.523C176.092 132.62 177.035 135.018 176.422 137.123L176.417 137.105ZM180.705 153.205C180.234 153.331 179.726 153.392 179.23 153.356C178.528 153.32 177.992 152.717 178.028 152.016C178.064 151.316 178.669 150.781 179.371 150.817C180.381 150.884 181.434 150.136 181.738 149.177C182.02 148.206 181.548 147.007 180.684 146.51C180.087 146.166 179.876 145.382 180.221 144.786C180.566 144.19 181.352 143.98 181.95 144.324C183.854 145.42 184.797 147.818 184.184 149.923C183.703 151.545 182.316 152.793 180.71 153.222L180.705 153.205ZM187.188 166.049C186.716 166.175 186.209 166.236 185.712 166.2C185.01 166.164 184.474 165.561 184.51 164.86C184.547 164.16 185.152 163.625 185.854 163.661C186.863 163.728 187.916 162.98 188.22 162.021C188.502 161.05 188.03 159.851 187.167 159.354C186.569 159.01 186.358 158.226 186.704 157.63C187.049 157.034 187.834 156.824 188.432 157.168C190.336 158.264 191.28 160.662 190.666 162.767C190.185 164.389 188.799 165.637 187.192 166.066L187.188 166.049ZM193.349 178.605C192.878 178.731 192.37 178.792 191.874 178.757C191.172 178.72 190.636 178.117 190.672 177.417C190.709 176.716 191.314 176.182 192.016 176.218C193.025 176.284 194.078 175.536 194.382 174.578C194.664 173.606 194.192 172.407 193.329 171.91C192.731 171.566 192.52 170.782 192.865 170.186C193.211 169.59 193.996 169.38 194.594 169.724C196.498 170.821 197.442 173.219 196.828 175.324C196.347 176.945 194.96 178.193 193.354 178.622L193.349 178.605ZM200.846 191.812C200.375 191.938 199.867 191.999 199.371 191.964C198.669 191.928 198.133 191.324 198.169 190.624C198.206 189.924 198.811 189.389 199.513 189.425C200.522 189.491 201.575 188.743 201.879 187.785C202.161 186.814 201.689 185.615 200.826 185.118C200.228 184.774 200.017 183.99 200.362 183.394C200.708 182.798 201.493 182.588 202.091 182.932C203.995 184.028 204.939 186.426 204.325 188.531C203.844 190.153 202.457 191.401 200.851 191.83L200.846 191.812ZM210.553 200.846C210.072 202.468 208.685 203.715 207.079 204.145C206.608 204.271 206.1 204.332 205.604 204.296C204.902 204.26 204.365 203.657 204.402 202.956C204.438 202.256 205.043 201.721 205.745 201.757C206.755 201.824 207.808 201.076 208.112 200.117C208.393 199.146 207.922 197.947 207.058 197.45C206.46 197.106 206.25 196.322 206.595 195.726C206.94 195.13 207.726 194.92 208.324 195.264C210.228 196.36 211.171 198.758 210.558 200.863L210.553 200.846ZM212.049 214.911C212.085 214.21 212.69 213.675 213.392 213.712C214.402 213.778 215.455 213.03 215.759 212.071C216.04 211.1 215.569 209.901 214.705 209.404C214.107 209.06 213.897 208.276 214.242 207.68C214.587 207.084 215.373 206.874 215.971 207.218C217.874 208.315 218.818 210.713 218.205 212.818C217.723 214.439 216.337 215.687 214.731 216.116C214.259 216.242 213.752 216.303 213.256 216.268C212.553 216.232 212.017 215.628 212.053 214.928L212.049 214.911Z" fill="#4781DE"/>
<path opacity="0.24" d="M87.0886 136.836C84.4728 136.442 79.1658 137.587 72.8614 149.786C65.8984 163.262 64.073 169.118 65.8608 172.234C66.6889 173.66 68.2132 174.411 70.5279 174.523C70.6032 174.523 70.6784 174.523 70.7349 174.523C79.0717 174.523 85.2068 152.114 85.8843 149.542C86.0536 148.904 85.6772 148.266 85.0374 148.097C84.4164 147.928 83.7577 148.304 83.5883 148.942C81.2171 157.97 75.6466 172.159 70.7349 172.159C70.6972 172.159 70.6596 172.159 70.622 172.159C68.4766 172.065 68.025 171.295 67.8933 171.051C66.3125 168.33 70.5656 159.321 74.9316 150.875C80.9349 139.257 85.4702 138.994 86.6935 139.182C88.5566 139.464 89.5163 141.303 89.7985 142.936C90.9653 149.749 82.6661 170.075 78.0178 175.612C74.9691 179.234 70.5279 181.205 66.67 180.605C64.2047 180.229 62.3605 178.84 61.476 176.719C58.7848 170.188 68.4767 150.03 72.1276 143.837C72.4663 143.274 72.2593 142.56 71.7135 142.223C71.1489 141.885 70.4338 142.091 70.0951 142.636C69.9445 142.88 55.5857 168.593 59.293 177.602C60.4786 180.473 63.038 182.425 66.3125 182.932C66.9147 183.026 67.4981 183.063 68.1191 183.063C72.3158 183.063 76.6629 180.886 79.8433 177.114C84.9809 170.995 93.4494 150.143 92.1321 142.523C91.6051 139.407 89.6481 137.23 87.051 136.836H87.0886Z" fill="#ED8C28"/>
<path opacity="0.24" d="M145.351 48.8585C145.171 48.8782 143.631 49.3608 141.301 50.1401C141.25 49.7408 141.119 49.0928 140.66 48.6604C140.355 48.3721 139.988 48.2282 139.563 48.242C139.406 48.2413 139.007 48.348 138.166 48.6156L134.958 38.4297C135.822 38.1417 136.198 37.9987 136.37 37.8958C137.028 37.478 137.316 36.6896 137.13 35.7858C136.984 35.028 136.441 34.1769 135.624 33.8971C135.573 33.868 135.509 33.8424 135.449 33.83C135.436 33.8336 135.415 33.8106 135.385 33.8045C135.372 33.808 135.315 33.809 135.285 33.8028C135.245 33.8135 135.207 33.7808 135.167 33.7914C135.097 33.7959 127.605 34.3751 115.116 37.4422C113.201 37.9111 93.3272 42.9659 89.7655 43.8893C88.3143 44.2771 82.4806 45.8787 75.7123 47.7728C66.458 50.3455 54.9344 53.553 54.0077 53.7153C52.3611 54.013 32.9283 62.038 30.7205 62.9553C30.7205 62.9553 30.6938 62.9624 30.6805 62.966C30.6539 62.9731 30.6344 63.0068 30.6114 63.0271C30.5386 63.075 30.4659 63.123 30.4136 63.1939C30.2921 63.3259 30.1813 63.4978 30.1248 63.7122C29.682 65.4101 31.0817 75.453 34.0413 80.2548C33.6331 80.435 33.4015 80.5823 33.2898 80.6975C31.9056 82.0778 34.7645 91.8161 35.617 94.1925C37.0093 98.047 37.952 98.6347 38.6987 98.7055C39.2715 98.7659 40.7916 98.9005 76.0418 89.3097L77.4929 88.9219C77.8657 88.8223 79.1704 88.4736 81.0875 87.9613C90.7671 85.4316 97.9633 83.537 103.315 82.1068C113.593 79.3602 117.096 78.3245 118.33 77.767C118.37 77.7563 118.404 77.7757 118.444 77.7651C118.457 77.7615 118.484 77.7544 118.497 77.7508C149.347 67.3436 149.762 66.9766 149.924 66.8338C150.84 66.0482 150.194 63.8584 149.823 63.2744C149.436 62.6807 148.859 62.6071 148.468 62.797C148.275 62.8769 147.668 63.1105 146.757 63.4392C146.172 61.2617 144.788 56.1101 144.256 54.1317C147.396 52.9654 147.442 52.7112 147.498 52.2835C147.623 51.5245 147.223 50.0374 146.553 49.3484C146.097 48.8726 145.622 48.8573 145.385 48.8779L145.351 48.8585ZM136.519 49.1267C134.408 49.819 130.954 50.9839 125.296 52.9227C121.244 54.3044 116.71 55.8576 115.313 56.2878C114.971 55.5967 114.17 53.3061 112.644 45.7161C112.637 45.6895 112.63 45.663 112.626 45.6497C114.616 44.6627 123.823 41.8608 128.925 40.2981C130.824 39.7194 132.234 39.2856 133.315 38.954L136.523 49.1399L136.519 49.1267ZM135.469 36.4005C135.054 36.6108 131.678 37.6411 128.419 38.6261C110.524 44.0912 110.578 44.347 110.821 45.4633L110.931 46.0316C113.413 58.4037 114.217 58.2601 115.21 58.0801C115.25 58.0694 115.303 58.0552 115.383 58.0338C116.235 57.8061 119.4 56.7327 125.845 54.5406C131.114 52.7484 138.238 50.3182 139.476 49.9873L139.502 49.9802C139.535 50.0997 139.588 50.2989 139.587 50.4556C139.592 50.5256 139.627 50.6017 139.644 50.6681C132.413 53.0701 120.164 57.2401 113.781 59.4011C113.781 59.4011 113.781 59.4011 113.768 59.4047C113.72 59.3321 113.658 59.2631 113.587 59.211C112.633 58.1567 109.264 46.5197 108.973 43.5237C118.48 40.4566 133.225 35.8046 135.105 35.473C135.18 35.5384 135.306 35.6897 135.38 35.9118C135.469 36.1871 135.445 36.3642 135.475 36.3704L135.469 36.4005ZM40.7204 61.7772C41.4793 61.5744 42.2709 61.3344 43.0794 61.1041C43.9619 66.2475 45.235 71.3577 46.8568 76.332C46.0314 76.5526 45.2628 76.7722 44.5341 76.9811C42.8928 72.0405 41.6198 66.9303 40.724 61.7905L40.7204 61.7772ZM48.5306 75.8704C46.8991 70.913 45.6358 65.786 44.7497 60.6293C48.9424 59.452 53.5176 58.1582 57.5541 57.0368C64.2957 55.1498 70.1055 53.5119 71.6124 53.0665C74.0673 52.3251 86.1699 49.1478 95.7741 46.7093C96.6763 52.0325 98.0029 57.3418 99.6941 62.4683C99.7119 62.5347 99.7564 62.594 99.7973 62.64C95.8388 63.6266 90.8019 64.9015 84.337 66.5438C70.0322 70.1814 55.5892 73.9415 55.4428 73.9806C55.4428 73.9806 55.4295 73.9842 55.4161 73.9877C55.0833 74.0767 54.2179 74.3079 53.0198 74.6281C51.3822 75.0657 49.9045 75.4606 48.5235 75.8439L48.5306 75.8704ZM97.4454 46.2912C98.2575 46.0742 99.05 45.8908 99.8125 45.7013C100.723 51.1077 102.05 56.4737 103.776 61.6763C103.027 61.8622 102.238 62.0589 101.366 62.2635C101.381 62.1599 101.365 62.0502 101.32 61.9342C99.6394 56.8475 98.3235 51.578 97.432 46.2948L97.4454 46.2912ZM101.501 45.2929C104.138 44.6451 106.229 44.1432 107.312 43.925C107.821 47.3608 110.356 56.9011 111.939 59.8221C110.65 60.0672 108.631 60.5212 105.455 61.2847C105.444 61.2448 105.46 61.1979 105.432 61.1483C103.721 55.9988 102.4 50.6594 101.504 45.3062L101.501 45.2929ZM54.3097 55.3707C55.2364 55.2085 63.9484 52.795 76.1608 49.3891C82.9193 47.5119 88.7593 45.8801 90.1873 45.5127C93.7526 44.6026 113.61 39.5381 115.511 39.0727C117.745 38.5184 119.803 38.0537 121.709 37.6583C117.878 38.8529 113.252 40.331 107.829 42.0791C106.52 42.2011 102.821 43.0901 90.8735 46.1547C82.1454 48.4018 73.0986 50.7909 71.1159 51.3776C69.6355 51.8159 63.8258 53.4539 57.0842 55.3408C53.0646 56.4719 49.5606 57.451 46.5093 58.3091C50.594 56.6768 53.7727 55.4431 54.3159 55.3406L54.3097 55.3707ZM31.7441 64.3752C32.715 64.0588 35.4698 63.2657 39.0501 62.252C39.9459 67.3919 41.2189 72.5021 42.8602 77.4427C39.3865 78.4279 37.118 79.1195 35.6652 79.6073C32.9898 75.5977 31.6009 66.3915 31.7441 64.3752ZM80.6175 86.2654C78.7803 86.7563 77.512 87.081 77.0727 87.1984L75.555 87.604C45.1605 95.8829 39.7487 96.9307 38.8867 96.9618C37.3237 95.871 34.2563 84.0823 34.5732 81.863C36.4463 80.9213 49.1931 77.4865 53.4764 76.3276C54.6745 76.0074 55.5399 75.7762 55.886 75.6837C76.6103 70.2878 107.373 62.4228 112.895 61.3599C113.191 64.8526 115.668 73.3836 116.998 76.4723C112.393 77.9733 88.7661 84.1447 80.6078 86.2822L80.6175 86.2654ZM145.082 64.0008C138.422 66.4066 124.054 71.4557 120.979 72.2776L120.952 72.2847C120.28 70.4721 118.705 64.5034 118.549 62.8088C119.782 62.3514 123.569 61.0975 127.236 59.8756C134.912 57.3261 139.65 55.7328 142.577 54.68C143.063 56.4858 144.193 60.6947 145.078 63.9876L145.082 64.0008ZM126.697 58.2408C118.222 61.0605 117.494 61.3261 117.22 61.5274C116.818 61.8342 116.819 62.3177 116.812 62.5045C116.797 63.9886 119.049 73.2202 119.924 73.9258C120.432 74.3307 120.598 74.4713 134.93 69.4461C140.497 67.4888 146.512 65.3406 148.495 64.5971C148.574 64.8892 148.633 65.2716 148.641 65.5116C146.23 66.469 129.928 72.0207 118.599 75.8452C117.517 73.3593 114.601 63.1952 114.563 60.9851C126.135 57.0532 143.219 51.2783 145.371 50.632C145.519 50.8629 145.683 51.317 145.746 51.656C143.636 52.6184 133.143 56.1054 126.7 58.2541L126.697 58.2408ZM48.6816 81.0528C42.7439 82.6395 38.8308 85.9195 39.5763 88.6945C40.3219 91.4694 45.3551 92.3586 51.2928 90.7719C57.2304 89.1852 61.1436 85.9052 60.398 83.1302C59.6525 80.3552 54.6192 79.4661 48.6816 81.0528ZM50.8433 89.0989C45.8376 90.4366 41.6436 89.7501 41.2405 88.2497C40.8374 86.7494 44.1253 84.0634 49.131 82.7257C54.1368 81.3881 58.3308 82.0746 58.7339 83.5749C59.137 85.0753 55.849 87.7612 50.8433 89.0989ZM107.523 68.132C107.634 68.6003 107.331 69.0655 106.875 69.1732C93.1174 72.3516 79.3065 76.1277 65.862 80.4178C65.8487 80.4213 65.8354 80.4249 65.8221 80.4284C65.3827 80.5458 64.9172 80.3003 64.7693 79.8559C64.6178 79.3983 64.8738 78.9172 65.3327 78.7662C78.8304 74.4618 92.6777 70.6618 106.492 67.4824C106.962 67.3712 107.424 67.6602 107.536 68.1285L107.523 68.132ZM103.595 74.5465C103.72 75.0112 103.447 75.4826 102.982 75.6071L67.7222 85.058C67.2563 85.1825 66.7836 84.9103 66.6588 84.4456C66.5339 83.9809 66.8068 83.5095 67.2728 83.385L102.532 73.9341C102.998 73.8096 103.471 74.0818 103.595 74.5465ZM59.0728 70.7621L59.7783 70.5735C80.3533 65.0468 85.6918 63.6202 86.5439 63.3925C86.5705 63.3854 86.5971 63.3782 86.6238 63.3711C92.1088 61.9054 91.3763 58.9134 90.9284 57.1404L90.8321 56.7819C90.1529 53.7757 88.1964 52.5482 85.04 53.1213C82.5768 53.5661 68.347 57.4826 60.7098 59.5946C58.6365 60.1629 57.0958 60.5889 56.4834 60.7525C52.7957 61.738 52.5488 63.9528 53.3636 67.4635C53.742 69.0843 54.1936 70.2871 55.1798 70.8774C56.1829 71.4774 57.3891 71.2405 59.0799 70.7886L59.0728 70.7621ZM55.0518 67.0551C54.2629 63.694 54.8125 62.9779 56.9293 62.4122C57.5284 62.2521 59.086 61.8359 61.169 61.2508C68.2373 59.305 82.973 55.2533 85.3528 54.8166C88.2358 54.288 88.8288 55.7519 89.1634 57.1567L89.2669 57.5417C89.6978 59.305 90.0351 60.6664 86.1077 61.716C84.8829 62.0433 75.617 64.5194 59.3289 68.9006L58.7165 69.0642C57.4784 69.3951 56.486 69.6318 56.0605 69.3755C55.6855 69.1484 55.3588 68.4103 55.0518 67.0551Z" fill="#81A818"/>
<path opacity="0.24" d="M192.955 259.554C189.271 259.194 185.234 261.651 182.934 263.331C182.515 259.234 180.829 251.285 173.896 251.166C170.118 251.113 167.435 253.855 166.342 258.869C164.287 268.319 167.915 283.632 172.725 285.733C177.361 287.759 190.246 281.299 196.069 274.028C199.524 269.718 200.113 265.57 197.715 262.33C196.502 260.694 194.904 259.749 192.948 259.571L192.955 259.554ZM194.233 272.55C188.457 279.759 176.71 284.893 173.676 283.567C170.573 282.212 166.693 268.407 168.668 259.373C169.53 255.446 171.275 253.484 173.889 253.519C174.623 253.532 175.279 253.676 175.866 253.932C180.709 256.048 180.739 265.569 180.736 265.67C180.735 266.14 181.001 266.564 181.432 266.752C181.863 266.94 182.355 266.848 182.694 266.545C184.257 265.138 189.104 261.539 192.729 261.893C194.008 262.022 195.024 262.609 195.831 263.72C197.569 266.077 197.046 269.045 194.233 272.55Z" fill="#ED8C28"/>
<path opacity="0.24" d="M213.918 550.725C213.918 550.725 213.883 550.665 213.875 550.621C213.847 550.573 213.836 550.499 213.808 550.45C213.794 550.426 213.773 550.39 213.759 550.366C213.759 550.366 213.745 550.342 213.738 550.329C212.332 548.319 202.876 541.92 186.091 543.125C185.907 543.086 185.707 543.104 185.524 543.178C175.461 543.993 162.842 547.537 147.787 556.334C114.957 575.512 108.307 596.26 106.967 604.3C106.216 608.809 106.59 612.719 107.91 614.247C107.917 614.259 107.943 614.276 107.95 614.288C107.971 614.324 108.01 614.334 108.043 614.364C110.879 617.226 130.349 623.563 158.17 615.327C164.927 613.322 172.158 610.463 179.773 606.481C202.334 594.683 210.108 577.106 212.744 567.676C215.018 559.518 214.889 552.793 213.911 550.713L213.918 550.725ZM211.662 551.041C210.141 553.271 206.545 556.437 201.955 559.95C197.488 552.821 191.892 547.648 188.779 545.09C201.866 544.725 209.714 549.101 211.674 551.034L211.662 551.041ZM185.694 545.287C187.467 546.619 194.788 552.427 200.282 561.22C199.424 561.859 198.542 562.512 197.635 563.179C192.17 553.515 185.632 547.998 182.357 545.662C183.495 545.506 184.615 545.377 185.694 545.287ZM148.808 558.099C157.19 553.208 164.795 549.989 171.607 547.969C174.323 547.162 176.896 546.583 179.363 546.129C179.877 546.429 188.843 551.87 195.922 564.407C192.682 566.707 189.256 569.051 185.856 571.299C181.695 566.959 169.909 570.797 159.571 576.83C149.172 582.898 142.269 589.226 141.13 593.733C140.887 594.71 140.904 595.603 141.135 596.421C137.72 598.113 134.232 599.848 130.865 601.512C123.274 590.156 122.488 580.119 122.424 579.06C128.328 572.373 136.764 565.147 148.827 558.104L148.808 558.099ZM178.752 572.956C178.346 572.561 177.701 572.562 177.305 572.967C176.909 573.372 176.911 574.016 177.317 574.411C177.81 574.9 178.231 575.431 178.683 575.961C177.3 576.838 175.965 577.687 174.697 578.481C174.154 577.795 173.575 577.129 172.959 576.485C172.565 576.083 171.925 576.065 171.51 576.465C171.107 576.858 171.089 577.497 171.49 577.911C172.005 578.436 172.448 579.035 172.921 579.601C171.58 580.437 170.309 581.201 169.191 581.893L167.925 579.706C167.645 579.222 167.014 579.054 166.517 579.34C166.033 579.619 165.864 580.248 166.144 580.732L167.424 582.943C166.558 583.458 165.79 583.916 165.172 584.272C164.687 584.551 163.873 584.988 162.827 585.525L161.519 583.265C161.239 582.782 160.596 582.62 160.112 582.9C159.627 583.179 159.458 583.808 159.738 584.291L160.997 586.467C159.653 587.16 158.053 587.968 156.277 588.862C155.972 588.168 155.698 587.471 155.448 586.761C155.265 586.222 154.677 585.932 154.156 586.12C153.615 586.302 153.329 586.869 153.512 587.408C153.787 588.217 154.097 589.005 154.452 589.784C153.113 590.458 151.695 591.162 150.204 591.908C149.962 591.322 149.732 590.73 149.538 590.116C149.374 589.582 148.798 589.285 148.251 589.455C147.703 589.626 147.405 590.2 147.588 590.739C147.819 591.444 148.092 592.141 148.378 592.83C146.65 593.696 144.867 594.578 143.034 595.488C142.981 595.116 143.012 594.696 143.135 594.238C144.132 590.296 150.831 584.312 160.624 578.592C165.457 575.777 170.085 573.725 173.99 572.572C178.708 571.176 182.382 571.075 184.12 572.459C182.89 573.264 181.671 574.063 180.47 574.835C179.936 574.191 179.39 573.555 178.784 572.954L178.752 572.956ZM149.223 594.68C149.663 595.523 150.145 596.357 150.682 597.144C150.937 597.529 151.41 597.675 151.822 597.551C151.921 597.526 152.018 597.47 152.103 597.421C152.566 597.106 152.697 596.467 152.381 596.004C151.899 595.283 151.465 594.533 151.055 593.77C152.546 593.024 153.977 592.314 155.315 591.64C155.769 592.506 156.264 593.333 156.802 594.151C157.057 594.536 157.53 594.683 157.942 594.558C158.041 594.534 158.126 594.485 158.223 594.429C158.687 594.114 158.817 593.474 158.501 593.012C158.005 592.266 157.564 591.505 157.141 590.717C158.978 589.788 160.626 588.952 162.007 588.238L163.364 590.583C163.602 590.993 164.107 591.169 164.551 591.043C164.631 591.013 164.699 590.99 164.771 590.948C165.256 590.669 165.425 590.04 165.145 589.557L163.837 587.297C164.864 586.754 165.677 586.318 166.162 586.039C166.223 586.004 167.059 585.522 168.431 584.684L169.775 587.004C170.013 587.415 170.518 587.591 170.962 587.464C171.042 587.435 171.109 587.412 171.182 587.37C171.667 587.091 171.836 586.462 171.556 585.978L170.192 583.622C171.317 582.942 172.653 582.124 174.128 581.21C174.65 581.973 175.172 582.736 175.61 583.547C175.855 583.97 176.343 584.172 176.799 584.039C176.867 584.016 176.934 583.993 176.995 583.958C177.487 583.691 177.675 583.067 177.407 582.577C176.949 581.729 176.429 580.916 175.881 580.136C177.137 579.348 178.479 578.511 179.886 577.621C180.277 578.185 180.675 578.761 181.006 579.36C181.239 579.79 181.747 579.998 182.195 579.852C182.263 579.829 182.331 579.806 182.391 579.772C182.883 579.504 183.071 578.881 182.803 578.39C182.457 577.736 182.055 577.097 181.635 576.484C182.764 575.754 183.916 575.01 185.093 574.252C185.198 574.852 185.158 575.536 184.955 576.329C183.899 580.45 178.613 587.088 169.135 592.625C158.198 599.019 147.531 599.683 144.13 597.242C145.859 596.376 147.57 595.536 149.206 594.706L149.223 594.68ZM137.513 616.651C133.028 613.593 129.555 609.743 126.877 605.759C127.942 605.226 129.026 604.698 130.134 604.157C133.11 608.293 136.984 612.556 142.025 616.631C140.594 616.81 139.199 616.969 137.839 617.075C137.76 616.911 137.657 616.761 137.5 616.658L137.513 616.651ZM125.764 604.031C120.279 595.087 118.621 585.971 118.328 584.125C119.023 583.177 119.774 582.213 120.58 581.233C121.092 585.048 122.868 593.307 128.973 602.457C127.889 602.985 126.824 603.517 125.783 604.036L125.764 604.031ZM108.987 604.635C109.597 600.916 111.416 594.374 116.678 586.494C117.448 590.224 119.397 597.61 123.895 604.962C116.882 608.42 111.219 611.197 109.13 612.223C108.673 610.987 108.369 608.423 108.999 604.628L108.987 604.635ZM110.657 613.744C113.184 612.499 118.53 609.872 124.984 606.703C127.505 610.473 130.743 614.168 134.841 617.255C122.474 617.801 113.837 615.442 110.657 613.744ZM178.825 604.675C166.226 611.268 154.653 614.693 144.717 616.257C144.654 616.148 144.567 616.054 144.46 615.954C139.142 611.845 135.104 607.467 132.046 603.217C135.376 601.574 138.804 599.874 142.17 598.21C144.912 601.159 151.737 601.338 159.349 599.082C162.909 598.031 166.644 596.444 170.193 594.369C178.841 589.325 185.582 582.269 186.965 576.816C187.33 575.381 187.305 574.138 186.933 573.047C190.267 570.853 193.683 568.548 196.936 566.24C199.46 571.103 201.659 576.911 203.021 583.813C197.991 591.173 190.386 598.662 178.839 604.699L178.825 604.675ZM204.543 581.39C203.1 575.018 201.022 569.559 198.634 564.988C199.56 564.326 200.454 563.666 201.33 563.001C203.784 567.325 205.743 572.272 206.359 577.718C206.372 577.823 206.408 577.915 206.445 578.006C205.867 579.129 205.226 580.255 204.53 581.397L204.543 581.39ZM210.769 567.138C210.092 569.542 209.184 572.159 207.969 574.889C207.057 570.048 205.25 565.643 203.028 561.749C207.079 558.643 210.471 555.739 212.455 553.388C212.694 556.006 212.492 560.989 210.776 567.15L210.769 567.138Z" fill="#81A818"/>
</svg>
