<svg width="420" height="420" viewBox="0 0 420 420" fill="none" xmlns="http://www.w3.org/2000/svg">
<path opacity="0.6" d="M324.11 228.071C331.993 173.445 302.741 122.044 255.43 99.2827C236.52 90.1849 221.632 71.4492 224.63 50.6726C227.628 29.896 247.116 15.1153 266.966 21.932C355.9 52.4736 413.44 142.571 399.543 238.872C396.182 262.158 388.896 283.966 378.445 303.692C368.611 322.253 344.296 324.751 327.921 311.624C311.496 298.457 309.593 274.495 317.15 254.831C320.396 246.382 322.759 237.434 324.11 228.071Z" fill="url(#paint0_linear_69730_13717)"/>
<path opacity="0.6" d="M80.9763 193.928C88.8793 139.163 131.443 97.918 183.227 89.2566C204.007 85.781 223.66 71.9382 226.668 51.0925C229.677 30.2469 215.107 10.5291 194.065 11.5297C100.14 15.9962 19.4803 86.5479 5.54318 183.127C2.17366 206.476 2.98443 229.506 7.41737 251.423C11.5908 272.057 34.2866 281.309 53.7563 273.256C73.2045 265.212 81.794 242.795 80.0895 221.833C79.349 212.728 79.6114 203.386 80.9763 193.928Z" fill="url(#paint1_linear_69730_13717)"/>
<path opacity="0.6" d="M51.7904 269.974C71.525 262.23 93.4109 272.511 106.719 288.986C125.798 312.606 153.486 329.299 185.861 333.935C216.377 338.304 245.92 331.23 270.138 315.906C288.054 304.57 312.094 301.852 328.28 315.513C344.452 329.163 346.666 353.695 330.196 367.019C288.183 401.007 232.647 418.157 174.9 409.889C114.135 401.188 63.6857 366.177 33.3513 318.124C22.0547 300.229 32.0707 277.712 51.7904 269.974Z" fill="url(#paint2_linear_69730_13717)"/>
<path d="M216.945 155.004C219.535 155.049 222.148 155.251 224.784 155.587C242.108 157.939 257.831 166.968 268.622 180.77C279.413 194.572 284.459 212.048 282.634 229.501C278.804 266.201 245.847 293.266 209.263 289.681C199.554 288.74 190.16 285.693 181.735 280.719C178.806 278.994 175.337 278.411 172.003 279.084L154.251 282.534C153.238 282.736 152.201 282.646 151.21 282.31C150.242 281.974 149.363 281.391 148.687 280.607C148.011 279.823 147.561 278.882 147.358 277.874C147.155 276.865 147.223 275.812 147.561 274.827L153.576 257.283C154.657 254.079 154.544 250.562 153.283 247.425C149.093 236.872 147.629 225.401 149.048 214.131C150.354 203.578 154.049 193.899 159.546 185.542H182.118C190.092 185.542 197.549 181.733 202.212 175.303L216.945 154.982V155.004ZM217.711 183.257C207.956 181.487 197.211 186.662 195.251 197.91C194.237 203.802 196.4 207.88 199.148 212.272C199.238 212.406 199.171 212.563 199.035 212.63C193.967 214.378 183.627 218.142 181.532 230.218C180.45 236.491 182.095 242.07 185.271 246.529C187.344 249.442 190.047 251.906 193.066 253.766C196.085 255.625 199.396 256.925 202.685 257.508C208.655 258.583 213.565 257.104 217.305 255.065C220.166 253.497 222.374 251.57 223.86 250.226L231.182 260.958C231.925 262.033 233.344 262.369 234.471 261.697L245.757 254.953C245.915 254.841 246.027 254.662 246.027 254.46C246.027 254.169 245.825 253.945 245.577 253.878L241.725 253.138L233.052 240.457C236.251 241.129 239.877 239.247 241.68 235.775C242.806 233.579 242.964 231.204 242.265 229.255C242.333 229.165 248.798 221.726 248.978 221.525C248.978 221.525 248.978 221.502 248.978 221.48C248.978 221.458 249.023 221.413 249.023 221.39C249.046 221.323 249.091 221.234 249.091 221.144C249.091 221.144 249.091 221.122 249.091 221.099C249.091 221.099 249.091 221.009 249.091 220.965C249.069 220.875 249.001 220.785 248.933 220.741C248.933 220.741 248.73 220.606 248.595 220.584C247.311 220.36 235.98 218.321 235.777 218.299C234.809 218.119 234.088 218.455 233.502 219.083L225.122 228.47C225.122 228.47 224.897 228.538 224.829 228.448L219.423 220.293C219.333 220.158 219.378 219.979 219.535 219.912C223.5 218.635 232.443 215.408 234.313 204.519C236.115 194.056 228.231 185.139 217.733 183.235L217.711 183.257ZM205.749 224.46C205.996 224.393 206.267 224.505 206.402 224.729L215.886 238.62C215.886 238.62 215.931 238.777 215.886 238.844C213.633 241.443 209.804 245.812 203.924 244.759C198.788 243.84 194.012 239.561 195.093 233.265C196.175 226.947 202.505 225.244 205.749 224.46ZM208.204 200.24C208.79 196.857 212.192 194.863 215.593 195.468C220.617 196.386 221.698 199.971 221.225 202.772C220.504 206.984 216.607 208.306 212.642 209.426C212.394 209.493 212.124 209.426 211.966 209.202C209.578 205.998 207.709 203.22 208.227 200.24H208.204ZM216.246 130C219.355 130 221.247 133.294 219.873 135.915L219.558 136.43L195.093 170.195C192.277 174.071 187.862 176.468 183.109 176.759H182.14L145.421 176.782V186.394C146.074 186.662 146.705 187.088 147.2 187.693L149.25 190.135C150.377 191.48 150.625 193.339 149.904 194.93L146.457 202.615C145.376 205.035 141.929 205.035 140.848 202.615L137.401 194.93C136.68 193.339 136.951 191.48 138.054 190.135L140.105 187.693C140.6 187.088 141.208 186.662 141.884 186.394V176.782H141.231C137.987 176.782 136.027 173.175 137.829 170.486L160.221 137.058C163.172 132.644 168.173 130 173.512 130H216.246Z" fill="url(#paint3_linear_69730_13717)"/>
<circle cx="202.514" cy="50.166" r="49.0373" fill="#3BD569" stroke="white" stroke-width="1.92537"/>
<circle cx="61.5137" cy="296.166" r="49.0373" fill="#FB9600" stroke="white" stroke-width="1.92537"/>
<circle cx="342.514" cy="300.166" r="49.0373" fill="#4987FF" stroke="white" stroke-width="1.92537"/>
<path d="M165.618 44.8535H167.961V54.2285H172.829V56.166H165.618V44.8535ZM177.829 56.3301C176.975 56.3301 176.23 56.153 175.595 55.7988C174.964 55.4447 174.477 54.9395 174.134 54.2832C173.795 53.627 173.626 52.8561 173.626 51.9707C173.626 51.0957 173.795 50.3275 174.134 49.666C174.477 48.9993 174.959 48.4837 175.579 48.1191C176.199 47.7546 176.918 47.5723 177.735 47.5723C178.501 47.5723 179.183 47.7337 179.782 48.0566C180.381 48.3743 180.852 48.8561 181.196 49.502C181.54 50.1478 181.712 50.9368 181.712 51.8691V52.5176H174.571V51.0723H179.532C179.532 50.7285 179.457 50.4238 179.306 50.1582C179.155 49.8874 178.946 49.6764 178.681 49.5254C178.415 49.3743 178.113 49.2988 177.774 49.2988C177.415 49.2988 177.095 49.3822 176.813 49.5488C176.532 49.7103 176.311 49.9342 176.149 50.2207C175.993 50.5072 175.912 50.8197 175.907 51.1582V52.5176C175.907 52.9395 175.988 53.3092 176.149 53.627C176.311 53.9447 176.537 54.1868 176.829 54.3535C177.126 54.5202 177.47 54.6035 177.86 54.6035C178.121 54.6035 178.358 54.5671 178.571 54.4941C178.785 54.416 178.964 54.3171 179.11 54.1973C179.261 54.0723 179.376 53.9264 179.454 53.7598H181.657C181.548 54.2754 181.321 54.7285 180.977 55.1191C180.639 55.5046 180.199 55.804 179.657 56.0176C179.121 56.2259 178.511 56.3301 177.829 56.3301ZM187.314 49.416H182.236V47.6816H187.314V49.416ZM185.72 45.6504V53.5566C185.72 53.7754 185.751 53.9473 185.814 54.0723C185.881 54.1921 185.973 54.278 186.087 54.3301C186.207 54.377 186.353 54.403 186.525 54.4082C186.743 54.4134 187.045 54.4004 187.431 54.3691V56.1973C187.082 56.2546 186.678 56.2832 186.22 56.2832C185.647 56.2832 185.15 56.1973 184.728 56.0254C184.306 55.8483 183.978 55.5801 183.743 55.2207C183.509 54.8613 183.394 54.4134 183.4 53.877V45.6504H185.72ZM190.189 49.3066H188.533L189.306 44.8613H191.541L190.189 49.3066ZM196.517 50.2051C196.465 49.8926 196.317 49.6504 196.072 49.4785C195.827 49.3066 195.512 49.2207 195.127 49.2207C194.877 49.2207 194.653 49.2572 194.455 49.3301C194.257 49.3978 194.098 49.4993 193.978 49.6348C193.864 49.765 193.806 49.9134 193.806 50.0801C193.801 50.278 193.885 50.4499 194.056 50.5957C194.234 50.7415 194.515 50.8535 194.9 50.9316L196.431 51.2441C197.254 51.4108 197.866 51.6842 198.267 52.0645C198.674 52.4395 198.877 52.9316 198.877 53.541C198.877 54.0931 198.718 54.5801 198.4 55.002C198.088 55.4186 197.648 55.7441 197.08 55.9785C196.517 56.2129 195.861 56.3301 195.111 56.3301C194.356 56.3301 193.702 56.2233 193.15 56.0098C192.603 55.791 192.171 55.4837 191.853 55.0879C191.536 54.6868 191.346 54.2103 191.283 53.6582H193.603C193.671 53.9811 193.833 54.2285 194.088 54.4004C194.348 54.5671 194.692 54.6504 195.119 54.6504C195.395 54.6504 195.637 54.6165 195.846 54.5488C196.059 54.4811 196.223 54.3822 196.338 54.252C196.458 54.1165 196.517 53.9603 196.517 53.7832C196.517 53.554 196.424 53.3691 196.236 53.2285C196.054 53.0879 195.765 52.9785 195.369 52.9004L193.963 52.6191C193.15 52.4577 192.536 52.1738 192.119 51.7676C191.708 51.3613 191.504 50.8457 191.51 50.2207C191.51 49.679 191.655 49.2103 191.947 48.8145C192.239 48.4134 192.653 48.1061 193.189 47.8926C193.731 47.679 194.366 47.5723 195.096 47.5723C195.804 47.5723 196.421 47.679 196.947 47.8926C197.473 48.1061 197.885 48.4108 198.181 48.8066C198.478 49.2025 198.645 49.6686 198.681 50.2051H196.517ZM203.416 44.8535H207.838C208.693 44.8535 209.422 45.0046 210.026 45.3066C210.635 45.6035 211.099 46.0306 211.416 46.5879C211.734 47.1452 211.893 47.7962 211.893 48.541C211.893 49.2806 211.732 49.9238 211.409 50.4707C211.091 51.0124 210.622 51.429 210.002 51.7207C209.383 52.0072 208.643 52.1504 207.784 52.1504H204.791V50.2363H207.416C207.885 50.2363 208.271 50.1738 208.573 50.0488C208.875 49.9186 209.101 49.7285 209.252 49.4785C209.403 49.2285 209.479 48.916 209.479 48.541C209.479 48.1556 209.403 47.8327 209.252 47.5723C209.101 47.3118 208.872 47.1165 208.565 46.9863C208.258 46.8509 207.872 46.7832 207.409 46.7832H205.76V56.166H203.416V44.8535ZM212.299 56.166H209.69L206.948 51.0254H209.487L212.299 56.166ZM216.878 56.3301C216.024 56.3301 215.279 56.153 214.643 55.7988C214.013 55.4447 213.526 54.9395 213.182 54.2832C212.844 53.627 212.675 52.8561 212.675 51.9707C212.675 51.0957 212.844 50.3275 213.182 49.666C213.526 48.9993 214.008 48.4837 214.628 48.1191C215.248 47.7546 215.966 47.5723 216.784 47.5723C217.55 47.5723 218.232 47.7337 218.831 48.0566C219.43 48.3743 219.901 48.8561 220.245 49.502C220.589 50.1478 220.761 50.9368 220.761 51.8691V52.5176H213.62V51.0723H218.581C218.581 50.7285 218.505 50.4238 218.354 50.1582C218.203 49.8874 217.995 49.6764 217.729 49.5254C217.464 49.3743 217.162 49.2988 216.823 49.2988C216.464 49.2988 216.143 49.3822 215.862 49.5488C215.581 49.7103 215.36 49.9342 215.198 50.2207C215.042 50.5072 214.961 50.8197 214.956 51.1582V52.5176C214.956 52.9395 215.037 53.3092 215.198 53.627C215.36 53.9447 215.586 54.1868 215.878 54.3535C216.175 54.5202 216.518 54.6035 216.909 54.6035C217.169 54.6035 217.406 54.5671 217.62 54.4941C217.833 54.416 218.013 54.3171 218.159 54.1973C218.31 54.0723 218.425 53.9264 218.503 53.7598H220.706C220.596 54.2754 220.37 54.7285 220.026 55.1191C219.688 55.5046 219.248 55.804 218.706 56.0176C218.169 56.2259 217.56 56.3301 216.878 56.3301ZM226.87 52.502C226.662 52.5072 226.295 52.528 225.769 52.5645L225.019 52.627C224.607 52.6582 224.284 52.7702 224.05 52.9629C223.816 53.1504 223.698 53.4056 223.698 53.7285C223.698 53.9368 223.75 54.1139 223.855 54.2598C223.964 54.4056 224.115 54.5176 224.308 54.5957C224.506 54.6738 224.727 54.7129 224.972 54.7129C225.321 54.7129 225.631 54.6452 225.901 54.5098C226.172 54.3691 226.383 54.179 226.534 53.9395C226.685 53.6947 226.761 53.4264 226.761 53.1348L226.745 50.3926C226.745 50.153 226.693 49.9499 226.589 49.7832C226.49 49.6113 226.336 49.4837 226.128 49.4004C225.925 49.3118 225.683 49.2676 225.401 49.2676C225.011 49.2676 224.693 49.3509 224.448 49.5176C224.204 49.679 224.05 49.9082 223.987 50.2051H221.784C221.836 49.7051 222.011 49.2572 222.308 48.8613C222.61 48.4603 223.026 48.1452 223.558 47.916C224.094 47.6868 224.727 47.5723 225.456 47.5723C226.112 47.5723 226.711 47.6738 227.253 47.877C227.795 48.0801 228.23 48.3978 228.558 48.8301C228.891 49.2572 229.058 49.7962 229.058 50.4473V56.166H226.862V54.9941H226.8C226.659 55.2598 226.474 55.4915 226.245 55.6895C226.016 55.8874 225.74 56.0436 225.417 56.1582C225.099 56.2676 224.73 56.3223 224.308 56.3223C223.761 56.3223 223.276 56.2259 222.855 56.0332C222.433 55.8405 222.099 55.554 221.855 55.1738C221.61 54.7936 221.487 54.3353 221.487 53.7988C221.487 52.9134 221.779 52.2702 222.362 51.8691C222.951 51.4681 223.711 51.2389 224.644 51.1816C224.8 51.166 225.282 51.14 226.089 51.1035L226.855 51.0723L226.87 52.502ZM233.621 56.2988C232.97 56.2988 232.381 56.1296 231.855 55.791C231.334 55.4525 230.923 54.9551 230.621 54.2988C230.324 53.6374 230.175 52.8483 230.175 51.9316C230.175 50.9941 230.329 50.1973 230.636 49.541C230.943 48.8848 231.355 48.3926 231.871 48.0645C232.391 47.7363 232.975 47.5723 233.621 47.5723C234.068 47.5723 234.454 47.6478 234.777 47.7988C235.1 47.9447 235.355 48.127 235.542 48.3457C235.73 48.5645 235.891 48.8171 236.027 49.1035H236.097V44.8535H238.41V56.166H236.136V54.8145H236.027C235.886 55.0957 235.72 55.3405 235.527 55.5488C235.339 55.7572 235.084 55.9342 234.761 56.0801C234.438 56.2259 234.058 56.2988 233.621 56.2988ZM234.339 54.4551C234.72 54.4551 235.045 54.3509 235.316 54.1426C235.592 53.9342 235.8 53.6374 235.941 53.252C236.087 52.8665 236.16 52.4212 236.16 51.916C236.16 51.4056 236.089 50.9629 235.949 50.5879C235.808 50.2129 235.6 49.9264 235.324 49.7285C235.053 49.5254 234.725 49.4238 234.339 49.4238C233.954 49.4238 233.626 49.528 233.355 49.7363C233.084 49.9395 232.878 50.2285 232.738 50.6035C232.602 50.9785 232.535 51.416 232.535 51.916C232.535 52.416 232.602 52.8587 232.738 53.2441C232.878 53.6243 233.084 53.9212 233.355 54.1348C233.626 54.3483 233.954 54.4551 234.339 54.4551Z" fill="white"/>
<path d="M304.171 307.166V295.752H306.451V305.256H311.087V307.166H304.171ZM315.718 307.382C314.917 307.382 314.193 307.202 313.546 306.843C312.899 306.483 312.38 305.965 311.99 305.287C311.61 304.609 311.42 303.798 311.42 302.853C311.42 302.155 311.528 301.529 311.744 300.974C311.97 300.42 312.273 299.947 312.653 299.557C313.043 299.156 313.474 298.854 313.946 298.648C314.429 298.433 314.927 298.325 315.441 298.325C316.231 298.325 316.894 298.504 317.428 298.864C317.961 299.213 318.362 299.701 318.629 300.327C318.906 300.943 319.045 301.652 319.045 302.453C319.045 302.658 319.035 302.858 319.014 303.053C318.993 303.238 318.968 303.387 318.937 303.5H313.623C313.685 303.962 313.823 304.352 314.039 304.671C314.254 304.989 314.532 305.23 314.871 305.395C315.209 305.549 315.595 305.626 316.026 305.626C316.375 305.626 316.704 305.58 317.012 305.487C317.32 305.384 317.633 305.236 317.951 305.04L318.721 306.427C318.3 306.714 317.828 306.945 317.304 307.12C316.781 307.294 316.252 307.382 315.718 307.382ZM313.577 301.975H317.104C317.104 301.4 316.971 300.943 316.704 300.604C316.447 300.255 316.036 300.081 315.471 300.081C315.174 300.081 314.891 300.153 314.624 300.296C314.357 300.43 314.131 300.64 313.946 300.928C313.762 301.205 313.638 301.554 313.577 301.975ZM323.195 307.382C322.517 307.382 321.968 307.248 321.547 306.981C321.126 306.704 320.823 306.324 320.638 305.841C320.453 305.359 320.361 304.799 320.361 304.162V300.327H319.144V298.648L320.484 298.54L320.746 296.214H322.61V298.54H324.751V300.327H322.61V304.147C322.61 304.64 322.713 305.004 322.918 305.241C323.123 305.477 323.416 305.595 323.796 305.595C323.94 305.595 324.089 305.574 324.243 305.533C324.397 305.492 324.53 305.451 324.643 305.41L325.028 307.058C324.792 307.13 324.52 307.202 324.212 307.274C323.914 307.346 323.575 307.382 323.195 307.382ZM326.413 300.635L325.889 299.649C326.392 299.372 326.767 299.059 327.014 298.71C327.27 298.361 327.399 297.929 327.399 297.416L327.275 296.014L328.107 297.108C327.984 297.211 327.845 297.298 327.691 297.37C327.548 297.431 327.394 297.462 327.229 297.462C326.901 297.462 326.613 297.354 326.367 297.139C326.12 296.923 325.997 296.636 325.997 296.276C325.997 295.876 326.11 295.562 326.336 295.337C326.572 295.111 326.87 294.998 327.229 294.998C327.722 294.998 328.092 295.177 328.338 295.537C328.595 295.896 328.723 296.404 328.723 297.062C328.723 297.852 328.528 298.551 328.138 299.156C327.758 299.752 327.183 300.245 326.413 300.635ZM331.95 307.382C331.375 307.382 330.789 307.269 330.194 307.043C329.608 306.817 329.1 306.529 328.669 306.18L329.701 304.748C330.081 305.035 330.456 305.266 330.825 305.441C331.205 305.605 331.6 305.687 332.011 305.687C332.443 305.687 332.756 305.605 332.951 305.441C333.156 305.266 333.259 305.046 333.259 304.779C333.259 304.563 333.172 304.383 332.997 304.239C332.822 304.085 332.597 303.952 332.319 303.839C332.042 303.716 331.755 303.598 331.457 303.485C331.097 303.341 330.738 303.166 330.379 302.961C330.029 302.756 329.737 302.494 329.501 302.175C329.264 301.847 329.146 301.441 329.146 300.959C329.146 300.445 329.28 299.993 329.547 299.603C329.814 299.203 330.183 298.889 330.656 298.664C331.138 298.438 331.708 298.325 332.366 298.325C332.992 298.325 333.546 298.433 334.029 298.648C334.522 298.864 334.943 299.11 335.292 299.388L334.275 300.758C333.967 300.532 333.659 300.353 333.351 300.219C333.054 300.086 332.745 300.019 332.427 300.019C332.027 300.019 331.734 300.096 331.549 300.25C331.364 300.404 331.272 300.604 331.272 300.851C331.272 301.056 331.349 301.231 331.503 301.374C331.657 301.508 331.867 301.626 332.134 301.729C332.401 301.831 332.684 301.939 332.982 302.052C333.269 302.155 333.552 302.278 333.829 302.422C334.116 302.555 334.378 302.72 334.614 302.915C334.851 303.11 335.035 303.351 335.169 303.639C335.313 303.916 335.384 304.255 335.384 304.655C335.384 305.158 335.251 305.621 334.984 306.042C334.727 306.452 334.342 306.781 333.829 307.027C333.326 307.264 332.699 307.382 331.95 307.382ZM342.958 307.382C342.198 307.382 341.453 307.238 340.724 306.95C339.995 306.663 339.354 306.252 338.799 305.718L340.108 304.147C340.509 304.527 340.966 304.835 341.479 305.071C342.003 305.297 342.511 305.41 343.004 305.41C343.6 305.41 344.051 305.292 344.36 305.056C344.668 304.82 344.822 304.501 344.822 304.101C344.822 303.813 344.745 303.587 344.591 303.423C344.447 303.249 344.247 303.094 343.99 302.961C343.733 302.828 343.435 302.694 343.096 302.561L341.587 301.898C341.207 301.744 340.837 301.539 340.478 301.282C340.129 301.015 339.836 300.681 339.6 300.281C339.374 299.88 339.261 299.403 339.261 298.848C339.261 298.222 339.431 297.662 339.769 297.169C340.108 296.677 340.576 296.286 341.171 295.999C341.767 295.701 342.444 295.552 343.204 295.552C343.882 295.552 344.534 295.681 345.16 295.937C345.787 296.194 346.331 296.558 346.793 297.031L345.638 298.448C345.279 298.15 344.904 297.919 344.514 297.755C344.123 297.59 343.687 297.508 343.204 297.508C342.711 297.508 342.316 297.616 342.018 297.832C341.731 298.037 341.587 298.33 341.587 298.71C341.587 298.977 341.669 299.198 341.833 299.372C341.998 299.547 342.213 299.701 342.48 299.834C342.747 299.957 343.04 300.086 343.358 300.219L344.852 300.82C345.314 301.005 345.715 301.236 346.054 301.513C346.403 301.79 346.67 302.124 346.855 302.514C347.05 302.905 347.147 303.377 347.147 303.931C347.147 304.548 346.978 305.117 346.639 305.641C346.311 306.165 345.833 306.586 345.207 306.904C344.591 307.222 343.841 307.382 342.958 307.382ZM348.365 310.478V298.54H350.213L350.382 299.434H350.429C350.788 299.126 351.183 298.864 351.615 298.648C352.056 298.433 352.508 298.325 352.97 298.325C353.679 298.325 354.285 298.51 354.788 298.879C355.291 299.239 355.676 299.747 355.943 300.404C356.22 301.051 356.359 301.821 356.359 302.715C356.359 303.7 356.184 304.542 355.835 305.241C355.486 305.939 355.029 306.473 354.464 306.843C353.91 307.202 353.319 307.382 352.693 307.382C352.323 307.382 351.954 307.3 351.584 307.135C351.224 306.971 350.88 306.74 350.552 306.442L350.629 307.844V310.478H348.365ZM352.2 305.518C352.539 305.518 352.847 305.42 353.124 305.225C353.401 305.02 353.622 304.712 353.786 304.301C353.951 303.89 354.033 303.372 354.033 302.745C354.033 302.201 353.971 301.739 353.848 301.359C353.725 300.969 353.54 300.676 353.294 300.481C353.047 300.286 352.724 300.188 352.323 300.188C352.036 300.188 351.753 300.26 351.476 300.404C351.209 300.548 350.927 300.769 350.629 301.066V304.871C350.906 305.117 351.178 305.287 351.445 305.379C351.712 305.472 351.964 305.518 352.2 305.518ZM361.42 307.382C360.619 307.382 359.895 307.202 359.248 306.843C358.601 306.483 358.082 305.965 357.692 305.287C357.312 304.609 357.122 303.798 357.122 302.853C357.122 302.155 357.23 301.529 357.446 300.974C357.671 300.42 357.974 299.947 358.354 299.557C358.745 299.156 359.176 298.854 359.648 298.648C360.131 298.433 360.629 298.325 361.142 298.325C361.933 298.325 362.595 298.504 363.129 298.864C363.663 299.213 364.064 299.701 364.331 300.327C364.608 300.943 364.747 301.652 364.747 302.453C364.747 302.658 364.736 302.858 364.716 303.053C364.695 303.238 364.67 303.387 364.639 303.5H359.325C359.386 303.962 359.525 304.352 359.741 304.671C359.956 304.989 360.233 305.23 360.572 305.395C360.911 305.549 361.296 305.626 361.728 305.626C362.077 305.626 362.405 305.58 362.713 305.487C363.021 305.384 363.335 305.236 363.653 305.04L364.423 306.427C364.002 306.714 363.53 306.945 363.006 307.12C362.482 307.294 361.953 307.382 361.42 307.382ZM359.278 301.975H362.806C362.806 301.4 362.672 300.943 362.405 300.604C362.149 300.255 361.738 300.081 361.173 300.081C360.875 300.081 360.593 300.153 360.326 300.296C360.059 300.43 359.833 300.64 359.648 300.928C359.463 301.205 359.34 301.554 359.278 301.975ZM367.804 307.382C367.301 307.382 366.855 307.274 366.464 307.058C366.084 306.832 365.787 306.524 365.571 306.134C365.366 305.744 365.263 305.302 365.263 304.809C365.263 303.895 365.658 303.187 366.449 302.684C367.24 302.17 368.498 301.821 370.223 301.636C370.212 301.349 370.161 301.097 370.069 300.882C369.976 300.656 369.822 300.476 369.607 300.342C369.401 300.209 369.119 300.142 368.759 300.142C368.359 300.142 367.964 300.219 367.573 300.373C367.183 300.527 366.788 300.728 366.387 300.974L365.586 299.465C365.925 299.249 366.285 299.059 366.665 298.895C367.045 298.73 367.445 298.597 367.866 298.494C368.287 298.381 368.723 298.325 369.175 298.325C369.904 298.325 370.515 298.468 371.008 298.756C371.501 299.044 371.871 299.47 372.117 300.034C372.364 300.599 372.487 301.297 372.487 302.129V307.166H370.639L370.485 306.242H370.408C370.038 306.57 369.637 306.843 369.206 307.058C368.775 307.274 368.308 307.382 367.804 307.382ZM368.559 305.61C368.877 305.61 369.165 305.538 369.422 305.395C369.689 305.241 369.956 305.03 370.223 304.763V303.038C369.524 303.12 368.97 303.238 368.559 303.392C368.148 303.546 367.856 303.731 367.681 303.947C367.507 304.152 367.419 304.383 367.419 304.64C367.419 304.979 367.522 305.225 367.727 305.379C367.943 305.533 368.22 305.61 368.559 305.61ZM374.178 307.166V294.874H376.412V302.237H376.474L379.415 298.54H381.895L378.938 302.098L382.173 307.166H379.708L377.613 303.577L376.412 304.979V307.166H374.178Z" fill="white"/>
<path d="M26.1798 303.166V291.752H28.4595V301.256H33.0958V303.166H26.1798ZM37.7262 303.382C36.9252 303.382 36.2013 303.202 35.5543 302.843C34.9074 302.483 34.3889 301.965 33.9986 301.287C33.6187 300.609 33.4287 299.798 33.4287 298.853C33.4287 298.155 33.5366 297.529 33.7522 296.974C33.9781 296.42 34.281 295.947 34.661 295.557C35.0512 295.156 35.4825 294.854 35.9548 294.648C36.4375 294.433 36.9355 294.325 37.4489 294.325C38.2396 294.325 38.9019 294.504 39.4359 294.864C39.9699 295.213 40.3703 295.701 40.6373 296.327C40.9146 296.943 41.0532 297.652 41.0532 298.453C41.0532 298.658 41.0429 298.858 41.0224 299.053C41.0019 299.238 40.9762 299.387 40.9454 299.5H35.6314C35.693 299.962 35.8316 300.352 36.0472 300.671C36.2629 300.989 36.5401 301.23 36.879 301.395C37.2179 301.549 37.6029 301.626 38.0342 301.626C38.3834 301.626 38.712 301.58 39.02 301.487C39.3281 301.384 39.6413 301.236 39.9596 301.04L40.7298 302.427C40.3087 302.714 39.8364 302.945 39.3127 303.12C38.789 303.294 38.2601 303.382 37.7262 303.382ZM35.5852 297.975H39.1124C39.1124 297.4 38.9789 296.943 38.712 296.604C38.4552 296.255 38.0445 296.081 37.4797 296.081C37.1819 296.081 36.8995 296.153 36.6326 296.296C36.3656 296.43 36.1397 296.64 35.9548 296.928C35.77 297.205 35.6468 297.554 35.5852 297.975ZM45.2036 303.382C44.5259 303.382 43.9765 303.248 43.5555 302.981C43.1345 302.704 42.8315 302.324 42.6467 301.841C42.4619 301.359 42.3694 300.799 42.3694 300.162V296.327H41.1526V294.648L42.4927 294.54L42.7545 292.214H44.6183V294.54H46.7593V296.327H44.6183V300.147C44.6183 300.64 44.721 301.004 44.9263 301.241C45.1317 301.477 45.4244 301.595 45.8043 301.595C45.9481 301.595 46.097 301.574 46.251 301.533C46.405 301.492 46.5385 301.451 46.6515 301.41L47.0366 303.058C46.8004 303.13 46.5283 303.202 46.2202 303.274C45.9224 303.346 45.5835 303.382 45.2036 303.382ZM48.4213 296.635L47.8976 295.649C48.4007 295.372 48.7755 295.059 49.022 294.71C49.2787 294.361 49.407 293.929 49.407 293.416L49.2838 292.014L50.1156 293.108C49.9924 293.211 49.8537 293.298 49.6997 293.37C49.5559 293.431 49.4019 293.462 49.2376 293.462C48.909 293.462 48.6215 293.354 48.375 293.139C48.1286 292.923 48.0054 292.636 48.0054 292.276C48.0054 291.876 48.1183 291.562 48.3442 291.337C48.5804 291.111 48.8782 290.998 49.2376 290.998C49.7305 290.998 50.1002 291.177 50.3466 291.537C50.6033 291.896 50.7317 292.404 50.7317 293.062C50.7317 293.852 50.5366 294.551 50.1464 295.156C49.7664 295.752 49.1914 296.245 48.4213 296.635ZM53.958 303.382C53.383 303.382 52.7977 303.269 52.2021 303.043C51.6168 302.817 51.1085 302.529 50.6772 302.18L51.7092 300.748C52.0891 301.035 52.4639 301.266 52.8336 301.441C53.2136 301.605 53.6089 301.687 54.0196 301.687C54.4509 301.687 54.7641 301.605 54.9592 301.441C55.1646 301.266 55.2673 301.046 55.2673 300.779C55.2673 300.563 55.18 300.383 55.0054 300.239C54.8309 300.085 54.605 299.952 54.3277 299.839C54.0504 299.716 53.7629 299.598 53.4651 299.485C53.1057 299.341 52.7463 299.166 52.3869 298.961C52.0378 298.756 51.7451 298.494 51.509 298.175C51.2728 297.847 51.1547 297.441 51.1547 296.959C51.1547 296.445 51.2882 295.993 51.5552 295.603C51.8221 295.203 52.1918 294.889 52.6642 294.664C53.1468 294.438 53.7167 294.325 54.3739 294.325C55.0003 294.325 55.5548 294.433 56.0374 294.648C56.5303 294.864 56.9513 295.11 57.3005 295.388L56.2839 296.758C55.9758 296.532 55.6678 296.353 55.3597 296.219C55.0619 296.086 54.7538 296.019 54.4355 296.019C54.035 296.019 53.7424 296.096 53.5576 296.25C53.3727 296.404 53.2803 296.604 53.2803 296.851C53.2803 297.056 53.3573 297.231 53.5113 297.374C53.6654 297.508 53.8759 297.626 54.1429 297.729C54.4098 297.831 54.6922 297.939 54.99 298.052C55.2776 298.155 55.5599 298.278 55.8372 298.422C56.1247 298.555 56.3866 298.72 56.6227 298.915C56.8589 299.11 57.0438 299.351 57.1773 299.639C57.321 299.916 57.3929 300.255 57.3929 300.655C57.3929 301.158 57.2594 301.621 56.9924 302.042C56.7357 302.452 56.3506 302.781 55.8372 303.027C55.334 303.264 54.7076 303.382 53.958 303.382ZM62.6404 303.166L60.4532 291.752H62.779L63.657 297.328C63.7597 297.924 63.8521 298.525 63.9342 299.13C64.0266 299.736 64.1139 300.347 64.1961 300.963H64.2577C64.3809 300.347 64.5041 299.736 64.6274 299.13C64.7506 298.525 64.8687 297.924 64.9816 297.328L66.2909 291.752H68.2471L69.5717 297.328C69.6949 297.914 69.813 298.514 69.926 299.13C70.0492 299.736 70.1724 300.347 70.2957 300.963H70.3727C70.4548 300.347 70.537 299.736 70.6191 299.13C70.7115 298.525 70.7988 297.924 70.881 297.328L71.7897 291.752H73.9462L71.836 303.166H69.0018L67.7234 297.513C67.6309 297.072 67.5437 296.635 67.4615 296.204C67.3794 295.762 67.3075 295.326 67.2459 294.895H67.1843C67.1021 295.326 67.0148 295.762 66.9224 296.204C66.8403 296.635 66.7581 297.072 66.676 297.513L65.4283 303.166H62.6404ZM74.8555 303.166V294.54H76.7039L76.8733 296.065H76.9195C77.2379 295.5 77.6127 295.069 78.044 294.771C78.4752 294.474 78.9168 294.325 79.3686 294.325C79.6151 294.325 79.8102 294.345 79.9539 294.386C80.108 294.417 80.2466 294.458 80.3698 294.51L80.0001 296.466C79.8358 296.425 79.6869 296.394 79.5535 296.373C79.4302 296.342 79.2711 296.327 79.076 296.327C78.7474 296.327 78.3982 296.455 78.0286 296.712C77.6692 296.969 77.3662 297.405 77.1198 298.021V303.166H74.8555ZM80.9632 303.166V294.54H83.2274V303.166H80.9632ZM82.103 293.139C81.7025 293.139 81.3842 293.031 81.148 292.815C80.9118 292.589 80.7938 292.286 80.7938 291.906C80.7938 291.537 80.9118 291.239 81.148 291.013C81.3842 290.787 81.7025 290.674 82.103 290.674C82.483 290.674 82.7961 290.787 83.0426 291.013C83.289 291.239 83.4123 291.537 83.4123 291.906C83.4123 292.286 83.289 292.589 83.0426 292.815C82.7961 293.031 82.483 293.139 82.103 293.139ZM88.1827 303.382C87.505 303.382 86.9556 303.248 86.5346 302.981C86.1136 302.704 85.8107 302.324 85.6258 301.841C85.441 301.359 85.3486 300.799 85.3486 300.162V296.327H84.1318V294.648L85.4718 294.54L85.7337 292.214H87.5974V294.54H89.7384V296.327H87.5974V300.147C87.5974 300.64 87.7001 301.004 87.9055 301.241C88.1109 301.477 88.4035 301.595 88.7835 301.595C88.9272 301.595 89.0761 301.574 89.2301 301.533C89.3842 301.492 89.5177 301.451 89.6306 301.41L90.0157 303.058C89.7795 303.13 89.5074 303.202 89.1993 303.274C88.9015 303.346 88.5627 303.382 88.1827 303.382ZM94.2744 303.382C93.4734 303.382 92.7495 303.202 92.1026 302.843C91.4556 302.483 90.9371 301.965 90.5469 301.287C90.1669 300.609 89.9769 299.798 89.9769 298.853C89.9769 298.155 90.0848 297.529 90.3004 296.974C90.5263 296.42 90.8292 295.947 91.2092 295.557C91.5994 295.156 92.0307 294.854 92.503 294.648C92.9857 294.433 93.4837 294.325 93.9971 294.325C94.7878 294.325 95.4501 294.504 95.9841 294.864C96.5181 295.213 96.9186 295.701 97.1855 296.327C97.4628 296.943 97.6014 297.652 97.6014 298.453C97.6014 298.658 97.5912 298.858 97.5706 299.053C97.5501 299.238 97.5244 299.387 97.4936 299.5H92.1796C92.2412 299.962 92.3798 300.352 92.5954 300.671C92.8111 300.989 93.0883 301.23 93.4272 301.395C93.7661 301.549 94.1512 301.626 94.5824 301.626C94.9316 301.626 95.2602 301.58 95.5682 301.487C95.8763 301.384 96.1895 301.236 96.5078 301.04L97.278 302.427C96.8569 302.714 96.3846 302.945 95.8609 303.12C95.3372 303.294 94.8083 303.382 94.2744 303.382ZM92.1334 297.975H95.6606C95.6606 297.4 95.5272 296.943 95.2602 296.604C95.0034 296.255 94.5927 296.081 94.0279 296.081C93.7301 296.081 93.4477 296.153 93.1808 296.296C92.9138 296.43 92.6879 296.64 92.503 296.928C92.3182 297.205 92.195 297.554 92.1334 297.975Z" fill="white"/>
<defs>
<linearGradient id="paint0_linear_69730_13717" x1="289.443" y1="59.9531" x2="392.427" y2="297.296" gradientUnits="userSpaceOnUse">
<stop stop-color="#4987FF" stop-opacity="0"/>
<stop offset="1" stop-color="#4987FF"/>
</linearGradient>
<linearGradient id="paint1_linear_69730_13717" x1="227.843" y1="42.9545" x2="37.6309" y2="226.663" gradientUnits="userSpaceOnUse">
<stop stop-color="#1DD844"/>
<stop offset="1" stop-color="#1DD844" stop-opacity="0"/>
</linearGradient>
<linearGradient id="paint2_linear_69730_13717" x1="71.5923" y1="356.335" x2="297.573" y2="305.426" gradientUnits="userSpaceOnUse">
<stop stop-color="#FB9600"/>
<stop offset="1" stop-color="#FB9600" stop-opacity="0"/>
</linearGradient>
<linearGradient id="paint3_linear_69730_13717" x1="163.423" y1="126.046" x2="252.607" y2="281.36" gradientUnits="userSpaceOnUse">
<stop stop-color="#6CE330"/>
<stop offset="1" stop-color="#56E273"/>
</linearGradient>
</defs>
</svg>
