<svg width="268" height="36" viewBox="0 0 268 36" fill="none" xmlns="http://www.w3.org/2000/svg">
<path d="M67.4222 24.0447C67.7284 23.0761 67.8834 22.0581 67.8834 21.0189C67.8834 19.8829 67.7378 18.8116 67.4496 17.8358C67.1585 16.8491 66.7146 15.9766 66.1295 15.2419C65.5387 14.5013 64.7785 13.9143 63.8691 13.4992C62.9649 13.0856 61.8905 12.8758 60.6771 12.8758H53.3411C52.9333 12.8758 52.6026 13.2101 52.6026 13.6223V28.4155C52.6026 28.8277 52.9333 29.162 53.3411 29.162H60.3968C61.6304 29.162 62.7278 28.9311 63.6602 28.4752C64.5897 28.0208 65.3809 27.4077 66.0092 26.6525C66.6375 25.9009 67.1124 25.0227 67.4222 24.0447ZM62.624 23.9172C62.0923 24.6353 61.2298 24.9841 59.9897 24.9841H57.1651C57.124 24.9841 57.0916 24.9506 57.0916 24.9098V17.1265C57.0916 17.085 57.1248 17.0522 57.1651 17.0522H59.9897C61.2305 17.0522 62.0923 17.4011 62.624 18.1191C63.1709 18.8568 63.4483 19.8326 63.4483 21.0182C63.4483 22.2045 63.1709 23.1803 62.624 23.9172Z" fill="#52CF29"/>
<path d="M71.2176 29.1627H74.2428C74.6505 29.1627 74.9812 28.8284 74.9812 28.4162V13.6223C74.9812 13.2101 74.6505 12.8758 74.2428 12.8758H71.2176C70.8098 12.8758 70.4791 13.2101 70.4791 13.6223V28.417C70.4799 28.8292 70.8106 29.1627 71.2176 29.1627Z" fill="#52CF29"/>
<path d="M82.5963 19.6075L89.3407 28.7737C89.4805 28.9565 89.6959 29.0628 89.9243 29.0628L92.0752 29.0744C92.483 29.0744 92.8137 28.7402 92.8137 28.328V13.3818C92.8137 12.9697 92.483 12.6354 92.0752 12.6354H89.1613C88.7534 12.6354 88.4234 12.9697 88.4227 13.3818L88.422 20.6911C88.422 20.7624 88.3362 20.7988 88.2937 20.742C87.509 19.7007 83.6937 14.2564 82.7001 12.9281C82.5603 12.7417 82.3455 12.6354 82.1142 12.6354H78.8105C78.4027 12.6354 78.0719 12.9697 78.0719 13.3818V28.3287C78.0719 28.7409 78.4027 29.0752 78.8105 29.0752H81.7244C82.1322 29.0752 82.463 28.7409 82.463 28.3295L82.4651 19.6541C82.4644 19.582 82.5538 19.5514 82.5963 19.6075Z" fill="#52CF29"/>
<path d="M14.8629 18.1417C14.8629 16.3691 14.3916 15.0328 13.4621 14.1684C12.5405 13.3113 11.0634 12.8773 9.07249 12.8773H0.72848C0.326411 12.8773 0 13.2065 0 13.6128V28.4177C0 28.8299 0.330734 29.1641 0.738567 29.1641H3.91549C4.32908 29.1641 4.66198 28.8211 4.65405 28.4031L4.65478 23.3419C4.65478 23.3004 4.68864 23.2669 4.72971 23.2677L6.79554 23.2881C6.82076 23.2881 6.83805 23.2917 6.85102 23.3135C7.07511 23.6747 9.56463 27.621 10.3219 28.8211C10.4574 29.036 10.6916 29.1649 10.9438 29.1649H13.7323C14.3138 29.1649 14.6669 28.5167 14.3563 28.0201L11.4359 23.1905C12.3791 22.83 13.0831 22.2882 13.728 21.576C14.481 20.7429 14.8629 19.5872 14.8629 18.1417ZM9.86942 19.0905C9.65542 19.336 9.20147 19.4656 8.55585 19.4656H4.61875C4.57768 19.4656 4.54525 19.4321 4.54525 19.3913V16.9503C4.54525 16.9088 4.5784 16.876 4.61875 16.876H8.55513C9.20075 16.876 9.65542 17.0056 9.8687 17.251C10.0993 17.5161 10.2124 17.8176 10.2124 18.1708C10.2124 18.5247 10.1 18.8255 9.86942 19.0905Z" fill="#52CF29"/>
<path d="M44.9413 13.3725C44.8369 13.0747 44.558 12.8758 44.246 12.8758H39.5783C39.2605 12.8758 38.978 13.0812 38.8779 13.3863L34.0113 28.1781C33.852 28.6624 34.2101 29.162 34.7152 29.1598L37.8237 29.1437C38.1343 29.1423 38.411 28.9457 38.5147 28.65C38.7712 27.9218 39.2374 26.5986 39.3758 26.1937C39.3859 26.1638 39.4111 26.1522 39.4428 26.1522H44.5544C44.5854 26.1522 44.6092 26.1609 44.62 26.1901C44.7403 26.5192 45.2714 27.9203 45.5553 28.6682C45.6648 28.9566 45.9372 29.143 46.2427 29.143H49.4398C49.9499 29.143 50.3066 28.6325 50.1358 28.1468L44.9413 13.3725ZM43.5953 22.7302H39.9508C39.9004 22.7302 39.865 22.6807 39.8809 22.6327L41.6246 17.254C41.6463 17.1862 41.7407 17.1848 41.7644 17.2518L43.6652 22.6305C43.6825 22.6785 43.6465 22.7302 43.5953 22.7302Z" fill="#52CF29"/>
<path d="M19.1083 29.1627L31.1062 29.1598C31.514 29.1598 31.8448 28.8255 31.8448 28.4133V25.6118C31.8448 25.1997 31.514 24.8654 31.1062 24.8654L22.9467 24.8669C22.9056 24.8669 22.8724 24.8334 22.8724 24.7926V22.8569C22.8724 22.8154 22.9056 22.7827 22.9459 22.7827L29.6889 22.7798C30.0967 22.7798 30.4267 22.4455 30.4267 22.0333V19.5857C30.4267 19.1736 30.096 18.8393 29.6882 18.8393L22.9452 18.8422C22.9049 18.8415 22.8717 18.8087 22.8717 18.7679V17.128C22.8717 17.0865 22.9049 17.0537 22.9452 17.0537L31.1048 17.0573C31.5126 17.0573 31.8433 16.7238 31.8433 16.3109V13.6237C31.8433 13.2116 31.5126 12.8773 31.1048 12.8773L19.1068 12.8758C18.699 12.8758 18.3683 13.2101 18.3683 13.6223V28.417C18.3697 28.8292 18.7004 29.1627 19.1083 29.1627Z" fill="#52CF29"/>
<path d="M110.983 19.6182L104.731 19.6211C104.323 19.6211 103.993 19.9554 103.993 20.3675V22.6054C103.993 23.0176 104.324 23.3518 104.732 23.3511L108.197 23.3504C108.277 23.3504 108.342 23.4159 108.342 23.4967V24.4602C107.762 24.817 106.92 25.0129 106.561 25.0777C106.023 25.1738 105.406 25.2226 104.728 25.2226C104.213 25.2226 103.682 25.1367 103.15 24.9685C102.625 24.8017 102.144 24.5403 101.721 24.19C101.3 23.8412 100.945 23.3882 100.667 22.8435C100.392 22.3046 100.253 21.6558 100.253 20.9152C100.253 20.1462 100.371 19.4798 100.602 18.9351C100.833 18.3918 101.148 17.9309 101.537 17.566C101.926 17.2005 102.375 16.9267 102.872 16.7533C103.822 16.4213 104.883 16.4074 105.992 16.6121C106.444 16.6951 106.852 16.7963 107.227 16.9077C107.633 17.0432 108.253 17.3097 108.706 17.5544C108.769 17.5893 108.982 17.7248 109.153 17.7248C109.459 17.7248 109.707 17.569 109.821 17.2959L109.838 17.2536L109.824 17.29L110.804 15.0755L110.81 15.0631C110.846 14.9728 110.867 14.8745 110.867 14.7704C110.867 14.4762 110.722 14.2271 110.467 14.1004C110.211 13.9737 108.258 13.059 107.398 12.8435C107.092 12.7641 106.794 12.6986 106.485 12.6367C106.018 12.55 105.603 12.5041 105.471 12.4939C105.124 12.467 104.774 12.4561 104.353 12.4561C103.27 12.4561 102.21 12.6286 101.204 12.968C100.188 13.311 99.2777 13.8375 98.4973 14.5337C97.7141 15.2313 97.075 16.1161 96.5994 17.1633C96.1217 18.212 95.8803 19.4543 95.8803 20.8554C95.8803 22.2566 96.1224 23.4989 96.5994 24.5476C97.0757 25.5955 97.7148 26.4759 98.4995 27.1641C99.2813 27.8508 100.194 28.3628 101.21 28.6854C102.215 29.0036 103.273 29.1645 104.353 29.1645C106.37 29.1645 107.893 29.0109 109.38 28.4735C109.929 28.2754 110.473 28.0249 111.035 27.7103C111.459 27.4729 111.723 27.0214 111.723 26.5313V20.3653C111.722 19.9524 111.391 19.6182 110.983 19.6182Z" fill="#52CF29"/>
<path d="M130.5 5.62413C131.084 5.63412 131.674 5.67762 132.266 5.75763C136.171 6.28664 139.718 8.31874 142.153 11.4233C144.589 14.5281 145.722 18.4621 145.312 22.3897C144.447 30.6484 137.019 36.7346 128.77 35.9283C126.58 35.7173 124.461 35.0296 122.563 33.9139C121.9 33.5272 121.12 33.3958 120.367 33.5445L116.363 34.3233C116.135 34.3675 115.899 34.3509 115.679 34.2751C115.459 34.1992 115.263 34.0666 115.11 33.8909C114.958 33.7152 114.854 33.5023 114.81 33.2738C114.765 33.0452 114.782 32.8089 114.857 32.5885L116.215 28.6435C116.458 27.9202 116.433 27.1331 116.147 26.4259C115.201 24.0498 114.873 21.4716 115.192 18.9335C115.487 16.5598 116.322 14.3797 117.558 12.501H122.649C124.444 12.5007 126.13 11.6437 127.18 10.1981L130.5 5.62413ZM130.669 11.9825C128.467 11.5864 126.044 12.7481 125.607 15.2785C125.378 16.6052 125.865 17.5198 126.485 18.5122C126.504 18.5433 126.492 18.5791 126.458 18.5909C125.315 18.9837 122.982 19.8292 122.512 22.5492C122.268 23.96 122.641 25.2143 123.356 26.2212C123.822 26.8782 124.433 27.43 125.113 27.8507C125.792 28.2707 126.54 28.5601 127.281 28.6932C128.63 28.9361 129.735 28.6034 130.579 28.1422C131.228 27.7878 131.723 27.3576 132.056 27.0556L133.707 29.4705C133.873 29.7143 134.196 29.787 134.447 29.6374L136.991 28.1221C137.028 28.0987 137.054 28.0572 137.054 28.0094C137.054 27.946 137.009 27.8926 136.951 27.8796H136.95L136.08 27.712L134.124 24.861C134.843 25.0118 135.665 24.587 136.068 23.8086C136.325 23.3127 136.356 22.7785 136.198 22.3423C136.215 22.3226 137.67 20.6493 137.71 20.6038C137.711 20.601 137.712 20.5974 137.714 20.5941C137.719 20.5881 137.723 20.5814 137.726 20.5748C137.727 20.5733 137.727 20.5714 137.728 20.5704C137.737 20.5533 137.742 20.5346 137.742 20.5148C137.742 20.512 137.741 20.5086 137.74 20.5059V20.5029C137.739 20.4935 137.737 20.4836 137.734 20.4747C137.734 20.4733 137.734 20.4715 137.734 20.471C137.727 20.4506 137.715 20.4328 137.699 20.4184L137.699 20.4176C137.678 20.3987 137.652 20.3871 137.623 20.3842C137.335 20.3327 134.778 19.8761 134.733 19.868C134.515 19.8301 134.354 19.9033 134.221 20.0453L132.333 22.1568C132.315 22.1768 132.283 22.1742 132.268 22.1516L131.05 20.3175C131.029 20.2858 131.038 20.245 131.074 20.2337C131.971 19.946 133.983 19.2182 134.405 16.7715C134.812 14.4156 133.032 12.4084 130.669 11.9825ZM127.974 21.2542C128.031 21.2405 128.09 21.2641 128.123 21.3128L130.262 24.4375C130.273 24.4536 130.272 24.475 130.259 24.4894C129.75 25.0762 128.887 26.0583 127.562 25.82C126.403 25.6115 125.326 24.6521 125.571 23.2345C125.816 21.814 127.241 21.4303 127.974 21.2542ZM128.528 15.8036C128.66 15.0404 129.43 14.5937 130.194 14.7312C131.329 14.9358 131.572 15.744 131.463 16.377C131.299 17.3252 130.422 17.6203 129.525 17.8744C129.469 17.8905 129.409 17.8695 129.374 17.8225C128.838 17.1025 128.412 16.4774 128.528 15.8036ZM130.338 0C131.04 0.000136067 131.466 0.739966 131.156 1.32983L131.084 1.44627L125.567 9.04548C124.933 9.91856 123.939 10.4588 122.864 10.5229L122.648 10.5288H114.371V12.6901C114.521 12.7519 114.66 12.8487 114.772 12.983L115.232 13.5349C115.484 13.8367 115.542 14.2545 115.381 14.6125L114.604 16.3414C114.36 16.8841 113.583 16.8842 113.339 16.3414L112.563 14.6125C112.402 14.2545 112.46 13.8367 112.711 13.5349L113.172 12.983C113.284 12.8489 113.422 12.7519 113.572 12.6901V10.5288L113.422 10.5296C112.688 10.5293 112.25 9.71713 112.657 9.11075L117.706 1.59015C118.374 0.596763 119.498 0.000108571 120.701 0H130.338Z" fill="#52CF29"/>
<path d="M168.02 19.1504C167.788 19.6783 167.671 20.324 167.671 21.0691C167.671 21.8143 167.788 22.3584 168.02 22.8862C168.252 23.4127 168.567 23.8594 168.958 24.2129C169.349 24.5671 169.799 24.8325 170.297 25.0004C171.249 25.3222 172.313 25.3356 173.425 25.1373C173.878 25.0569 174.288 24.9588 174.664 24.8508C175.071 24.7196 175.693 24.4613 176.147 24.2242C176.21 24.1903 176.424 24.0591 176.595 24.0591C176.903 24.0591 177.151 24.2101 177.265 24.4747L177.283 24.5156L177.268 24.4804L178.252 26.6263L178.257 26.6383C178.294 26.7258 178.314 26.8211 178.314 26.922C178.314 27.2071 178.169 27.4484 177.913 27.5712C177.657 27.694 175.698 28.5803 174.836 28.7892C174.529 28.8661 174.23 28.9296 173.92 28.9896C173.451 29.0736 173.035 29.118 172.903 29.1279C172.555 29.154 172.204 29.1646 171.782 29.1646C170.695 29.1646 169.633 28.9973 168.624 28.6685C167.606 28.3361 166.692 27.8259 165.91 27.1513C165.124 26.4753 164.483 25.6179 164.006 24.6031C163.527 23.587 163.285 22.369 163.285 21.0113C163.285 19.6536 163.527 18.4497 164.006 17.4335C164.483 16.4188 165.124 15.5614 165.91 14.8853C166.692 14.2107 167.606 13.7005 168.624 13.3682C169.633 13.0393 170.695 12.8721 171.781 12.8721C172.204 12.8721 172.555 12.8827 172.903 12.9088C173.035 12.9186 173.451 12.9631 173.92 13.0471C174.23 13.1071 174.529 13.1706 174.836 13.2475C175.698 13.4564 177.657 14.3427 177.913 14.4655C178.169 14.5883 178.314 14.8296 178.314 15.1147C178.314 15.2156 178.293 15.3109 178.257 15.3984L178.252 15.4104L177.268 17.5563L177.283 17.521L177.265 17.562C177.151 17.8266 176.902 17.9776 176.595 17.9776C176.424 17.9776 176.21 17.8463 176.147 17.8125C175.693 17.5754 175.071 17.3171 174.664 17.1858C174.288 17.0779 173.878 16.9798 173.425 16.8993C172.313 16.701 171.249 16.7144 170.296 17.0362C169.799 17.2042 169.348 17.4695 168.958 17.8238C168.567 18.1773 168.252 18.624 168.02 19.1504Z" fill="#495057"/>
<path d="M245.211 12.8691C244.971 12.8691 244.749 12.9745 244.604 13.1593C243.903 14.0573 241.842 17.5535 240.344 19.6179C240.264 19.7294 240.099 19.7294 240.018 19.6179C238.52 17.5535 236.46 14.0573 235.758 13.1593C235.613 12.9745 235.391 12.8691 235.151 12.8691H231.73C231.308 12.8691 230.966 13.2005 230.966 13.609V28.4245C230.966 28.8331 231.308 29.1644 231.73 29.1644H234.748C235.17 29.1644 235.512 28.8331 235.512 28.4252L235.515 19.8261C235.514 19.7546 235.606 19.7243 235.65 19.7799L240.011 26.1781C240.093 26.2979 240.269 26.2979 240.351 26.1781L244.712 19.7799C244.756 19.7243 244.848 19.7546 244.848 19.8261L244.85 28.4252C244.85 28.8331 245.192 29.1644 245.615 29.1644H248.632C249.054 29.1644 249.396 28.8331 249.396 28.4245V13.609C249.396 13.2005 249.054 12.8691 248.632 12.8691H245.211Z" fill="#495057"/>
<path d="M215.885 29.1644L228.308 29.1615C228.731 29.1615 229.073 28.8271 229.073 28.4147V25.6117C229.073 25.1994 228.731 24.8649 228.308 24.8649L219.86 24.8664C219.817 24.8664 219.783 24.8329 219.783 24.7921V22.8554C219.783 22.8139 219.817 22.7811 219.859 22.7811L226.841 22.7782C227.263 22.7782 227.605 22.4438 227.605 22.0314V19.5825C227.605 19.1701 227.262 18.8357 226.84 18.8357L219.858 18.8386C219.816 18.8379 219.782 18.8051 219.782 18.7643V17.1235C219.782 17.0819 219.816 17.0492 219.858 17.0492L228.307 17.0528C228.729 17.0528 229.072 16.7191 229.072 16.306V13.6174C229.072 13.205 228.729 12.8706 228.307 12.8706L215.884 12.8691C215.462 12.8691 215.119 13.2036 215.119 13.616V28.4183C215.121 28.8307 215.463 29.1644 215.885 29.1644Z" fill="#495057"/>
<path d="M213.032 24.0443C213.349 23.0752 213.51 22.0566 213.51 21.0169C213.51 19.8803 213.359 18.8085 213.061 17.8322C212.759 16.8449 212.3 15.972 211.694 15.2369C211.082 14.4959 210.295 13.9086 209.353 13.4933C208.417 13.0795 207.304 12.8696 206.048 12.8696H198.452C198.03 12.8696 197.688 13.2041 197.688 13.6165V28.4174C197.688 28.8298 198.03 29.1642 198.452 29.1642H205.758C207.035 29.1642 208.171 28.9332 209.137 28.4771C210.099 28.0225 210.919 27.409 211.569 26.6534C212.22 25.9015 212.711 25.0228 213.032 24.0443ZM208.064 23.9168C207.513 24.6352 206.62 24.9842 205.336 24.9842H202.412C202.369 24.9842 202.336 24.9507 202.336 24.9099V17.1225C202.336 17.081 202.37 17.0482 202.412 17.0482H205.336C206.621 17.0482 207.513 17.3972 208.064 18.1156C208.63 18.8537 208.918 19.83 208.918 21.0162C208.918 22.2031 208.63 23.1794 208.064 23.9168Z" fill="#495057"/>
<path d="M158.281 13.3661C158.173 13.0681 157.884 12.8691 157.561 12.8691H152.728C152.399 12.8691 152.106 13.0746 152.002 13.3799L146.963 28.1794C146.799 28.6639 147.169 29.1637 147.692 29.1615L150.911 29.1455C151.233 29.144 151.519 28.9473 151.626 28.6515C151.892 27.9229 152.375 26.599 152.518 26.1939C152.528 26.164 152.555 26.1524 152.587 26.1524H157.88C157.912 26.1524 157.937 26.1611 157.948 26.1903C158.073 26.5196 158.622 27.9214 158.916 28.6697C159.03 28.9582 159.312 29.1448 159.628 29.1448H162.939C163.467 29.1448 163.836 28.634 163.659 28.148L158.281 13.3661ZM156.887 22.7286H153.113C153.061 22.7286 153.025 22.6791 153.041 22.631L154.847 17.2495C154.869 17.1818 154.967 17.1803 154.991 17.2473L156.959 22.6288C156.977 22.6769 156.94 22.7286 156.887 22.7286Z" fill="#495057"/>
<path d="M190.82 13.369C190.712 13.071 190.423 12.8721 190.1 12.8721H185.267C184.938 12.8721 184.645 13.0775 184.542 13.3828L179.502 28.1823C179.338 28.6668 179.708 29.1666 180.231 29.1644L183.45 29.1484C183.772 29.147 184.058 28.9502 184.165 28.6544C184.431 27.9258 184.914 26.6019 185.057 26.1968C185.068 26.167 185.094 26.1553 185.126 26.1553H190.419C190.451 26.1553 190.476 26.164 190.487 26.1932C190.612 26.5225 191.161 27.9244 191.455 28.6726C191.569 28.9612 191.851 29.1477 192.167 29.1477H195.478C196.006 29.1477 196.375 28.6369 196.198 28.151L190.82 13.369ZM189.426 22.7316H185.652C185.6 22.7316 185.564 22.682 185.58 22.6339L187.386 17.2525C187.408 17.1847 187.506 17.1832 187.53 17.2503L189.498 22.6318C189.516 22.6798 189.479 22.7316 189.426 22.7316Z" fill="#495057"/>
<path fill-rule="evenodd" clip-rule="evenodd" d="M254.906 12.8687C255.265 12.8687 255.598 13.0568 255.785 13.3638L258.432 17.7222C258.534 17.8899 258.779 17.886 258.876 17.7153L261.322 13.3911C261.504 13.0686 261.847 12.8687 262.217 12.8687H265.262C266.05 12.8687 266.546 13.7183 266.158 14.4038L261.075 23.3901V28.6772C261.074 28.9462 260.726 29.1644 260.296 29.1646H257.101C256.671 29.1646 256.323 28.9465 256.322 28.6772V23.3042L250.932 14.4312C250.516 13.7459 251.009 12.8687 251.811 12.8687H254.906Z" fill="#495057"/>
</svg>
