<svg width="471" height="486" viewBox="0 0 471 486" fill="none" xmlns="http://www.w3.org/2000/svg">
<path opacity="0.24" d="M468.5 347C468.5 438.368 432.174 525.991 367.512 590.596C303.904 654.15 218.002 690.31 128.171 691.472C128.06 691.473 127.952 691.485 127.845 691.5L-189.207 691.5C-227.478 691.5 -258.5 660.503 -258.5 622.269L-258.5 489.566C-258.5 451.332 -227.478 420.335 -189.207 420.335L127.603 420.335C127.853 420.398 128.117 420.425 128.39 420.407C145.925 419.291 162.533 411.933 175.158 399.603L175.757 399.012C189.563 385.219 197.319 366.511 197.319 347C197.319 327.794 189.804 309.365 176.399 295.638L175.757 294.988C163.258 282.5 146.729 274.964 129.224 273.65L128.39 273.593C128.117 273.575 127.853 273.601 127.603 273.665L-189.207 273.665C-227.478 273.665 -258.5 242.668 -258.5 204.435L-258.5 71.7314C-258.5 33.4973 -227.478 2.49997 -189.207 2.49997L127.845 2.49999C127.952 2.51528 128.06 2.52687 128.171 2.52831C218.002 3.6898 303.904 39.8498 367.512 103.404C432.174 168.009 468.5 255.632 468.5 347Z" stroke="url(#paint0_linear_69735_13769)" stroke-width="5"/>
<defs>
<linearGradient id="paint0_linear_69735_13769" x1="118.812" y1="-4.41245e-05" x2="118.812" y2="677.989" gradientUnits="userSpaceOnUse">
<stop stop-color="#00A4FF"/>
<stop offset="1" stop-color="#FFCE00" stop-opacity="0"/>
</linearGradient>
</defs>
</svg>
