<svg width="282" height="298" viewBox="0 0 282 298" fill="none" xmlns="http://www.w3.org/2000/svg">
<path d="M130.792 43.7087C135.32 42.5793 139.962 41.7138 144.705 41.0734C175.952 37.1154 207.547 45.5926 232.797 64.7246C258.046 83.8567 275.025 112.1 280.037 143.507C290.59 209.544 245.941 272.294 180.604 283.075C163.268 285.954 145.494 284.999 128.501 280.219C122.596 278.564 116.286 279.161 110.8 281.893L81.5314 296.21C79.8621 297.035 78.0171 297.361 76.1347 297.235C74.2916 297.098 72.4897 296.488 70.9459 295.431C69.4022 294.373 68.1769 292.935 67.3511 291.265C66.5254 289.594 66.1489 287.719 66.2744 285.835L68.5105 252.318C68.8889 246.204 67.0428 240.098 63.3763 235.195C51.1352 218.673 43.206 199.272 40.3887 178.88C37.7117 159.796 39.5996 141.128 45.2433 123.934L84.5184 113.41C98.3942 109.692 109.582 99.5477 114.679 86.1159L130.781 43.6694L130.792 43.7087ZM145.378 92.815C127.575 94.2639 111.306 108.335 113.172 128.94C114.173 139.729 119.849 145.86 126.691 152.266C126.91 152.46 126.866 152.766 126.663 152.946C118.663 158.369 102.437 169.78 104.457 191.899C105.519 203.386 110.997 212.387 118.616 218.712C123.588 222.845 129.448 225.899 135.573 227.748C141.698 229.596 148.069 230.327 154.065 229.814C164.957 228.913 172.808 224.035 178.358 218.722C182.6 214.642 185.538 210.24 187.494 207.193L205.268 222.568C207.066 224.105 209.693 224.031 211.337 222.329L227.812 205.261C228.033 204.991 228.145 204.625 228.051 204.272C227.914 203.762 227.456 203.464 226.994 203.462L219.944 203.963L198.905 185.805C204.786 185.49 210.214 180.505 211.72 173.585C212.65 169.215 211.81 164.984 209.681 161.897C209.756 161.708 217.516 145.671 217.735 145.234C217.735 145.234 217.725 145.195 217.714 145.156C217.704 145.117 217.761 145.017 217.751 144.978C217.758 144.849 217.795 144.672 217.753 144.515C217.753 144.515 217.742 144.476 217.732 144.436C217.732 144.436 217.69 144.279 217.669 144.201C217.588 144.054 217.428 143.929 217.289 143.882C217.289 143.882 216.873 143.741 216.627 143.765C214.288 143.972 193.616 145.685 193.252 145.74C191.483 145.878 190.386 146.803 189.661 148.174L179.484 168.517C179.484 168.517 179.124 168.739 178.964 168.614L165.731 156.856C165.511 156.663 165.505 156.328 165.748 156.137C172.048 152.053 186.095 142.235 184.241 122.299C182.468 103.141 164.566 91.205 145.407 92.7652L145.378 92.815ZM143.893 170.528C144.292 170.295 144.816 170.365 145.156 170.694L168.174 190.592C168.174 190.592 168.326 190.846 168.279 190.984C165.579 196.585 160.965 206.019 150.241 206.917C140.873 207.703 130.555 202.438 129.483 190.911C128.401 179.345 138.616 173.413 143.893 170.528ZM136.804 126.98C136.236 120.784 141.219 115.707 147.422 115.18C156.594 114.446 160.157 120.218 160.647 125.342C161.369 133.052 155.208 137.184 148.835 140.993C148.435 141.227 147.933 141.235 147.554 140.916C141.896 136.42 137.339 132.428 136.843 126.969L136.804 126.98ZM117.847 0.25854C123.256 -1.19085 128.093 3.69314 126.932 8.92319L126.625 9.97236L99.8963 80.4913C96.815 88.5902 90.2572 94.8458 82.1232 97.5718L80.4376 98.0235L16.5571 115.182L21.0661 132.01C22.3289 132.176 23.6258 132.627 24.7719 133.455L29.4847 136.775C32.0752 138.604 33.3788 141.744 32.8707 144.865L30.4786 159.926C29.7323 164.667 23.7352 166.274 20.7186 162.542L11.1162 150.694C9.11561 148.245 8.71381 144.863 10.0038 141.995L12.4252 136.764C13.0038 135.474 13.8621 134.445 14.9119 133.659L10.4029 116.831L9.26651 117.136C3.62213 118.648 -1.48023 113.247 0.394282 107.699L23.6744 38.7352C26.7386 29.6319 34.2002 22.6715 43.49 20.1824L117.847 0.25854Z" fill="url(#paint0_linear_69754_13837)" fill-opacity="0.4"/>
<defs>
<linearGradient id="paint0_linear_69754_13837" x1="24.0797" y1="17.9647" x2="253.337" y2="247.078" gradientUnits="userSpaceOnUse">
<stop stop-color="white" stop-opacity="0.92"/>
<stop offset="1" stop-color="white" stop-opacity="0.64"/>
</linearGradient>
</defs>
</svg>
