<svg width="782" height="822" viewBox="0 0 782 822" fill="none" xmlns="http://www.w3.org/2000/svg">
<path opacity="0.4" d="M391 2.5C494.04 2.5 592.856 43.3273 665.711 115.998C737.382 187.484 778.159 284.024 779.469 384.977V384.979C779.47 385.096 779.483 385.212 779.5 385.325V741.38C779.5 784.518 744.438 819.5 701.173 819.5H551.644C508.378 819.5 473.316 784.518 473.316 741.38L473.316 385.578C473.387 385.317 473.418 385.04 473.399 384.754C472.147 365.134 463.885 346.552 450.043 332.427L449.38 331.758C433.898 316.313 412.898 307.637 391 307.637C369.444 307.637 348.759 316.044 333.35 331.039L332.62 331.758C318.601 345.74 310.141 364.234 308.666 383.82L308.601 384.754C308.582 385.039 308.613 385.316 308.684 385.577L308.684 741.38C308.684 784.518 273.622 819.5 230.356 819.5H80.8271C37.5615 819.5 2.5 784.518 2.5 741.38L2.5 385.326C2.5175 385.212 2.5297 385.095 2.53125 384.977C3.84102 284.024 44.6182 187.484 116.289 115.998C189.144 43.3274 287.959 2.50001 391 2.5ZM311.14 387.46L310.889 387.447C310.886 387.447 310.883 387.446 310.88 387.445C310.965 387.454 311.052 387.46 311.14 387.46ZM781.662 387.437C781.768 387.45 781.875 387.46 781.984 387.46C781.875 387.46 781.768 387.45 781.662 387.437ZM471.359 387.408C471.34 387.412 471.32 387.414 471.3 387.418C471.32 387.415 471.34 387.412 471.359 387.408ZM310.686 387.416C310.671 387.413 310.655 387.412 310.641 387.409C310.655 387.412 310.671 387.413 310.686 387.416Z" stroke="url(#paint0_linear_69664_15691)" stroke-width="5"/>
<defs>
<linearGradient id="paint0_linear_69664_15691" x1="391" y1="0" x2="391" y2="720.763" gradientUnits="userSpaceOnUse">
<stop stop-color="#00A4FF"/>
<stop offset="1" stop-color="#FFCE00" stop-opacity="0"/>
</linearGradient>
</defs>
</svg>
