<svg width="820" height="864" viewBox="0 0 820 864" fill="none" xmlns="http://www.w3.org/2000/svg">
<path opacity="0.4" d="M84.7549 0.5H241.551C288.084 0.500186 325.805 38.2155 325.805 84.7393V459.115C325.741 459.211 325.706 459.328 325.714 459.452C327.015 479.885 335.714 499.221 350.281 513.784C366.118 529.62 387.599 538.517 410 538.517C432.051 538.517 453.211 529.896 468.973 514.521L469.719 513.784C484.286 499.221 492.985 479.885 494.286 459.452C494.294 459.328 494.259 459.211 494.195 459.115V84.7393C494.195 38.2156 531.916 0.500206 578.449 0.5H735.245C781.779 0.499996 819.5 38.2154 819.5 84.7393V459.209C819.492 459.231 819.484 459.254 819.479 459.277L819.467 459.381C818.086 566.048 775.104 668.051 699.559 743.582C622.765 820.364 518.608 863.5 410 863.5C301.392 863.5 197.235 820.364 120.441 743.582C44.8959 668.051 1.91382 566.048 0.533203 459.381C0.532412 459.321 0.519715 459.264 0.5 459.21V84.7393C0.499996 38.2154 38.2214 0.500004 84.7549 0.5ZM493.832 458.88H493.834C493.804 458.875 493.773 458.871 493.741 458.871L493.832 458.88Z" fill="url(#paint0_linear_69759_13827)" stroke="white"/>
<defs>
<linearGradient id="paint0_linear_69759_13827" x1="410" y1="864" x2="410" y2="106.41" gradientUnits="userSpaceOnUse">
<stop stop-color="white"/>
<stop offset="1" stop-color="white" stop-opacity="0"/>
</linearGradient>
</defs>
</svg>
