<svg width="980" height="939" viewBox="0 0 980 939" fill="none" xmlns="http://www.w3.org/2000/svg">
<path opacity="0.4" d="M361.965 106.073C295.175 172.883 257.175 263.11 255.954 357.462C255.954 357.47 255.948 357.477 255.94 357.477C255.932 357.477 255.925 357.483 255.925 357.491L255.925 688.452C255.925 729.798 289.431 763.316 330.765 763.316L469.218 763.316C510.552 763.316 544.058 729.798 544.058 688.452L544.058 357.517C544.058 357.495 544.04 357.477 544.017 357.477C543.994 357.477 543.975 357.457 543.977 357.433C545.119 339.489 552.755 322.507 565.542 309.717C579.443 295.809 598.299 287.996 617.963 287.996C637.626 287.996 656.482 295.809 670.383 309.717C683.17 322.507 690.806 339.489 691.948 357.433C691.95 357.457 691.931 357.477 691.908 357.477C691.885 357.477 691.867 357.495 691.867 357.517L691.867 688.452C691.867 729.798 725.373 763.316 766.707 763.316L905.16 763.316C946.494 763.316 980 729.798 980 688.452L980 357.491C980 357.483 979.993 357.477 979.985 357.477C979.977 357.477 979.971 357.47 979.971 357.462C978.75 263.109 940.75 172.883 873.96 106.073C806.067 38.1556 713.983 2.3256e-05 617.962 3.16503e-05C521.942 4.00447e-05 429.858 38.1556 361.965 106.073Z" fill="url(#paint0_linear_69759_13828)" fill-opacity="0.24"/>
<path opacity="0.4" d="M79.4213 446.737C29.3971 496.777 0.935503 564.354 0.0212636 635.023C0.0212026 635.029 0.0162588 635.034 0.0102163 635.034C0.0041738 635.034 -0.00077005 635.039 -0.000770049 635.045L-0.000748379 882.928C-0.000745671 913.896 25.0947 939 56.0528 939L159.752 939C190.71 939 215.806 913.896 215.806 882.928L215.806 635.064C215.806 635.047 215.792 635.034 215.775 635.034C215.758 635.034 215.744 635.019 215.745 635.001C216.601 621.561 222.319 608.842 231.897 599.262C242.308 588.846 256.431 582.994 271.159 582.994C285.887 582.994 300.009 588.846 310.421 599.262C319.998 608.842 325.717 621.561 326.573 635.001C326.574 635.019 326.56 635.034 326.542 635.034C326.525 635.034 326.512 635.047 326.512 635.064L326.512 882.928C326.512 913.896 351.607 939 382.565 939L486.265 939C517.223 939 542.318 913.896 542.318 882.928L542.318 635.045C542.318 635.038 542.313 635.034 542.307 635.034C542.301 635.034 542.296 635.029 542.296 635.023C541.382 564.354 512.92 496.776 462.896 446.737C412.046 395.868 343.076 367.29 271.159 367.29C199.241 367.29 130.272 395.868 79.4213 446.737Z" fill="url(#paint1_linear_69759_13828)" fill-opacity="0.24"/>
<defs>
<linearGradient id="paint0_linear_69759_13828" x1="617.963" y1="3.16503e-05" x2="617.963" y2="669.306" gradientUnits="userSpaceOnUse">
<stop stop-color="white"/>
<stop offset="1" stop-color="white" stop-opacity="0"/>
</linearGradient>
<linearGradient id="paint1_linear_69759_13828" x1="271.159" y1="367.29" x2="271.159" y2="868.588" gradientUnits="userSpaceOnUse">
<stop stop-color="white"/>
<stop offset="1" stop-color="white" stop-opacity="0"/>
</linearGradient>
</defs>
</svg>
