<svg width="640" height="674" viewBox="0 0 640 674" fill="none" xmlns="http://www.w3.org/2000/svg">
<path opacity="0.4" d="M320 671.5C236.449 671.5 156.297 638.592 96.8936 579.96L95.4941 578.57C36.9212 520.039 3.59582 440.992 2.52542 358.332L2.52542 358.322C2.52366 358.219 2.51382 358.118 2.50003 358.018L2.50005 66.1044C2.50006 30.9785 30.9945 2.50011 66.1495 2.49995L188.527 2.49996C223.682 2.50013 252.177 30.9785 252.177 66.1045L252.177 357.794C252.119 358.036 252.093 358.29 252.11 358.552C253.159 375.002 260.166 390.568 271.898 402.292C284.654 415.041 301.957 422.203 320 422.203C338.043 422.203 355.346 415.041 368.102 402.292C379.835 390.567 386.841 375 387.89 358.549L387.89 358.548C387.906 358.287 387.881 358.033 387.823 357.792L387.823 66.1045C387.823 30.9785 416.318 2.50005 451.473 2.49998L573.85 2.49999C609.005 2.5 637.5 30.9784 637.5 66.1045L637.5 358.019C637.486 358.121 637.476 358.226 637.475 358.332C636.404 440.992 603.079 520.039 544.506 578.57C484.965 638.072 404.208 671.5 320 671.5ZM385.359 355.852L385.611 355.864C385.615 355.865 385.618 355.866 385.621 355.866C385.535 355.857 385.448 355.852 385.359 355.852Z" stroke="url(#paint0_linear_69664_15690)" stroke-width="5"/>
<defs>
<linearGradient id="paint0_linear_69664_15690" x1="320" y1="674" x2="320" y2="83.0095" gradientUnits="userSpaceOnUse">
<stop stop-color="#1DD844"/>
<stop offset="1" stop-color="#00A4FF" stop-opacity="0"/>
</linearGradient>
</defs>
</svg>
