<svg width="732" height="694" viewBox="0 0 732 694" fill="none" xmlns="http://www.w3.org/2000/svg">
<path d="M729.5 347C729.5 438.368 693.174 525.991 628.512 590.596C564.904 654.15 479.002 690.31 389.171 691.472L389.172 691.472C389.061 691.473 388.953 691.485 388.847 691.5L71.7929 691.5C33.5216 691.5 2.49997 660.503 2.49997 622.269L2.49998 489.566C2.49998 451.332 33.5216 420.335 71.793 420.335L388.603 420.335C388.769 420.377 388.942 420.403 389.119 420.41L389.39 420.407C406.925 419.291 423.533 411.934 436.159 399.603L436.757 399.012C450.563 385.219 458.319 366.511 458.319 347C458.319 327.794 450.804 309.365 437.399 295.638L436.757 294.988C424.258 282.5 407.729 274.964 390.224 273.65L389.39 273.593C389.117 273.575 388.853 273.602 388.603 273.665L71.793 273.665C33.5217 273.665 2.50019 242.668 2.49999 204.435L2.5 71.7314C2.5 33.4973 33.5216 2.49997 71.793 2.49997L388.844 2.49999C388.951 2.51534 389.06 2.52687 389.171 2.52831C479.002 3.6898 564.904 39.8498 628.512 103.404C693.174 168.009 729.5 255.632 729.5 347ZM386.708 693.693C386.697 693.789 386.689 693.887 386.689 693.986L386.702 693.73C386.703 693.718 386.707 693.706 386.708 693.693Z" stroke="url(#paint0_linear_69664_15693)" stroke-width="5"/>
<defs>
<linearGradient id="paint0_linear_69664_15693" x1="379.812" y1="-4.41245e-05" x2="379.812" y2="677.989" gradientUnits="userSpaceOnUse">
<stop stop-color="#00A4FF"/>
<stop offset="1" stop-color="#FFCE00" stop-opacity="0"/>
</linearGradient>
</defs>
</svg>
