<svg width="248" height="458" viewBox="0 0 248 458" fill="none" xmlns="http://www.w3.org/2000/svg">
<g opacity="0.24">
<mask id="path-1-inside-1_69735_13770" fill="white">
<path d="M20.9952 458C8.91183 458 -0.983474 448.035 0.0772164 435.813C2.29776 410.233 8.3496 385.101 18.0606 361.296C30.5677 330.637 48.8997 302.78 72.0098 279.314C81.5943 269.583 91.9232 260.686 102.884 252.699L21.0108 252.699C8.92738 252.699 -0.967987 242.734 0.0928593 230.513C2.3134 204.932 8.36524 179.8 18.0763 155.995C30.5834 125.336 48.9154 97.4789 72.0255 74.0136C95.1356 50.5484 122.572 31.9346 152.767 19.2353C182.961 6.53609 215.324 -2.02587e-05 248.007 -2.16801e-05C280.69 2.93573e-05 313.052 6.53604 343.247 19.2353C373.442 31.9346 400.877 50.5485 423.987 74.0137C447.097 97.4789 465.429 125.336 477.937 155.995C487.648 179.8 493.699 204.932 495.92 230.513C496.981 242.734 487.085 252.699 475.002 252.699L393.098 252.699C404.058 260.686 414.387 269.583 423.972 279.314C447.082 302.78 465.414 330.637 477.921 361.296C487.632 385.101 493.684 410.233 495.904 435.813C496.965 448.035 487.07 458 474.986 458L20.9952 458Z"/>
</mask>
<path fill-rule="evenodd" clip-rule="evenodd" d="M20.9952 458L20.9952 463V463L20.9952 458ZM0.0772114 435.813L-4.90405 435.381L-4.90405 435.381L0.0772114 435.813ZM18.0606 361.296L13.431 359.407L13.431 359.407L18.0606 361.296ZM72.0098 279.314L68.4475 275.806V275.806L72.0098 279.314ZM102.884 252.699L105.828 256.74L118.236 247.699L102.884 247.699L102.884 252.699ZM21.0108 252.699L21.0108 257.699V257.699L21.0108 252.699ZM0.0928544 230.513L-4.88841 230.08L-4.88841 230.08L0.0928544 230.513ZM18.0763 155.995L13.4467 154.106L13.4467 154.106L18.0763 155.995ZM72.0255 74.0136L68.4631 70.5052V70.5052L72.0255 74.0136ZM152.767 19.2353L150.828 14.6264L150.828 14.6264L152.767 19.2353ZM248.007 -2.16801e-05L248.007 -5.00002V-5.00002L248.007 -2.16801e-05ZM343.247 19.2353L345.186 14.6264V14.6264L343.247 19.2353ZM423.987 74.0137L427.55 70.5052L427.55 70.5052L423.987 74.0137ZM477.937 155.995L482.566 154.107L482.566 154.107L477.937 155.995ZM495.92 230.513L500.901 230.08L500.901 230.08L495.92 230.513ZM475.002 252.699L475.002 257.699V257.699L475.002 252.699ZM393.098 252.699L393.098 247.699L377.746 247.699L390.153 256.74L393.098 252.699ZM423.972 279.314L427.534 275.806V275.806L423.972 279.314ZM477.921 361.296L482.551 359.407L482.551 359.407L477.921 361.296ZM495.904 435.813L500.886 435.381L500.886 435.381L495.904 435.813ZM474.986 458L474.986 463V463L474.986 458ZM20.9952 458L20.9952 453C11.6243 453 4.2699 445.332 5.05847 436.246L0.0772114 435.813L-4.90405 435.381C-6.23688 450.738 6.19937 463 20.9952 463L20.9952 458ZM0.0772114 435.813L5.05847 436.246C7.23575 411.164 13.1696 386.522 22.6902 363.184L18.0606 361.296L13.431 359.407C3.52958 383.679 -2.64025 409.302 -4.90405 435.381L0.0772114 435.813ZM18.0606 361.296L22.6902 363.184C34.9521 333.127 52.9227 305.821 75.5722 282.823L72.0098 279.314L68.4475 275.806C44.8768 299.739 26.1834 328.147 13.431 359.407L18.0606 361.296ZM72.0098 279.314L75.5722 282.823C84.9654 273.285 95.0878 264.567 105.828 256.74L102.884 252.699L99.9393 248.658C88.7587 256.805 78.2231 265.88 68.4475 275.806L72.0098 279.314ZM102.884 252.699L102.884 247.699L21.0108 247.699L21.0108 252.699L21.0108 257.699L102.884 257.699L102.884 252.699ZM21.0108 252.699L21.0108 247.699C11.6398 247.699 4.28545 240.031 5.07412 230.945L0.0928544 230.513L-4.88841 230.08C-6.22142 245.438 6.21498 257.699 21.0108 257.699L21.0108 252.699ZM0.0928544 230.513L5.07412 230.945C7.2514 205.863 13.1852 181.222 22.7059 157.884L18.0763 155.995L13.4467 154.106C3.54522 178.378 -2.62461 204.001 -4.88841 230.08L0.0928544 230.513ZM18.0763 155.995L22.7058 157.884C34.9678 127.826 52.9384 100.52 75.5879 77.5221L72.0255 74.0136L68.4631 70.5052C44.8924 94.4381 26.199 122.847 13.4467 154.106L18.0763 155.995ZM72.0255 74.0136L75.5879 77.5221C98.2372 54.5247 125.122 36.2862 154.705 23.8443L152.767 19.2353L150.828 14.6264C120.021 27.5831 92.034 46.572 68.4631 70.5052L72.0255 74.0136ZM152.767 19.2353L154.705 23.8443C184.288 11.4026 215.992 4.99998 248.007 4.99998L248.007 -2.16801e-05L248.007 -5.00002C214.657 -5.00002 181.635 1.66962 150.828 14.6264L152.767 19.2353ZM248.007 -2.16801e-05L248.007 4.99998C280.022 5.00004 311.726 11.4025 341.309 23.8443L343.247 19.2353L345.186 14.6264C314.379 1.66957 281.357 -4.99996 248.007 -5.00002L248.007 -2.16801e-05ZM343.247 19.2353L341.309 23.8443C370.891 36.2862 397.776 54.5248 420.425 77.5221L423.987 74.0137L427.55 70.5052C403.979 46.5722 375.992 27.5831 345.186 14.6264L343.247 19.2353ZM423.987 74.0137L420.425 77.5221C443.074 100.52 461.045 127.826 473.307 157.884L477.937 155.995L482.566 154.107C469.814 122.847 451.12 94.4381 427.55 70.5052L423.987 74.0137ZM477.937 155.995L473.307 157.884C482.828 181.222 488.761 205.863 490.939 230.945L495.92 230.513L500.901 230.08C498.637 204.001 492.468 178.378 482.566 154.107L477.937 155.995ZM495.92 230.513L490.939 230.945C491.727 240.031 484.373 247.699 475.002 247.699L475.002 252.699L475.002 257.699C489.798 257.699 502.234 245.438 500.901 230.08L495.92 230.513ZM475.002 252.699L475.002 247.699L393.098 247.699L393.098 252.699L393.098 257.699L475.002 257.699L475.002 252.699ZM393.098 252.699L390.153 256.74C400.894 264.567 411.016 273.285 420.409 282.823L423.972 279.314L427.534 275.806C417.759 265.88 407.223 256.806 396.042 248.658L393.098 252.699ZM423.972 279.314L420.409 282.823C443.059 305.821 461.029 333.127 473.291 363.185L477.921 361.296L482.551 359.407C469.798 328.147 451.105 299.739 427.534 275.806L423.972 279.314ZM477.921 361.296L473.291 363.185C482.812 386.523 488.746 411.164 490.923 436.246L495.904 435.813L500.886 435.381C498.622 409.302 492.452 383.679 482.551 359.407L477.921 361.296ZM495.904 435.813L490.923 436.246C491.712 445.332 484.357 453 474.986 453L474.986 458L474.986 463C489.782 463 502.218 450.738 500.886 435.381L495.904 435.813ZM474.986 458L474.986 453L20.9952 453L20.9952 458L20.9952 463L474.986 463L474.986 458Z" fill="url(#paint0_linear_69735_13770)" mask="url(#path-1-inside-1_69735_13770)"/>
</g>
<defs>
<linearGradient id="paint0_linear_69735_13770" x1="219.759" y1="458" x2="220.014" y2="-0.86169" gradientUnits="userSpaceOnUse">
<stop stop-color="#1DD844"/>
<stop offset="1" stop-color="#1DD844"/>
</linearGradient>
</defs>
</svg>
